<?xml version="1.0" encoding="UTF-8"?>
<svg width="14px" height="12px" viewBox="0 0 14 12" version="1.1" xmlns="http://www.w3.org/2000/svg" xmlns:xlink="http://www.w3.org/1999/xlink">
    <title>np_number-list_3871818_5E656F</title>
    <g id="Approved-Screens" stroke="none" stroke-width="1" fill="none" fill-rule="evenodd">
        <g id="Affiliate-Admin-Dashboard-|-EVENTS-|-Create-New-3" transform="translate(-828.000000, -523.000000)" fill="#5E656F" fill-rule="nonzero">
            <g id="Accordion" transform="translate(314.000000, 102.000000)">
                <g id="DESCRIPTION" transform="translate(20.000000, 357.000000)">
                    <g id="Text-editor" transform="translate(27.976957, 55.000000)">
                        <g id="np_number-list_3871818_5E656F" transform="translate(466.023043, 9.000000)">
                            <path d="M13.4609712,2.15729216 L3.21942475,2.15729216 C2.92160489,2.15729216 2.68039599,1.91209874 2.68039599,1.60935921 C2.68039599,1.30661967 2.92160489,1.06142625 3.21942475,1.06142625 L13.4609712,1.06142625 C13.7587911,1.06142625 14,1.30661967 14,1.60935921 C14,1.91209874 13.7587911,2.15729216 13.4609712,2.15729216 Z M13.4609712,5.44488988 L3.21942475,5.44488988 C2.92160489,5.44488988 2.68039599,5.69008331 2.68039599,5.99282284 C2.68039599,6.29556237 2.92160489,6.54075579 3.21942475,6.54075579 L13.4609712,6.54075579 C13.7587911,6.54075579 14,6.29556237 14,5.99282284 C14,5.69008331 13.7587911,5.44488988 13.4609712,5.44488988 Z M13.4609712,9.82835352 L3.21942475,9.82835352 C2.92160489,9.82835352 2.68039599,10.0735469 2.68039599,10.3762865 C2.68039599,10.679026 2.92160489,10.9242194 3.21942475,10.9242194 L13.4609712,10.9242194 C13.7587911,10.9242194 14,10.679026 14,10.3762865 C14,10.0735469 13.7587911,9.82835352 13.4609712,9.82835352 Z M1.52679405,0.214891756 L1.52679405,3.0031253 C1.50320547,3.28941808 0.877262843,3.2901019 0.854356276,3.0031253 L0.853682534,0.771591637 L0.728358778,0.850357218 C0.447391113,1.0222714 0.282991653,0.509271146 0.534308423,0.381186339 L1.10366079,0.0305092485 C1.24246113,-0.0482563328 1.52275781,0.0298243762 1.52679405,0.214754992 L1.52679405,0.214891756 Z M0.359795231,7.59490885 C0.25468376,7.59626087 0.0592845394,7.51818051 0.0667015752,7.38462514 L0.0667015752,6.9592889 C0.067375318,6.84490855 0.101064874,6.73257616 0.163726752,6.63738486 C0.445367125,6.20862952 1.01404678,5.98396824 1.32601076,5.58740505 C1.73769074,5.06275706 0.80988856,4.71071233 0.774183294,5.33740736 C0.727692279,5.695624 0.0498666289,5.68054489 0.118586328,5.2319307 L0.118586328,5.23261557 C0.134757191,4.98810597 0.247953231,4.76139323 0.43122301,4.60248391 C0.614492789,4.44426893 0.853010861,4.36756533 1.09287435,4.39085028 C1.34553653,4.37098793 1.59552514,4.45660224 1.78484929,4.62783786 C1.97419069,4.79906647 2.0873781,5.04084781 2.09815868,5.29836753 C2.05840509,5.73534625 1.80910127,6.12436988 1.43110843,6.33738868 C1.20202552,6.54423556 0.777529585,6.66888373 0.764730886,6.99901115 L1.89534587,6.99901115 C2.16687838,7.02229786 2.16149671,7.5681776 1.89534587,7.59490885 L0.359795231,7.59490885 Z M1.99237105,10.4969194 C1.90882073,10.3948671 1.80033882,10.3174779 1.67771624,10.2736433 C2.02404007,9.98186241 2.11095738,9.47708027 1.88254717,9.08325237 C1.6696265,8.84763243 1.36037061,8.72847235 1.04773392,8.76134833 C0.813252099,8.7236786 0.57406132,8.78669001 0.388100709,8.93531748 C0.20146739,9.08462877 0.0842264783,9.30586043 0.0646834515,9.54558329 C0.0485125886,9.78530615 0.187312926,9.82914079 0.413698107,9.82160123 C0.625946072,9.8222861 0.720935877,9.75995921 0.728352913,9.57160353 C0.716898595,9.38462251 0.894104689,9.34352315 1.04706122,9.34832743 C1.24582052,9.35380676 1.37182389,9.42366865 1.36644223,9.66407708 C1.36374725,9.84488619 1.33612207,9.97228717 1.18991677,10.0216099 C1.13803547,10.0346234 1.08413259,10.0414723 1.03090243,10.0407884 C0.766097001,10.0339392 0.767459665,10.5715908 1.03090243,10.5668041 C1.13331789,10.5633794 1.23438794,10.5859808 1.32601421,10.632556 C1.49782898,10.7181703 1.47492069,11.19008 1.35633436,11.3051372 C1.21147102,11.4421204 0.65761509,11.4619827 0.664359418,11.1407573 C0.655600244,10.9229517 0.545098658,10.9215841 0.31938101,10.9126769 C0.105787629,10.919526 0.0033807884,10.9380186 0,11.1626746 L0,11.1633595 C0.0229082912,11.414041 0.144863333,11.643489 0.338906788,11.8003293 C0.532957143,11.9564893 0.780910373,12.0256744 1.02617277,11.9914133 C1.38934879,12.0222343 1.74376236,11.8667581 1.97082715,11.5777195 C2.16353209,11.2462245 2.17162183,10.8359498 1.9923883,10.4969152 L1.99237105,10.4969194 Z" id="Shape"></path>
                        </g>
                    </g>
                </g>
            </g>
        </g>
    </g>
</svg>