<?xml version="1.0" encoding="UTF-8"?>
<svg width="16px" height="12px" viewBox="0 0 16 12" version="1.1" xmlns="http://www.w3.org/2000/svg" xmlns:xlink="http://www.w3.org/1999/xlink">
    <title>np_number-list_3871818_5E656F</title>
    <g id="Approved-Screens" stroke="none" stroke-width="1" fill="none" fill-rule="evenodd">
        <g id="Affiliate-Admin-Dashboard-|-EVENTS-|-Create-New-3" transform="translate(-851.000000, -523.000000)" fill="#5E656F" fill-rule="nonzero">
            <g id="Accordion" transform="translate(314.000000, 102.000000)">
                <g id="DESCRIPTION" transform="translate(20.000000, 357.000000)">
                    <g id="Text-editor" transform="translate(27.976957, 55.000000)">
                        <g id="np_number-list_3871818_5E656F" transform="translate(489.703439, 9.400000)">
                            <path d="M14.7805753,1.75729216 L4.53902876,1.75729216 C4.2412089,1.75729216 4,1.51209874 4,1.20935921 C4,0.906619674 4.2412089,0.661426252 4.53902876,0.661426252 L14.7805753,0.661426252 C15.0783951,0.661426252 15.319604,0.906619674 15.319604,1.20935921 C15.319604,1.51209874 15.0783951,1.75729216 14.7805753,1.75729216 Z M14.7805753,5.04488988 L4.53902876,5.04488988 C4.2412089,5.04488988 4,5.29008331 4,5.59282284 C4,5.89556237 4.2412089,6.14075579 4.53902876,6.14075579 L14.7805753,6.14075579 C15.0783951,6.14075579 15.319604,5.89556237 15.319604,5.59282284 C15.319604,5.29008331 15.0783951,5.04488988 14.7805753,5.04488988 Z M14.7805753,9.42835352 L4.53902876,9.42835352 C4.2412089,9.42835352 4,9.67354694 4,9.97628647 C4,10.279026 4.2412089,10.5242194 4.53902876,10.5242194 L14.7805753,10.5242194 C15.0783951,10.5242194 15.319604,10.279026 15.319604,9.97628647 C15.319604,9.67354694 15.0783951,9.42835352 14.7805753,9.42835352 Z M1.25,2.5 C1.94035594,2.5 2.5,1.94035594 2.5,1.25 C2.5,0.559644063 1.94035594,0 1.25,0 C0.559644063,0 0,0.559644063 0,1.25 C0,1.94035594 0.559644063,2.5 1.25,2.5 Z M1.25,6.8 C1.94035594,6.8 2.5,6.24035594 2.5,5.55 C2.5,4.85964406 1.94035594,4.3 1.25,4.3 C0.559644063,4.3 0,4.85964406 0,5.55 C0,6.24035594 0.559644063,6.8 1.25,6.8 Z M1.25,11.1614263 C1.94035594,11.1614263 2.5,10.6017822 2.5,9.91142625 C2.5,9.22107032 1.94035594,8.66142625 1.25,8.66142625 C0.559644063,8.66142625 0,9.22107032 0,9.91142625 C0,10.6017822 0.559644063,11.1614263 1.25,11.1614263 Z" id="Shape"></path>
                        </g>
                    </g>
                </g>
            </g>
        </g>
    </g>
</svg>