<?xml version="1.0" encoding="UTF-8"?>
<svg width="12px" height="12px" viewBox="0 0 12 12" version="1.1" xmlns="http://www.w3.org/2000/svg" xmlns:xlink="http://www.w3.org/1999/xlink">
    <title>Path</title>
    <g id="Approved-Screens" stroke="none" stroke-width="1" fill="none" fill-rule="evenodd">
        <g id="Affiliate-Admin-Dashboard-|-EVENTS-|-Create-New-3" transform="translate(-773.000000, -523.000000)" fill="#5E656F" fill-rule="nonzero">
            <g id="Accordion" transform="translate(314.000000, 102.000000)">
                <g id="DESCRIPTION" transform="translate(20.000000, 357.000000)">
                    <g id="Text-editor" transform="translate(27.976957, 55.000000)">
                        <path d="M418.576472,20.5976509 L418.429988,21 L411.023043,21 L411.209077,20.5976509 C411.952471,20.5859322 412.443924,20.5078074 412.682704,20.4370013 C413.071613,20.3364153 413.359461,20.1791894 413.545497,20.0024273 C413.837001,19.725078 414.13803,19.2202042 414.447834,18.5068058 L417.581124,11.2631978 C417.846266,10.6611492 417.978827,10.2051003 417.978827,9.89745102 C417.978827,9.74412638 417.920967,9.61278919 417.805976,9.50682694 C417.690987,9.40038219 417.515934,9.31883988 417.282292,9.26220251 C417.047188,9.20653889 416.589429,9.25243691 415.908284,9.25243691 L416.067219,9 L423.023043,9 L422.877293,9.25243691 C422.31114,9.24657755 421.890731,9.25097204 421.616064,9.33935045 C421.21763,9.45751393 420.914407,9.60692483 420.706396,9.82469932 C420.498385,10.0429613 420.231049,10.5175727 419.903677,11.2670709 L416.784262,18.500929 C416.500821,19.1674274 416.359465,19.5897889 416.359465,19.773426 C416.359465,19.9208882 416.414397,20.0454004 416.525724,20.1479376 C416.636318,20.2509649 416.812822,20.3676621 417.055989,20.423812 C417.299156,20.4804518 417.805983,20.5624867 418.57649,20.5976366 L418.576472,20.5976509 Z" id="Path"></path>
                    </g>
                </g>
            </g>
        </g>
    </g>
</svg>