<?xml version="1.0" encoding="UTF-8"?>
<svg width="9px" height="12px" viewBox="0 0 9 12" version="1.1" xmlns="http://www.w3.org/2000/svg" xmlns:xlink="http://www.w3.org/1999/xlink">
    <title>np_text-bold_120489_000000</title>
    <g id="Approved-Screens" stroke="none" stroke-width="1" fill="none" fill-rule="evenodd">
        <g id="Affiliate-Admin-Dashboard-|-EVENTS-|-Create-New-3" transform="translate(-751.000000, -523.000000)" fill="#5E656F" fill-rule="nonzero">
            <g id="Accordion" transform="translate(316.000000, 104.000000)">
                <g id="DESCRIPTION" transform="translate(18.000000, 355.000000)">
                    <g id="Text-editor" transform="translate(27.976957, 55.000000)">
                        <g id="np_text-bold_120489_000000" transform="translate(389.023043, 9.000000)">
                            <path d="M3.82699922,2.49984 C5.35779891,2.49984 5.35779891,4.74984 3.82699922,4.74984 L2.55116953,4.74984 L2.56121537,2.50968 L3.82699922,2.49984 Z M4.33695146,7.25016 C5.86775115,7.25016 5.86775115,9.50016 4.33695146,9.50016 L2.55118178,9.50016 L2.55118178,7.25016 L4.33695146,7.25016 Z M4.13315916,0 L0,0 L0,12 L4.64358901,12 C6.68481855,12 8.47058824,10.5 8.47058824,8.49984 C8.47058824,6.49968 6.68432869,5.49984 6.68432869,5.49984 C6.68432869,5.49984 7.70469853,4.74984 7.70469853,3.24984 C7.70469853,1.5 6.17389884,0 4.13315916,0 Z" id="Shape"></path>
                        </g>
                    </g>
                </g>
            </g>
        </g>
    </g>
</svg>