<?xml version="1.0" encoding="UTF-8"?>
<svg width="12px" height="12px" viewBox="0 0 12 12" version="1.1" xmlns="http://www.w3.org/2000/svg" xmlns:xlink="http://www.w3.org/1999/xlink">
    <title>np_link_1880307_5E656F</title>
    <g id="Approved-Screens" stroke="none" stroke-width="1" fill="none" fill-rule="evenodd">
        <g id="Affiliate-Admin-Dashboard-|-EVENTS-|-Create-New-3" transform="translate(-796.000000, -523.000000)" fill="#5E656F" fill-rule="nonzero">
            <g id="Accordion" transform="translate(314.000000, 102.000000)">
                <g id="DESCRIPTION" transform="translate(20.000000, 357.000000)">
                    <g id="Text-editor" transform="translate(27.976957, 55.000000)">
                        <g id="np_link_1880307_5E656F" transform="translate(434.023043, 9.000000)">
                            <path d="M11.0629933,0.937264686 C9.81326709,-0.312421562 7.78675211,-0.312421562 6.53750589,0.937264686 L4.75195982,2.72227361 C4.89352906,2.70680433 5.03603433,2.7002427 5.17947564,2.7002427 C5.63136436,2.7002427 6.07060461,2.77196226 6.48692402,2.91024375 L7.49852545,1.89867469 C7.8458783,1.55086495 8.3080874,1.359608 8.79985359,1.359608 C9.29112777,1.359608 9.75332487,1.55086495 10.1011817,1.89867469 C10.4485346,2.24601643 10.6397977,2.70727474 10.6397977,3.1994812 C10.6397977,3.69073965 10.4485346,4.15292196 10.1011817,4.5002877 L8.1215885,6.4798176 C7.77376763,6.82762734 7.31155853,7.01888429 6.82026035,7.01888429 C6.32805014,7.01888429 5.86678907,6.82762734 5.5189322,6.4798176 C5.34970194,6.31154076 5.21798507,6.11512378 5.1270457,5.90137871 C4.90156936,5.91403517 4.69062555,6.00778564 4.52936359,6.16857204 L4.00200407,6.69638268 C4.14638142,6.96357602 4.33154827,7.21575728 4.55702461,7.44216241 C5.80675085,8.69184866 7.83326583,8.69184866 9.08299207,7.44216241 L11.0630653,5.46167251 C12.3123116,4.21246626 12.3123116,2.18649613 11.0630653,0.937289886 L11.0629933,0.937264686 Z" id="Path"></path>
                            <path d="M6.84135713,9.29884649 C6.38853238,9.29884649 5.94506797,9.22572053 5.51938822,9.08134541 L4.50075453,10.0999465 C4.15340168,10.4477562 3.69166059,10.6390132 3.1999064,10.6390132 C2.70863222,10.6390132 2.24690314,10.4477562 1.89905827,10.0999465 C1.5512374,9.75260476 1.35997432,9.29087845 1.35997432,8.79914 C1.35997432,8.30788154 1.5512374,7.84569923 1.89905827,7.49785349 L3.87865151,5.51832359 C4.22647238,5.17098185 4.68774545,4.9801929 5.17949964,4.9801929 C5.67170985,4.9801929 6.13297092,5.17144986 6.48082779,5.51832359 C6.65005805,5.68754844 6.78224294,5.88395342 6.87365033,6.09769849 C7.1000627,6.08597971 7.31147452,5.99129156 7.47226847,5.83050515 L7.99869195,5.30316252 C7.85431461,5.03503318 7.66867974,4.78331992 7.44273538,4.55690278 C6.19300914,3.30721654 4.16649416,3.30721654 2.91724794,4.55690278 L0.937654693,6.53739269 C-0.312551564,7.78707894 -0.312551564,9.81256906 0.937654693,11.0627353 C2.18738093,12.3124216 4.21293588,12.3124216 5.46266212,11.0627353 L7.24532808,9.2801264 C7.11219515,9.29231366 6.97812619,9.2993457 6.84265318,9.2993457 L6.84135713,9.29884649 Z" id="Path"></path>
                        </g>
                    </g>
                </g>
            </g>
        </g>
    </g>
</svg>