<?xml version="1.0" encoding="UTF-8"?>
<svg width="12px" height="12px" viewBox="0 0 12 12" version="1.1" xmlns="http://www.w3.org/2000/svg" xmlns:xlink="http://www.w3.org/1999/xlink">
    <title>np_text_4229138_000000</title>
    <g id="Approved-Screens" stroke="none" stroke-width="1" fill="none" fill-rule="evenodd">
        <g id="Affiliate-Admin-Dashboard-|-EVENTS-|-Create-New-3" transform="translate(-378.000000, -523.000000)" fill="#5E656F" fill-rule="nonzero">
            <g id="Accordion" transform="translate(316.000000, 104.000000)">
                <g id="DESCRIPTION" transform="translate(18.000000, 355.000000)">
                    <g id="Text-editor" transform="translate(27.976957, 55.000000)">
                        <g id="np_text_4229138_000000" transform="translate(16.023043, 9.000000)">
                            <path d="M11.5,0 L0.5,0 C0.223744,0 0,0.223744 0,0.5 L0,3 C0,3.276256 0.223744,3.5 0.5,3.5 C0.776256,3.5 1,3.276256 1,3 L1,1 L5.5,1 L5.5,11.5 C5.5,11.776256 5.723744,12 6,12 C6.276256,12 6.5,11.776256 6.5,11.5 L6.5,1 L11,1 L11,3 C11,3.276256 11.223744,3.5 11.5,3.5 C11.776256,3.5 12,3.276256 12,3 L12,0.5 C12,0.3675008 11.9475008,0.24 11.8537504,0.146256 C11.76,0.0525056 11.6325024,0 11.5,0 L11.5,0 Z" id="Path"></path>
                            <path d="M7.5,12 L4.5,12 C4.223744,12 4,11.776256 4,11.5 C4,11.223744 4.223744,11 4.5,11 L7.5,11 C7.776256,11 8,11.223744 8,11.5 C8,11.776256 7.776256,12 7.5,12 Z" id="Path"></path>
                        </g>
                    </g>
                </g>
            </g>
        </g>
    </g>
</svg>