<?xml version="1.0" encoding="UTF-8"?>
<svg width="12px" height="12px" viewBox="0 0 12 12" version="1.1" xmlns="http://www.w3.org/2000/svg" xmlns:xlink="http://www.w3.org/1999/xlink">
    <title>Accounts icon</title>
    <g id="Symbols" stroke="none" stroke-width="1" fill="none" fill-rule="evenodd">
        <g id="Affiliates-Nav" transform="translate(-30.000000, -263.000000)" fill="#FFFFFF" fill-rule="nonzero" stroke="#FFFFFF" stroke-width="0.25">
            <g id="Shape" transform="translate(31.000000, 264.000000)">
                <path d="M5,0 C2.24145455,0 0,2.24145455 0,5 C0,7.75854545 2.24145455,10 5,10 C7.75854545,10 10,7.75854545 10,5 C10,2.24145455 7.75854545,0 5,0 Z M5,0.454545455 C7.51301818,0.454545455 9.54545455,2.48698182 9.54545455,5 C9.54545455,7.51301818 7.51301818,9.54545455 5,9.54545455 C2.48698182,9.54545455 0.454545455,7.51301818 0.454545455,5 C0.454545455,2.48698182 2.48698182,0.454545455 5,0.454545455 Z M5,2.59090909 C4.12386909,2.59090909 3.40901818,3.30568727 3.40901818,4.18189091 C3.40901818,4.712 3.67322182,5.17962182 4.07378909,5.46939636 C2.89709091,5.85917091 2.04539225,6.96772364 2.04539225,8.27274182 C2.04088,8.58013091 2.50450909,8.58013091 2.49997091,8.27274182 C2.49997091,6.88922182 3.61645091,5.77266909 5.00004364,5.77266909 C6.38363636,5.77266909 7.50011636,6.88914909 7.50011636,8.27274182 C7.49557091,8.58013091 7.9592,8.58013091 7.95469492,8.27274182 C7.95469492,6.96705455 7.10295273,5.85848727 5.92629818,5.46939636 C6.32686545,5.18018909 6.59106909,4.71201455 6.59106909,4.18189091 C6.59106909,3.30576 5.87629091,2.59090909 5.00008727,2.59090909 L5,2.59090909 Z M5,3.04545455 C5.63010909,3.04545455 6.13636364,3.55170909 6.13636364,4.18181818 C6.13636364,4.81192727 5.63010909,5.31818182 5,5.31818182 C4.36989091,5.31818182 3.86363636,4.81192727 3.86363636,4.18181818 C3.86363636,3.55170909 4.36989091,3.04545455 5,3.04545455 Z"></path>
            </g>
        </g>
    </g>
</svg>