<?xml version="1.0" encoding="UTF-8"?>
<svg width="78px" height="15px" viewBox="0 0 78 15" version="1.1" xmlns="http://www.w3.org/2000/svg" xmlns:xlink="http://www.w3.org/1999/xlink">
    <title>Line 5</title>
    <g id="Approved-Screens" stroke="none" stroke-width="1" fill="none" fill-rule="evenodd">
        <g id="Affiliate-Admin-Dashboard-|-EVENTS-|-Congrats-on-publishing-screen" transform="translate(-540.000000, -370.000000)" fill="#26A1FF" fill-rule="nonzero">
            <path id="Line-5" d="M604.112893,370.5 C604.242541,370.5 604.370408,370.530185 604.486368,370.588165 L604.486368,370.588165 L616.815954,376.752959 C617.228483,376.959223 617.395694,377.460854 617.189429,377.873383 C617.108621,378.035001 616.977572,378.16605 616.815954,378.246858 L616.815954,378.246858 L604.486368,384.411652 C604.073839,384.617916 603.572208,384.450706 603.365943,384.038177 C603.307963,383.922216 603.277778,383.794349 603.277778,383.664702 L603.277778,383.664702 L603.277,378.5 L541.5,378.5 C540.947715,378.5 540.5,378.052285 540.5,377.5 C540.5,376.987164 540.88604,376.564493 541.383379,376.506728 L541.5,376.5 L603.277,376.5 L603.277778,371.335115 C603.277778,370.909372 603.596362,370.558039 604.008138,370.506507 Z"></path>
        </g>
    </g>
</svg>