<?xml version="1.0" encoding="UTF-8"?>
<svg width="8px" height="6px" viewBox="0 0 8 6" version="1.1" xmlns="http://www.w3.org/2000/svg" xmlns:xlink="http://www.w3.org/1999/xlink">
    <title>np_u-turn_1219517_FB6767</title>
    <g id="Approved-Screens" stroke="none" stroke-width="1" fill="none" fill-rule="evenodd">
        <g id="Events-|-Fixtures--|-Single-Event-Marketing-(open)" transform="translate(-875.000000, -97.000000)" fill="#FFFFFF" fill-rule="nonzero">
            <g id="Rectangle" transform="translate(93.000000, 21.000000)">
                <g id="Top-bar" transform="translate(16.902141, 51.406340)">
                    <g id="Back-to-all-Events" transform="translate(750.097859, 17.593660)">
                        <g id="np_u-turn_1219517_FB6767" transform="translate(15.000000, 7.000000)">
                            <path d="M5.87060246,1.69339044 L1.42944016,1.69339044 L2.26432316,0.749928829 C2.42740264,0.56370125 2.41048181,0.27863655 2.22659104,0.113480731 C2.04270028,-0.0516750875 1.76122385,-0.034538822 1.59814437,0.151693254 L0.111354262,1.84406814 C0.104848625,1.85197421 0.0992099033,1.86075913 0.0922705873,1.8699828 C0.0857649507,1.87876728 0.0757894339,1.89150546 0.0688501179,1.90248549 L0.0692837973,1.90248549 C0.0610433317,1.91610117 0.0536708913,1.92971798 0.0471645885,1.94421184 C0.0471645885,1.95563152 0.0358884774,1.9657345 0.0315516824,1.97803235 C0.0250460458,1.9942837 0.0202755713,2.01141434 0.0159387764,2.02854386 C0.0159387764,2.03864616 0.00943313976,2.04874868 0.00813199023,2.05885054 C-0.00271066341,2.11507188 -0.00271066341,2.17304733 0.00813199023,2.2297072 C0.00813199023,2.2398095 0.00813199023,2.24991203 0.0159387764,2.26001388 C0.0202759044,2.27714339 0.025046601,2.29427404 0.0315516824,2.31052538 C0.0315516824,2.32194506 0.0415269771,2.33292621 0.0471645885,2.34434589 C0.0536702251,2.35884088 0.0610432207,2.37245656 0.0692837973,2.38607225 C0.0757894339,2.39749193 0.0848967034,2.4075949 0.0927042667,2.41857493 C0.100511053,2.42999461 0.103980378,2.43658375 0.111787941,2.4444896 L1.60157584,4.13776402 C1.76465532,4.3239916 2.04569207,4.34112787 2.22957839,4.17597654 C2.41390883,4.01082073 2.43081856,3.7262058 2.26774463,3.53952845 L1.4350267,2.59254738 L5.876189,2.59254738 L5.876189,2.59298658 C6.55970608,2.59298658 7.11394093,3.15432296 7.11394093,3.84649766 C7.11394093,4.5391671 6.55966167,5.1004585 5.876189,5.1004585 L0.777512619,5.1004585 C0.532038475,5.1004585 0.333396389,5.30162971 0.333396389,5.55022925 C0.333396389,5.79839026 0.532038475,6 0.777512619,6 L5.8735243,6 C6.63338497,6 7.33511082,5.58932557 7.71505225,4.9230127 C8.09498258,4.25713835 8.09498258,3.43618305 7.71505225,2.76996013 C7.33512192,2.10364725 6.63338497,1.69341135 5.8735243,1.69341135 L5.87060246,1.69339044 Z" id="Path"></path>
                        </g>
                    </g>
                </g>
            </g>
        </g>
    </g>
</svg>