<?xml version="1.0" encoding="UTF-8"?>
<svg width="12px" height="14px" viewBox="0 0 12 14" version="1.1" xmlns="http://www.w3.org/2000/svg" xmlns:xlink="http://www.w3.org/1999/xlink">
    <title>np_alert_1272511_1D1D1D</title>
    <g id="APPROVED-SCREENS" stroke="none" stroke-width="1" fill="none" fill-rule="evenodd" opacity="0.496434411">
        <g id="Affiliate-Admin-Dashboard-|-EVENTS-|-Create-New-1" transform="translate(-896.000000, -15.000000)" fill="#FFFFFF" fill-rule="nonzero">
            <g id="Top-Bar" transform="translate(144.000000, 8.000000)">
                <g id="np_alert_1272511_1D1D1D" transform="translate(752.000000, 7.000000)">
                    <path d="M8.07426923,11.4630408 C8.01387231,12.5493512 7.10882308,13.4117647 6.00004615,13.4117647 C4.89126923,13.4117647 3.98621538,12.5493512 3.92582308,11.4630408 L0.693207692,11.4630408 C0.310084615,11.4630408 0,11.155876 0,10.77615 L0,10.0874709 C0,9.32804173 0.620192308,8.71190107 1.38551538,8.71190107 C1.384614,8.71190107 1.384614,5.96076139 1.384614,5.96076139 C1.384614,4.02278981 2.60427554,2.32398398 4.384614,1.66393972 L4.384614,1.60393736 C4.384614,0.718230868 5.10846785,0 6,0 C6.89242938,0 7.61538323,0.718230868 7.61538323,1.60393736 L7.61538323,1.66393972 C9.39572169,2.32396106 10.6153832,4.02281274 10.6153832,5.96076139 L10.6153832,8.71190107 C11.3780063,8.71190107 12,9.32804173 12,10.0874709 L12,10.77615 C12,11.1540648 11.6889909,11.4630408 11.3067909,11.4630408 L8.07426923,11.4630408 Z M7.14849231,11.4630408 L4.85162308,11.4630408 C4.91021769,12.0424537 5.4015,12.4947181 6.00006923,12.4947181 C6.59863846,12.4947181 7.08992308,12.0424537 7.14851538,11.4630408 L7.14849231,11.4630408 Z M11.0768769,10.5459942 L11.0768769,10.0874709 C11.0768769,9.83491629 10.8686446,9.62894764 10.6144385,9.62894764 C10.1051308,9.62894764 9.69226154,9.21966976 9.69226154,8.71190107 L9.69226154,5.96076139 C9.69226154,4.31562571 8.59250769,2.88452869 7.02572308,2.43586366 L6.69219231,2.34003918 L6.69219231,1.60390297 C6.69219231,1.22419985 6.38208462,0.917012173 5.99988462,0.917012173 C5.61858462,0.917012173 5.30757692,1.22509397 5.30757692,1.60390297 L5.30757692,2.34003918 L4.97404615,2.43586366 C3.40733077,2.88452869 2.30750769,4.31473159 2.30750769,5.96076139 L2.30750769,8.71190107 C2.30750769,9.21788152 1.89373846,9.62894764 1.38533077,9.62894764 C1.13021538,9.62894764 0.922892308,9.83492546 0.922892308,10.0874709 L0.922892308,10.5459942 L11.0768769,10.5459942 Z" id="Shape"></path>
                </g>
            </g>
        </g>
    </g>
</svg>