<?xml version="1.0" encoding="UTF-8"?>
<svg width="8px" height="9px" viewBox="0 0 8 9" version="1.1" xmlns="http://www.w3.org/2000/svg" xmlns:xlink="http://www.w3.org/1999/xlink">
    <title>calculator</title>
    <g id="Symbols" stroke="none" stroke-width="1" fill="none" fill-rule="evenodd">
        <g id="Affiliates-Nav" transform="translate(-33.000000, -409.000000)" fill="#FFFFFF" fill-rule="nonzero">
            <g id="Shape" transform="translate(33.000000, 409.000000)">
                <path d="M6.90909091,0 L1.09090909,0 C0.488634182,0 0,0.465142154 0,1.03846154 L0,7.96153846 C0,8.53485785 0.488634182,9 1.09090909,9 L6.90909091,9 C7.51136582,9 8,8.53485785 8,7.96153846 L8,1.03846154 C8,0.465142154 7.51136582,0 6.90909091,0 Z M7.27272727,7.96153846 C7.27272727,8.05326868 7.23454604,8.14153846 7.16636393,8.20643815 C7.09818182,8.27134228 7.00545629,8.30768788 6.90909556,8.30768788 L1.09091375,8.30768788 C0.890000291,8.30768788 0.727277382,8.15278818 0.727277382,7.96153403 L0.727277382,1.03845711 C0.727277382,0.847202954 0.890000291,0.692303262 1.09091375,0.692303262 L6.90909556,0.692303262 C7.00545862,0.692303262 7.09818647,0.728648862 7.16636393,0.793552985 C7.23454604,0.858457108 7.27272727,0.946724677 7.27272727,1.03845268 L7.27272727,7.96153846 Z M6.18181818,1.38461538 L1.81818182,1.38461538 C1.61726836,1.38461538 1.45454545,1.53951508 1.45454545,1.73076923 L1.45454545,3.11538462 C1.45454545,3.20711483 1.49272669,3.29538462 1.5609088,3.36028431 C1.62909091,3.42518843 1.72181644,3.46153403 1.81817716,3.46153403 L6.18181353,3.46153403 C6.27817658,3.46153403 6.37090444,3.42518843 6.43908189,3.36028431 C6.507264,3.29538018 6.54544524,3.20711262 6.54544524,3.11538462 L6.54544524,1.73076923 C6.54544524,1.63903902 6.507264,1.55076923 6.43908189,1.48586954 C6.37089978,1.42096542 6.27817425,1.38461538 6.18181353,1.38461538 L6.18181818,1.38461538 Z M5.81818182,2.76923077 L2.18181818,2.76923077 L2.18181818,2.07692308 L5.81818182,2.07692308 L5.81818182,2.76923077 Z M2.90909091,4.5 C2.90909091,4.59173022 2.87090967,4.68 2.80272756,4.74489969 C2.73454545,4.80980382 2.64181993,4.84614942 2.5454592,4.84614942 L1.81818647,4.84614942 C1.61727302,4.84614942 1.45455011,4.69124972 1.45455011,4.49999557 C1.45455011,4.30874142 1.61727302,4.15384172 1.81818647,4.15384172 L2.5454592,4.15384172 C2.64182225,4.15384172 2.73455011,4.19018732 2.80272756,4.25509145 C2.87090967,4.31999557 2.90909091,4.40826314 2.90909091,4.49999114 L2.90909091,4.5 Z M4.72727273,4.5 C4.72727273,4.59173022 4.68909149,4.68 4.62090938,4.74489969 C4.55272727,4.80980382 4.46000175,4.84614942 4.36364102,4.84614942 L3.63636829,4.84614942 C3.43545484,4.84614942 3.27273193,4.69124972 3.27273193,4.49999557 C3.27273193,4.30874142 3.43545484,4.15384172 3.63636829,4.15384172 L4.36364102,4.15384172 C4.46000407,4.15384172 4.55273193,4.19018732 4.62090938,4.25509145 C4.68909149,4.31999557 4.72727273,4.40826314 4.72727273,4.49999114 L4.72727273,4.5 Z M6.54545455,4.5 C6.54545455,4.59173022 6.50727331,4.68 6.4390912,4.74489969 C6.37090909,4.80980382 6.27818356,4.84614942 6.18182284,4.84614942 L5.45455011,4.84614942 C5.25363665,4.84614942 5.09091375,4.69124972 5.09091375,4.49999557 C5.09091375,4.30874142 5.25363665,4.15384172 5.45455011,4.15384172 L6.18182284,4.15384172 C6.27818589,4.15384172 6.37091375,4.19018732 6.4390912,4.25509145 C6.50727331,4.31999557 6.54545455,4.40826314 6.54545455,4.49999114 L6.54545455,4.5 Z M2.90909091,5.88461538 C2.90909091,5.9763456 2.87090967,6.06461538 2.80272756,6.12951508 C2.73454545,6.1944192 2.64181993,6.2307648 2.5454592,6.2307648 L1.81818647,6.2307648 C1.61727302,6.2307648 1.45455011,6.07586511 1.45455011,5.88461095 C1.45455011,5.6933568 1.61727302,5.53845711 1.81818647,5.53845711 L2.5454592,5.53845711 C2.64182225,5.53845711 2.73455011,5.57480271 2.80272756,5.63970683 C2.87090967,5.70461095 2.90909091,5.79287852 2.90909091,5.88460652 L2.90909091,5.88461538 Z M4.72727273,5.88461538 C4.72727273,5.9763456 4.68909149,6.06461538 4.62090938,6.12951508 C4.55272727,6.1944192 4.46000175,6.2307648 4.36364102,6.2307648 L3.63636829,6.2307648 C3.43545484,6.2307648 3.27273193,6.07586511 3.27273193,5.88461095 C3.27273193,5.6933568 3.43545484,5.53845711 3.63636829,5.53845711 L4.36364102,5.53845711 C4.46000407,5.53845711 4.55273193,5.57480271 4.62090938,5.63970683 C4.68909149,5.70461095 4.72727273,5.79287852 4.72727273,5.88460652 L4.72727273,5.88461538 Z M6.54545455,5.88461538 C6.54545455,5.9763456 6.50727331,6.06461538 6.4390912,6.12951508 C6.37090909,6.1944192 6.27818356,6.2307648 6.18182284,6.2307648 L5.45455011,6.2307648 C5.25363665,6.2307648 5.09091375,6.07586511 5.09091375,5.88461095 C5.09091375,5.6933568 5.25363665,5.53845711 5.45455011,5.53845711 L6.18182284,5.53845711 C6.27818589,5.53845711 6.37091375,5.57480271 6.4390912,5.63970683 C6.50727331,5.70461095 6.54545455,5.79287852 6.54545455,5.88460652 L6.54545455,5.88461538 Z M2.90909091,7.26923077 C2.90909091,7.36096098 2.87090967,7.44923077 2.80272756,7.51413046 C2.73454545,7.57903458 2.64181993,7.61538018 2.5454592,7.61538018 L1.81818647,7.61538018 C1.61727302,7.61538018 1.45455011,7.46048049 1.45455011,7.26922634 C1.45455011,7.07797218 1.61727302,6.92307249 1.81818647,6.92307249 L2.5454592,6.92307249 C2.64182225,6.92307249 2.73455011,6.95941809 2.80272756,7.02432222 C2.87090967,7.08922634 2.90909091,7.17749391 2.90909091,7.26922191 L2.90909091,7.26923077 Z M4.72727273,7.26923077 C4.72727273,7.36096098 4.68909149,7.44923077 4.62090938,7.51413046 C4.55272727,7.57903458 4.46000175,7.61538018 4.36364102,7.61538018 L3.63636829,7.61538018 C3.43545484,7.61538018 3.27273193,7.46048049 3.27273193,7.26922634 C3.27273193,7.07797218 3.43545484,6.92307249 3.63636829,6.92307249 L4.36364102,6.92307249 C4.46000407,6.92307249 4.55273193,6.95941809 4.62090938,7.02432222 C4.68909149,7.08922634 4.72727273,7.17749391 4.72727273,7.26922191 L4.72727273,7.26923077 Z M6.54545455,7.26923077 C6.54545455,7.36096098 6.50727331,7.44923077 6.4390912,7.51413046 C6.37090909,7.57903458 6.27818356,7.61538018 6.18182284,7.61538018 L5.45455011,7.61538018 C5.25363665,7.61538018 5.09091375,7.46048049 5.09091375,7.26922634 C5.09091375,7.07797218 5.25363665,6.92307249 5.45455011,6.92307249 L6.18182284,6.92307249 C6.27818589,6.92307249 6.37091375,6.95941809 6.4390912,7.02432222 C6.50727331,7.08922634 6.54545455,7.17749391 6.54545455,7.26922191 L6.54545455,7.26923077 Z"></path>
            </g>
        </g>
    </g>
</svg>