<?xml version="1.0" encoding="UTF-8"?>
<svg width="10px" height="10px" viewBox="0 0 10 10" version="1.1" xmlns="http://www.w3.org/2000/svg" xmlns:xlink="http://www.w3.org/1999/xlink">
    <title>np_calendar_857968_022F59</title>
    <g id="Symbols" stroke="none" stroke-width="1" fill="none" fill-rule="evenodd">
        <g id="Affiliates-Nav" transform="translate(-32.000000, -159.000000)" fill="#FFFFFF" fill-rule="nonzero">
            <g id="np_calendar_857968_022F59" transform="translate(32.000000, 159.000000)">
                <path d="M8.61112538,0.810315654 L7.77786601,0.810315654 L7.77786601,0 L7.22220156,0 L7.22220156,0.810789594 L2.77783516,0.810314925 L2.77783516,0 L2.22217071,0 L2.22217071,0.810788864 L1.38891133,0.810314196 C0.622980624,0.810314196 0,1.41650705 0,2.16177075 L0,8.64854345 C0,9.3938193 0.622993113,10 1.38891133,10 L8.61060084,10 C9.37653155,10 9.99951218,9.39380715 9.99951218,8.64854345 L10,3.5132273 L10,2.16177075 C10,1.41696884 9.37700689,0.810314196 8.61108867,0.810314196 L8.61112538,0.810315654 Z M9.44438476,8.64854491 C9.44438476,9.09571285 9.07068631,9.45933377 8.61112538,9.45933377 L1.38893631,9.45933377 C0.929375389,9.45933377 0.555676936,9.09571285 0.555676936,8.64854491 L0.556164884,3.51322876 L9.44489769,3.51322876 L9.44438476,8.64854491 Z M9.44438476,2.97305931 L0.555651957,2.97305931 L0.555651957,2.16179651 C0.555651957,1.71462857 0.92935041,1.35100765 1.38891133,1.35100765 L2.22217071,1.35100765 L2.22217071,1.89168748 L2.77783516,1.89216215 L2.77783516,1.35148231 L7.22220156,1.35148231 L7.22220156,1.89216215 L7.77786601,1.89216215 L7.77835383,1.35148231 L8.61161321,1.35148231 C9.07117413,1.35148231 9.44487258,1.71510324 9.44487258,2.16227118 L9.44438476,2.97305931 Z" id="Shape"></path>
                <path d="M4.44439138,6.21626338 L5.5552332,6.21626338 C5.86160298,6.21626338 6.11089764,5.97369145 6.11089764,5.67558354 L6.11089764,4.5946978 C6.11089764,4.29658989 5.86160298,4.05401797 5.5552332,4.05401797 L4.44439138,4.05401797 C4.13802159,4.05401797 3.88872693,4.29658989 3.88872693,4.5946978 L3.88872693,5.67558354 C3.88921488,5.97369145 4.13850867,6.21626338 4.44439138,6.21626338 Z M4.44439138,4.59466135 L5.5552332,4.59466135 L5.55572115,5.67554708 L4.44439138,5.67554708 L4.44439138,4.59466135 Z" id="Shape"></path>
                <path d="M7.22221405,6.21626338 L8.33305587,6.21626338 C8.63942565,6.21626338 8.88872031,5.97369145 8.88872031,5.67558354 L8.88872031,4.5946978 C8.88872031,4.29658989 8.63942565,4.05401797 8.33305587,4.05401797 L7.22221405,4.0535433 C6.91584426,4.0535433 6.6665496,4.29611523 6.6665496,4.59422314 L6.6665496,5.67510887 C6.66703743,5.97369072 6.91584426,6.21626338 7.22221405,6.21626338 L7.22221405,6.21626338 Z M7.22221405,4.59466135 L8.33305587,4.59466135 L8.33354369,5.67554708 L7.22221405,5.67554708 L7.22221405,4.59466135 Z" id="Shape"></path>
                <path d="M1.66694338,8.91917648 L2.7777852,8.91917648 C3.08415499,8.91917648 3.33344965,8.67660455 3.33344965,8.37849664 L3.33344965,7.29761091 C3.33344965,6.999503 3.08415499,6.75693107 2.7777852,6.75693107 L1.66694338,6.7564564 C1.3605736,6.7564564 1.11127894,6.99902833 1.11127894,7.29713624 L1.11127894,8.37802197 C1.11127894,8.67660382 1.3605736,8.91917648 1.66694338,8.91917648 L1.66694338,8.91917648 Z M1.66694338,7.29708836 L2.7777852,7.29708836 L2.77827315,8.37797409 L1.66694338,8.37844876 L1.66694338,7.29708836 Z" id="Shape"></path>
                <path d="M4.44439138,8.91917648 L5.5552332,8.91917648 C5.86160298,8.91917648 6.11089764,8.67660455 6.11089764,8.37849664 L6.11089764,7.29761091 C6.11089764,6.999503 5.86160298,6.75693107 5.5552332,6.75693107 L4.44439138,6.75693107 C4.13802159,6.75693107 3.88872693,6.999503 3.88872693,7.29761091 L3.88872693,8.37849664 C3.88921488,8.67660455 4.13850867,8.91917648 4.44439138,8.91917648 L4.44439138,8.91917648 Z M4.44439138,7.29708836 L5.5552332,7.29708836 L5.55572115,8.37797409 L4.44439138,8.37797409 L4.44439138,7.29708836 Z" id="Shape"></path>
                <path d="M7.22221405,8.91917648 L8.33305587,8.91917648 C8.63942565,8.91917648 8.88872031,8.67660455 8.88872031,8.37849664 L8.88872031,7.29761091 C8.88872031,6.999503 8.63942565,6.75693107 8.33305587,6.75693107 L7.22221405,6.7564564 C6.91584426,6.7564564 6.6665496,6.99902833 6.6665496,7.29713624 L6.6665496,8.37802197 C6.66703743,8.67660382 6.91584426,8.91917648 7.22221405,8.91917648 L7.22221405,8.91917648 Z M7.22221405,7.29708836 L8.33305587,7.29708836 L8.33354369,8.37797409 L7.22221405,8.37844876 L7.22221405,7.29708836 Z" id="Shape"></path>
            </g>
        </g>
    </g>
</svg>