<?xml version="1.0" encoding="UTF-8"?>
<svg width="10px" height="11px" viewBox="0 0 10 11" version="1.1" xmlns="http://www.w3.org/2000/svg" xmlns:xlink="http://www.w3.org/1999/xlink">
    <title>np_x_3844574_FFFFFF</title>
    <g id="APPROVED-SCREENS" stroke="none" stroke-width="1" fill="none" fill-rule="evenodd">
        <g id="Affiliate-Admin-Dashboard-|-EVENTS-|-Create-New-1" transform="translate(-1157.000000, -157.000000)" fill="#FFFFFF" fill-rule="nonzero">
            <g id="Incomplete-fields-warning" transform="translate(388.000000, 142.000000)">
                <g id="np_x_3844574_FFFFFF" transform="translate(769.006051, 15.757576)">
                    <path d="M9.44843074,8.85063905 C9.54278703,8.94228189 9.59635694,9.06836617 9.59757943,9.20061162 C9.59818276,9.33223355 9.54704769,9.45954439 9.45451784,9.55242639 C9.36259732,9.64591459 9.23659153,9.6975799 9.1063095,9.6969697 C8.97542904,9.69573407 8.85063881,9.6416098 8.75992449,9.54627625 L4.79878972,5.5441155 L0.837654949,9.54627625 C0.74695154,9.6416098 0.622159743,9.69573454 0.491269937,9.6969697 C0.360997256,9.69757927 0.234991468,9.64591459 0.143061599,9.55242639 C0.0505317474,9.45955384 -0.000603949817,9.33224299 0,9.20061162 C0.00122295957,9.06837561 0.0547924062,8.94229291 0.1491487,8.85063905 L4.11028347,4.84847831 L0.1491487,0.846317568 C-0.0359110036,0.653184734 -0.0328721285,0.346275783 0.154627558,0.156229044 C0.342726136,-0.0332036254 0.646488977,-0.0362897199 0.837642015,0.150693441 L4.79877678,4.15285418 L8.75991155,0.150693441 C8.85061496,0.055359887 8.97540676,0.00123514256 9.10629656,0 C9.23656925,-0.000609586182 9.36257503,0.0510551001 9.4545049,0.144543295 C9.54703475,0.237415846 9.59817045,0.364726692 9.59757943,0.49635807 C9.59634354,0.628594072 9.5427741,0.754676778 9.4484178,0.846330636 L5.48728303,4.84849138 L9.44843074,8.85063905 Z" id="Path"></path>
                </g>
            </g>
        </g>
    </g>
</svg>