<?xml version="1.0" encoding="UTF-8"?>
<svg width="15px" height="13px" viewBox="0 0 15 13" version="1.1" xmlns="http://www.w3.org/2000/svg" xmlns:xlink="http://www.w3.org/1999/xlink">
    <title>np_collapse_2063109_FFFFFF</title>
    <g id="Symbols" stroke="none" stroke-width="1" fill="none" fill-rule="evenodd">
        <g id="Affiliates-Nav" transform="translate(-134.000000, -462.000000)" fill="#FFFFFF" fill-rule="nonzero">
            <g id="np_collapse_2063109_FFFFFF" transform="translate(141.500000, 468.500000) scale(-1, 1) translate(-141.500000, -468.500000) translate(134.000000, 462.000000)">
                <path d="M14.418165,0 C14.739255,0 15,0.252051736 15,0.562436563 L15,12.4375634 C15,12.7479483 14.739255,13 14.418165,13 C14.097075,13 13.83633,12.7479483 13.83633,12.4375634 L13.83633,0.562436563 C13.83633,0.413479106 13.896096,0.277542557 13.994535,0.177290259 C14.1005895,0.0679740742 14.25117,0 14.418165,0 Z" id="Path"></path>
                <path d="M9.902415,5.70760955 L0.587115,5.70760955 C0.2625,5.70760955 0,5.95512281 0,6.26041818 C0,6.56571354 0.2625,6.81322681 0.587115,6.81322681 L9.902415,6.81322681 L7.004415,9.56762753 C6.78645,9.7856915 6.7923,10.1289331 7.01906355,10.3396311 C7.24523355,10.5508946 7.60793355,10.5537366 7.83819855,10.3458616 L11.7264986,6.64896746 C11.9532535,6.43316547 11.9532535,6.0859654 11.7264986,5.87072891 L7.83819855,2.17325479 C7.77316005,2.10868529 7.69405755,2.06054128 7.60674855,2.03108764 C7.54756905,2.01183032 7.48487355,2.0010685 7.42158855,1.99993606 C7.26279855,1.99710394 7.10987355,2.05544312 6.99795855,2.15966694 C6.88545855,2.2644519 6.82334355,2.4083112 6.82452855,2.55728315 C6.82452855,2.62978265 6.84034905,2.70001725 6.86906055,2.76571919 C6.90011505,2.83481991 6.94581855,2.89825697 7.00441155,2.95149189 L9.902415,5.70760955 Z" id="Path"></path>
            </g>
        </g>
    </g>
</svg>