<?xml version="1.0" encoding="UTF-8"?>
<svg width="8px" height="8px" viewBox="0 0 8 8" version="1.1" xmlns="http://www.w3.org/2000/svg" xmlns:xlink="http://www.w3.org/1999/xlink">
    <title>np_copy_4495971_2395FF</title>
    <g id="Approved-Screens" stroke="none" stroke-width="1" fill="none" fill-rule="evenodd">
        <g id="Affiliate-Admin-Dashboard-|-EVENTS-|-Congrats-on-publishing-screen" transform="translate(-795.000000, -282.000000)" fill="#2395FF" fill-rule="nonzero">
            <g id="np_copy_4495971_2395FF" transform="translate(795.000000, 282.000000)">
                <path d="M0.285802096,1.39239253 L1.27072139,1.39239253 L1.27072139,0 L8,0 L8,6.60760747 L6.72927861,6.60760747 L6.72927861,8 L0,8 L0,1.39239253 L0.285802096,1.39239253 Z M1.82545385,4.41229077 L3.07930351,4.41229077 L3.07930351,3.16602235 L3.65059401,3.16602235 L3.65059401,4.41229077 L4.90444367,4.41229077 L4.90444367,4.98012704 L3.65059401,4.98012704 L3.65059401,6.22639546 L3.07930351,6.22639546 L3.07930351,4.98012704 L1.82545385,4.98012704 L1.82545385,4.41229077 Z M1.84234424,1.39239253 L6.72963639,1.39239253 L6.72963639,6.03971222 L7.42909272,6.03971222 L7.42909272,0.567389633 L1.84234424,0.567389633 L1.84234424,1.39239253 Z M6.15828654,1.96022879 L0.571538062,1.96022879 L0.571538062,7.43255138 L6.15828654,7.43255138 L6.15828654,1.96022879 Z" id="Shape"></path>
            </g>
        </g>
    </g>
</svg>