<?xml version="1.0" encoding="UTF-8"?>
<svg width="10px" height="10px" viewBox="0 0 10 10" version="1.1" xmlns="http://www.w3.org/2000/svg" xmlns:xlink="http://www.w3.org/1999/xlink">
    <title>Dashboard icon</title>
    <g id="Symbols" stroke="none" stroke-width="1" fill="none" fill-rule="evenodd">
        <g id="Affiliates-Nav" transform="translate(-32.000000, -108.000000)" fill="#FFFFFF" fill-rule="nonzero">
            <g id="Shape" transform="translate(32.000000, 108.000000)">
                <path d="M4.375,6.56250064 C4.53828,6.56211096 4.67461,6.68711143 4.6875,6.85000127 L4.6875,9.71249846 C4.674609,9.8753883 4.53828,10.0003882 4.375,9.99999909 L0.3125,9.99999909 C0.14922,10.0003888 0.01289,9.8753883 0,9.71249846 L0,6.85000127 C0.012891,6.68711143 0.14922,6.56211156 0.3125,6.56250064 L4.375,6.56250064 Z M9.6875,4.06249601 C9.770312,4.06249601 9.85,4.09531598 9.90859,4.15390992 C9.967184,4.21250386 9.999996,4.29218978 9.999996,4.3749997 L9.999996,9.68749449 C9.999996,9.7703064 9.967184,9.84999433 9.90859,9.90858427 C9.849996,9.96717821 9.77031,9.99999018 9.6875,9.99999018 L5.625,9.99999018 C5.45234,9.99999018 5.3125,9.86015032 5.3125,9.68749049 L5.3125,4.3749957 C5.3125,4.20233587 5.45234,4.06249601 5.625,4.06249601 L9.6875,4.06249601 Z M4.0625,7.13440099 L0.625,7.13440099 L0.625,9.42819874 L4.0625,9.42819874 L4.0625,7.13440099 Z M9.375,4.6875034 L5.9375,4.6875034 L5.9375,9.37499879 L9.375,9.37499879 L9.375,4.6875034 Z M4.375,0 C4.457812,0 4.5375,0.0328199678 4.59609,0.0914139102 C4.654684,0.150007853 4.687496,0.229693774 4.687496,0.312503693 L4.687496,5.62499848 C4.687496,5.70781039 4.654684,5.78749832 4.59609,5.84608826 C4.537496,5.9046822 4.45781,5.93749417 4.375,5.93749417 L0.3125,5.93749417 C0.13984,5.93749417 0,5.79765431 0,5.62499448 L0,0.312499693 C0,0.139839863 0.13984,0 0.3125,0 L4.375,0 Z M4.0625,0.625007386 L0.625,0.625007386 L0.625,5.31250278 L4.0625,5.31250278 L4.0625,0.625007386 Z M9.6875,7.08701471e-06 C9.85078,-0.000382619624 9.98711,0.124617878 10,0.287507718 L10,3.15000491 C9.987109,3.31289475 9.85078,3.43789462 9.6875,3.43750554 L5.625,3.43750554 C5.46172,3.43789522 5.32539,3.31289475 5.3125,3.15000491 L5.3125,0.287507718 C5.325391,0.124617878 5.46172,-0.000381999625 5.625,7.08701471e-06 L9.6875,7.08701471e-06 Z M9.375,0.571887438 L5.9375,0.571887438 L5.9375,2.86568519 L9.375,2.86568519 L9.375,0.571887438 Z"></path>
            </g>
        </g>
    </g>
</svg>