<?xml version="1.0" encoding="UTF-8"?>
<svg width="20px" height="20px" viewBox="0 0 20 20" version="1.1" xmlns="http://www.w3.org/2000/svg" xmlns:xlink="http://www.w3.org/1999/xlink">
    <title>np_division_119645_022F59</title>
    <g id="APPROVED-SCREENS" stroke="none" stroke-width="1" fill="none" fill-rule="evenodd" fill-opacity="0.496694712">
        <g id="Affiliate-Admin-Dashboard-|-EVENTS-|-Create-New-2" transform="translate(-331.000000, -167.000000)" fill="#022F59" fill-rule="nonzero">
            <g id="Accordion" transform="translate(313.000000, 102.000000)">
                <g id="np_division_119645_022F59" transform="translate(18.000000, 65.000000)">
                    <path d="M0,1 L0,19 C6.76353751e-17,19.5522847 0.44771525,20 1,20 L19,20 C19.5522847,20.0000934 20,19.5523782 20,19.0000934 C20,19.0000623 20,19.0000311 19.9999066,19 L19.9982246,0.999999996 C19.9980795,0.447751748 19.5503794,9.34471064e-05 18.9981311,0 L1,0 C0.44771525,1.01453063e-16 -6.76353751e-17,0.44771525 0,1 Z M17.9459582,18.9459582 L14.2090381,18.9459582 C13.7863522,18.9459582 13.4436975,18.6033036 13.4436975,18.1806177 L13.4436975,17.7021602 C13.4436975,17.5437191 13.3152556,17.4152771 13.1568144,17.4152771 C12.9983733,17.4152771 12.8699313,17.5437191 12.8699313,17.7021602 L12.8699313,18.1806177 C12.8699313,18.6033036 12.5272767,18.9459582 12.1045908,18.9459582 L7.89378245,18.9459582 C7.47109654,18.9459582 7.1284419,18.6033036 7.1284419,18.1806177 L7.1284419,17.7021602 C7.1284419,17.5437191 6.99999997,17.4152771 6.84155881,17.4152771 C6.68311766,17.4152771 6.55467573,17.5437191 6.55467573,17.7021602 L6.55467573,18.1806177 C6.55467573,18.6033036 6.21202109,18.9459582 5.78933518,18.9459582 L2.05241501,18.9459582 C1.50013026,18.9459582 1.05241501,18.498243 1.05241501,17.9459582 L1.05241501,2.0526064 C1.05241501,1.50032165 1.50013026,1.0526064 2.05241501,1.0526064 L5.78933518,1.0526064 C6.21202109,1.0526064 6.55467573,1.39526103 6.55467573,1.81794694 L6.55467573,2.29640439 C6.55467573,2.45484555 6.68311766,2.58328748 6.84155881,2.58328748 C6.99999997,2.58328748 7.1284419,2.45484555 7.1284419,2.29640439 L7.1284419,1.81794694 C7.1284419,1.39526103 7.47109654,1.0526064 7.89378245,1.0526064 L12.1045908,1.0526064 C12.5272767,1.0526064 12.8699313,1.39526103 12.8699313,1.81794694 L12.8699313,2.29640439 C12.8699313,2.45484555 12.9983733,2.58328748 13.1568144,2.58328748 C13.3152556,2.58328748 13.4436975,2.45484555 13.4436975,2.29640439 L13.4436975,1.81794694 C13.4436975,1.39526103 13.7863522,1.0526064 14.2090381,1.0526064 L17.9459582,1.0526064 C18.498243,1.0526064 18.9459582,1.50032165 18.9459582,2.0526064 L18.9459582,17.9459582 C18.9459582,18.498243 18.498243,18.9459582 17.9459582,18.9459582 Z" id="Shape"></path>
                    <polygon id="Path" points="12.8695486 14.0656922 13.4433148 14.0656922 13.4433148 15.979522 12.8695486 15.979522"></polygon>
                    <polygon id="Path" points="12.8695486 4.01808569 13.4433148 4.01808569 13.4433148 5.9319155 12.8695486 5.9319155"></polygon>
                    <polygon id="Path" points="12.8695486 7.36728786 13.4433148 7.36728786 13.4433148 9.28111768 12.8695486 9.28111768"></polygon>
                    <polygon id="Path" points="12.8695486 10.71649 13.4433148 10.71649 13.4433148 12.6303198 12.8695486 12.6303198"></polygon>
                    <polygon id="Path" points="6.55438865 10.71649 7.12815483 10.71649 7.12815483 12.6303198 6.55438865 12.6303198"></polygon>
                    <polygon id="Path" points="6.55438865 14.0656922 7.12815483 14.0656922 7.12815483 15.979522 6.55438865 15.979522"></polygon>
                    <polygon id="Path" points="6.55438865 4.01808569 7.12815483 4.01808569 7.12815483 5.9319155 6.55438865 5.9319155"></polygon>
                    <polygon id="Path" points="6.55438865 7.36728786 7.12815483 7.36728786 7.12815483 9.28111768 6.55438865 9.28111768"></polygon>
                </g>
            </g>
        </g>
    </g>
</svg>