<?xml version="1.0" encoding="UTF-8"?>
<svg width="16px" height="14px" viewBox="0 0 16 14" version="1.1" xmlns="http://www.w3.org/2000/svg" xmlns:xlink="http://www.w3.org/1999/xlink">
    <title>np_hazard_386033_FA4F4F</title>
    <g id="APPROVED-SCREENS" stroke="none" stroke-width="1" fill="none" fill-rule="evenodd">
        <g id="Affiliate-Admin-Dashboard-|-EVENTS-|-Create-New-1" transform="translate(-334.000000, -127.000000)" fill="#FFFFFF" fill-rule="nonzero">
            <g id="Incomplete-fields-warning" transform="translate(323.000000, 117.000000)">
                <g id="np_hazard_386033_FA4F4F" transform="translate(11.000000, 10.000000)">
                    <path d="M7.99990239,0.827449395 C8.57523029,0.827449395 9.13284936,1.22436088 9.63803913,1.98588017 L14.65804,10.7399761 L14.6757419,10.772945 L14.7104658,10.8059139 C15.0066356,11.2196392 15.1285058,11.5176538 15.1285058,11.848634 C15.1285058,12.5933395 14.4660281,13.1557411 13.5775188,13.1557411 L2.42234869,13.1563877 C1.53314218,13.1563877 0.871361715,12.5939861 0.871361715,11.8492806 C0.871361715,11.5183004 0.993235435,11.2202858 1.28940172,10.8065605 L1.32412567,10.7735916 L1.34182753,10.7406226 L6.3618284,1.98652674 C6.86701817,1.22500745 7.42465467,0.827449395 7.99996514,0.827449395 M7.99996514,0 C7.093747,0 6.27467864,0.529435962 5.61223583,1.57215605 L0.575327901,10.3431319 C0.192008366,10.8725679 0,11.3360726 0,11.8655086 C0,13.0898706 1.0982265,14 2.42241492,14 L13.5775851,14 C14.9195521,14 16,13.1066182 16,11.8655086 C16,11.3360726 15.79098,10.8725679 15.4246721,10.3431319 L10.3877642,1.57215605 C9.7252865,0.529435962 8.90621814,0 8.00003486,0 L7.99996514,0 Z" id="Shape"></path>
                    <path d="M7.19777594,4.1541316 C7.18007408,3.93886207 7.26722384,3.74040633 7.42450477,3.57491621 C7.73838337,3.27690162 8.26128197,3.27690162 8.57516057,3.57491621 C8.74946011,3.74040633 8.83660987,3.9718277 8.80188941,4.20391103 L8.80188941,4.25368714 L8.27899081,8.90429024 C8.26128895,9.05232611 8.13941523,9.15187999 7.99983267,9.15187999 C7.87795895,9.15187999 7.7560922,9.01935882 7.73838337,8.90364483 L7.1807643,4.25304173 C7.1807643,4.22007279 7.1807643,4.18710385 7.19778587,4.15413491 L7.19777594,4.1541316 Z" id="Path"></path>
                    <path d="M8.8189359,10.5415534 C8.8189359,11.5790937 7.18079916,11.5790937 7.18079916,10.5415534 C7.18079916,9.50465857 8.8189359,9.50465857 8.8189359,10.5415534" id="Path"></path>
                </g>
            </g>
        </g>
    </g>
</svg>