<?xml version="1.0" encoding="UTF-8"?>
<svg width="10px" height="10px" viewBox="0 0 10 10" version="1.1" xmlns="http://www.w3.org/2000/svg" xmlns:xlink="http://www.w3.org/1999/xlink">
    <title>Affiliate Fee Icon</title>
    <g id="Symbols" stroke="none" stroke-width="1" fill="none" fill-rule="evenodd">
        <g id="Affiliates-Nav" transform="translate(-33.000000, -359.000000)" fill="#FFFFFF" fill-rule="nonzero">
            <g id="Group" transform="translate(33.000000, 359.000000)">
                <path d="M9.51220096,0.487792034 C9.20063959,0.174464461 8.77613089,-0.00131262293 8.33446635,7.38109657e-06 L1.6655118,7.38109657e-06 C1.22386976,7.38109657e-06 0.800249797,0.175791929 0.487777197,0.487792034 C0.175777087,0.800230878 0,1.22386209 0,1.66552662 L0,8.33448105 C0,8.77612308 0.175777087,9.19974304 0.487777197,9.51221563 C0.800216047,9.82421574 1.22384726,9.99999282 1.6655118,9.99999282 L8.33446635,9.99999282 C8.77610839,9.99999282 9.19972836,9.82421574 9.51220096,9.51221563 C9.82420107,9.19977679 9.99998552,8.77614558 9.99998552,8.33448105 L9.99998552,1.66552662 C10.0012965,1.22388459 9.82551729,0.799387148 9.51220096,0.487792034 Z M0.959366028,0.959313358 C1.1461341,0.770790326 1.40056933,0.665324076 1.66554555,0.665761452 L8.3345001,0.665761452 C8.59948758,0.665761452 8.8539228,0.771229066 9.04156836,0.958435879 C9.22877517,1.14608143 9.33424142,1.40051665 9.33424142,1.66550412 L9.33424142,2.66567291 L0.665757864,2.66567291 L0.665757864,1.66550412 C0.665319817,1.40051665 0.770785619,1.14608143 0.959309779,0.959324608 L0.959366028,0.959313358 Z M9.04072463,9.04067181 C8.85395655,9.22919484 8.59952132,9.33466109 8.3345451,9.33422371 L1.66559055,9.33422371 C1.11365612,9.33422371 0.665860479,8.88642672 0.665860479,8.3344923 L0.665860479,3.33454831 L9.33434404,3.33454831 L9.33434404,8.3344923 C9.33478209,8.59947977 9.22931628,8.85391499 9.04079212,9.04067181 L9.04072463,9.04067181 Z" id="Shape"></path>
                <polygon id="Path" points="1.6655118 1.33460446 2.33127104 1.33460446 2.33127104 2.00036368 1.6655118 2.00036368"></polygon>
                <polygon id="Path" points="3.00018019 1.33460446 3.66593942 1.33460446 3.66593942 2.00036368 3.00018019 2.00036368"></polygon>
                <path d="M5.2501269,6.00020638 L4.7500425,6.00020638 C4.5197717,6.00020638 4.33301487,5.8134383 4.33301487,5.58274002 C4.33301487,5.35246923 4.51978295,5.16571241 4.7500425,5.16571241 L5.9997754,5.16571241 L6.00021481,4.49995319 L5.33445558,4.49995319 L5.33445558,3.99986879 L4.66562517,3.99986879 L4.66562517,4.50961671 C4.40723004,4.52763428 4.16422455,4.63880864 3.98141638,4.82205555 C3.78103612,5.02639571 3.66897753,5.3010467 3.66897753,5.58756616 C3.66897753,6.1847695 4.15280607,6.66859803 4.75000942,6.66859803 L5.25009383,6.66859803 C5.48036463,6.66859803 5.66712145,6.85536611 5.66712145,7.08606439 C5.66712145,7.31633518 5.48035338,7.503092 5.25009383,7.503092 L4.00036093,7.503092 L4.00036093,8.16885122 L4.66612016,8.16885122 L4.66612016,8.66893562 L5.33187939,8.66893562 L5.33143987,8.1591877 C5.91105989,8.11524399 6.35226319,7.61998798 6.32941498,7.03905175 C6.30700326,6.45766553 5.82845309,5.99889016 5.24706686,6.00020638 L5.2501269,6.00020638 Z" id="Path"></path>
            </g>
        </g>
    </g>
</svg>