<?xml version="1.0" encoding="UTF-8"?>
<svg width="43px" height="43px" viewBox="0 0 43 43" version="1.1" xmlns="http://www.w3.org/2000/svg" xmlns:xlink="http://www.w3.org/1999/xlink">
    <title>Shape</title>
    <g id="Approved-Screens" stroke="none" stroke-width="1" fill="none" fill-rule="evenodd">
        <g id="Affiliate-Admin-Dashboard-|-EVENTS-|-Congrats-on-publishing-screen" transform="translate(-634.000000, -356.000000)" fill="#2D9FFF" fill-rule="nonzero">
            <g id="Group-4" transform="translate(593.000000, 340.000000)">
                <path d="M62.5,16 C50.644061,16 41,25.644061 41,37.5 C41,49.355939 50.644061,59 62.5,59 C74.355939,59 84,49.355939 84,37.5 C84,25.644061 74.355939,16 62.5,16 Z M62.5,19.3076923 C72.5665835,19.3076923 80.6923077,27.4334165 80.6923077,37.5 C80.6923077,47.5665835 72.5665835,55.6923077 62.5,55.6923077 C52.4334165,55.6923077 44.3076923,47.5665835 44.3076923,37.5 C44.3076923,27.4334165 52.4334165,19.3076923 62.5,19.3076923 Z M63.0512821,22.6153846 L54.2307692,42.841733 L63.0512821,42.841733 L63.0512821,53.4871795 L71.8717949,33.2608311 L63.0512821,33.2608311 L63.0512821,22.6153846 Z" id="Shape"></path>
            </g>
        </g>
    </g>
</svg>