<?xml version="1.0" encoding="UTF-8"?>
<svg width="8px" height="11px" viewBox="0 0 8 11" version="1.1" xmlns="http://www.w3.org/2000/svg" xmlns:xlink="http://www.w3.org/1999/xlink">
    <title>np_overview-pages_1335805_FFFFFF</title>
    <g id="Symbols" stroke="none" stroke-width="1" fill="none" fill-rule="evenodd">
        <g id="Affiliates-Nav" transform="translate(-33.000000, -335.000000)" fill="#FFFFFF" fill-rule="nonzero">
            <g id="np_overview-pages_1335805_FFFFFF" transform="translate(33.000000, 335.000000)">
                <path d="M4.96559996,11 L0.320846857,11 C0.14352178,11 0,10.8651845 0,10.6986232 L0,0.301371236 C0,0.134809911 0.14352178,0 0.320846857,0 L7.67910862,0 C7.8564337,0 7.99995548,0.134809911 7.99995548,0.301371236 L7.99995548,8.14971502 C7.99995548,8.31627634 7.8564337,8.45108626 7.67910862,8.45108626 C7.50178354,8.45108626 7.35826176,8.31627634 7.35826176,8.14971502 L7.35826176,0.602742471 L0.642167814,0.602742471 L0.642167814,10.397252 L4.96559996,10.397252 C5.14292503,10.397252 5.28644681,10.5320619 5.28644681,10.6986232 C5.28644681,10.8651845 5.14246279,11 4.96559996,11 Z" id="Path"></path>
                <path d="M4.96512586,11 C4.92345725,11 4.88225089,10.9926014 4.84196665,10.977381 C4.72205503,10.930413 4.6438049,10.820383 4.6438049,10.698621 L4.6438049,8.14971279 C4.6438049,7.98315147 4.78732668,7.84834156 4.96465176,7.84834156 L7.67863452,7.84834156 C7.80873928,7.84834156 7.92540333,7.9218374 7.97540897,8.03447476 C8.02541225,8.14710766 7.99763239,8.27670731 7.9059605,8.3628102 L5.19197774,10.9117184 C5.13086276,10.9695578 5.04891821,11 4.96510926,11 L4.96512586,11 Z M5.28643496,8.45108626 L5.28643496,9.97052276 L6.90406256,8.45108626 L5.28643496,8.45108626 Z" id="Shape"></path>
                <path d="M5.58453689,2.39972552 L3.32094869,2.39972552 C3.14362361,2.39972552 3.00010183,2.26491561 3.00010183,2.09835428 C3.00010183,1.93179296 3.14362361,1.79698305 3.32094869,1.79698305 L5.58453689,1.79698305 C5.76186197,1.79698305 5.90538375,1.93179296 5.90538375,2.09835428 C5.90538375,2.26491561 5.76186197,2.39972552 5.58453689,2.39972552 Z" id="Path"></path>
                <path d="M5.98550657,4.84969189 L2.0144489,4.84969189 C1.83712383,4.84969189 1.69360205,4.71488198 1.69360205,4.54832066 C1.69360205,4.38175933 1.83712383,4.24694942 2.0144489,4.24694942 L5.98598067,4.24694942 C6.16330575,4.24694942 6.30682753,4.38175933 6.30682753,4.54832066 C6.30682753,4.71444779 6.1628435,4.84969189 5.98551842,4.84969189 L5.98550657,4.84969189 Z" id="Path"></path>
                <path d="M5.79053314,6.29910161 L2.21025201,6.29910161 C2.03292693,6.29910161 1.88940515,6.1642917 1.88940515,5.99773038 C1.88940515,5.83116905 2.03292693,5.69635914 2.21025201,5.69635914 L5.79053314,5.69635914 C5.96785822,5.69635914 6.11138,5.83116905 6.11138,5.99773038 C6.11138,6.1642917 5.96785822,6.29910161 5.79053314,6.29910161 Z" id="Path"></path>
                <path d="M2.43627896,3.11468898 C1.83948247,3.11468898 1.35427716,2.65849063 1.35427716,2.09836542 C1.35427716,1.53779488 1.83995657,1.08160767 2.43627896,1.08160767 C3.03307545,1.08160767 3.51874301,1.53780601 3.51874301,2.09836542 C3.51874301,2.65937014 3.03260135,3.11468898 2.43627896,3.11468898 L2.43627896,3.11468898 Z M2.43627896,1.68476206 C2.19320813,1.68476206 1.99598273,1.87046107 1.99598273,2.09833202 C1.99598273,2.32664828 2.19368223,2.51190197 2.43627896,2.51190197 C2.67934979,2.51190197 2.8765752,2.32620296 2.8765752,2.09833202 C2.8765752,1.87001575 2.67933794,1.68476206 2.43627896,1.68476206 L2.43627896,1.68476206 Z" id="Shape"></path>
            </g>
        </g>
    </g>
</svg>