<?xml version="1.0" encoding="UTF-8"?>
<svg width="20px" height="20px" viewBox="0 0 20 20" version="1.1" xmlns="http://www.w3.org/2000/svg" xmlns:xlink="http://www.w3.org/1999/xlink">
    <title>np_currency_2113887_000000</title>
    <g id="APPROVED-SCREENS" stroke="none" stroke-width="1" fill="none" fill-rule="evenodd" fill-opacity="0.503196023">
        <g id="Affiliate-Admin-Dashboard-|-EVENTS-|-Create-New-2" transform="translate(-334.000000, -599.000000)" fill="#022F59" fill-rule="nonzero">
            <g id="Accordion" transform="translate(313.000000, 102.000000)">
                <g id="np_currency_2113887_000000" transform="translate(21.000000, 497.000000)">
                    <path d="M10,0 C4.48571429,0 0,4.48571429 0,10 C0,15.5142857 4.48571429,20 10,20 C15.5142857,20 20,15.5142857 20,10 C20,4.48571429 15.5142857,0 10,0 Z M10,19.0473143 C5.01165714,19.0473143 0.952685714,14.9883429 0.952685714,10 C0.952685714,5.01165714 5.01165714,0.952685714 10,0.952685714 C14.9883429,0.952685714 19.0473143,5.01165714 19.0473143,10 C19.0473143,14.9883429 14.9883429,19.0473143 10,19.0473143 Z" id="Shape"></path>
                    <path d="M10.5330286,9.22674286 C9.08660571,8.62674286 8.47053714,8.19371429 8.47053714,7.32852571 C8.47053714,6.66333714 8.95268571,5.89728 10.23392,5.89728 C11.2991086,5.89728 11.97856,6.26425143 12.3312457,6.46514286 L12.7482057,5.36603429 C12.2651657,5.08299429 11.5830171,4.81693714 10.5857143,4.78299429 L10.5857143,3.16692571 L9.55268571,3.16692571 L9.55268571,4.84907429 C8.01696,5.09908571 7.03748571,6.1464 7.03748571,7.52953143 C7.03748571,8.97595429 8.08928,9.74114286 9.7856,10.4063314 C11.0168457,10.9063314 11.6659657,11.47152 11.6659657,12.38848 C11.6659657,13.3357943 10.86864,14.0206171 9.68829714,14.0206171 C8.75437714,14.0206171 7.88829714,13.7009829 7.28829714,13.3045486 L6.88829714,14.4188343 C7.46955429,14.8340114 8.46955429,15.1366857 9.43481143,15.1518629 L9.43481143,16.8340114 L10.4830171,16.8340114 L10.4830171,15.1027657 C12.1973029,14.8197257 13.110675,13.5893714 13.110675,12.27328 C13.1115671,10.7920229 12.2454857,9.92516571 10.5330743,9.22688 L10.5330286,9.22674286 Z" id="Path"></path>
                </g>
            </g>
        </g>
    </g>
</svg>