<?xml version="1.0" encoding="UTF-8"?>
<svg width="10px" height="9px" viewBox="0 0 10 9" version="1.1" xmlns="http://www.w3.org/2000/svg" xmlns:xlink="http://www.w3.org/1999/xlink">
    <title>Referee Icon</title>
    <g id="Symbols" stroke="none" stroke-width="1" fill="none" fill-rule="evenodd">
        <g id="Affiliates-Nav" transform="translate(-31.000000, -286.000000)" fill="#FFFFFF" fill-rule="nonzero">
            <g id="Shape" transform="translate(31.000000, 286.000000)">
                <path d="M4.9999095,1.50023099 C4.40840156,1.50023099 3.92850277,0.996342508 3.92850277,0.375265637 L3.92850277,0.000277186588 L6.07131623,0.000277186588 L6.07131623,0.375265637 C6.07131623,0.996342508 5.59141744,1.50023099 4.9999095,1.50023099 Z M1.14283384e-05,1.87521944 L1.14283384e-05,4.50013859 C1.14283384e-05,4.63466645 0.0687597411,4.75935461 0.180362037,4.82590456 C0.291966619,4.89246531 0.429019825,4.89152814 0.539280435,4.82262338 L1.07140673,4.50013331 L1.07140673,0.926523379 L0.160705295,1.56400374 C0.0607073338,1.63290802 0.000445705199,1.74962603 0,1.87525016 L1.14283384e-05,1.87521944 Z M2.30350733,0.0639952241 L1.78566645,0.427728021 L1.78566645,8.62491555 C1.78566645,8.72428689 1.82316512,8.81990955 1.89012832,8.89021538 C1.95709153,8.96052602 2.04815939,8.9998992 2.14279746,8.9998992 L2.85706861,8.9998992 L2.85706861,0.000176389693 L2.49993304,0.000176389693 C2.42984532,0.000645095257 2.36154729,0.0231448823 2.30350275,0.0639244263 L2.30350733,0.0639952241 Z M3.57136719,1.50023099 L3.57136719,9 L4.64277392,9 L4.64277392,2.21276904 C4.21465694,2.12089747 3.83341899,1.86731168 3.57136719,1.50023099 L3.57136719,1.50023099 Z M5.35704507,2.21270904 L5.35704507,8.99994 L6.4284518,8.99994 L6.4284518,1.50017099 C6.1664,1.86719169 5.78516206,2.12077988 5.35704507,2.21264905 L5.35704507,2.21270904 Z M7.49985853,0.000217188436 L7.14272296,0.000217188436 L7.14272296,8.99994 L7.85699411,8.99994 C7.95163447,8.99994 8.04270461,8.96056681 8.10966324,8.89025618 C8.17662645,8.81994555 8.21412512,8.72432529 8.21412512,8.62495635 L8.21412512,0.42776882 L7.69628424,0.0527803695 C7.6369106,0.01575071 7.56860685,-0.00253072693 7.49985396,0.000281986441 L7.49985853,0.000217188436 Z M9.83912513,1.56388903 L8.9284237,0.926408662 L8.9284237,4.5000186 L9.46054999,4.83375232 C9.57260142,4.90359377 9.71188201,4.90359377 9.82438257,4.83422102 C9.936434,4.76484876 10.0038418,4.6368871 9.99983043,4.50000732 L9.99983043,1.87508816 C9.99938403,1.74946403 9.93911738,1.63275563 9.83912513,1.56384175 L9.83912513,1.56388903 Z"></path>
            </g>
        </g>
    </g>
</svg>