<?xml version="1.0" encoding="UTF-8"?>
<svg width="40px" height="36px" viewBox="0 0 40 36" version="1.1" xmlns="http://www.w3.org/2000/svg" xmlns:xlink="http://www.w3.org/1999/xlink">
    <title>Referee Icon</title>
    <g id="Approved-Screens" stroke="none" stroke-width="1" fill="none" fill-rule="evenodd">
        <g id="Affiliate-Admin-Dashboard-|-EVENTS-|-Congrats-on-publishing-screen" transform="translate(-789.000000, -358.000000)" fill="#26A1FF" fill-rule="nonzero">
            <g id="Group-5" transform="translate(744.500000, 358.000000)">
                <g id="Referee-Icon" transform="translate(44.500000, 0.000000)">
                    <path d="M19.999638,6.00092396 C17.6336062,6.00092396 15.7140111,3.98537003 15.7140111,1.50106255 L15.7140111,0.00110874635 L24.2852649,0.00110874635 L24.2852649,1.50106255 C24.2852649,3.98537003 22.3656698,6.00092396 19.999638,6.00092396 Z M4.57133538e-05,7.50087776 L4.57133538e-05,18.0005544 C4.57133538e-05,18.5386658 0.275038964,19.0374184 0.721448149,19.3036182 C1.16786648,19.5698612 1.7160793,19.5661126 2.15712174,19.2904935 L4.28562692,18.0005333 L4.28562692,3.70609351 L0.642821181,6.25601498 C0.242829335,6.53163209 0.0017828208,6.99850411 0,7.50100063 L4.57133538e-05,7.50087776 Z M9.2140293,0.255980896 L7.14266582,1.71091209 L7.14266582,34.4996622 C7.14266582,34.8971476 7.29266047,35.2796382 7.5605133,35.5608615 C7.82836612,35.8421041 8.19263755,35.9995968 8.57118984,35.9995968 L11.4282744,35.9995968 L11.4282744,0.000705558773 L9.99973214,0.000705558773 C9.71938129,0.00258038103 9.44618914,0.0925795291 9.21401102,0.255697705 L9.2140293,0.255980896 Z M14.2854688,6.00092396 L14.2854688,36 L18.5710957,36 L18.5710957,8.85107617 C16.8586277,8.48358989 15.333676,7.46924673 14.2854688,6.00092396 L14.2854688,6.00092396 Z M21.4281803,8.85083618 L21.4281803,35.99976 L25.7138072,35.99976 L25.7138072,6.00068396 C24.6656,7.46876675 23.1406482,8.48311951 21.4281803,8.85059619 L21.4281803,8.85083618 Z M29.9994341,0.000868753746 L28.5708918,0.000868753746 L28.5708918,35.99976 L31.4279764,35.99976 C31.8065379,35.99976 32.1708184,35.8422673 32.438653,35.5610247 C32.7065058,35.2797822 32.8565005,34.8973012 32.8565005,34.4998254 L32.8565005,1.71107528 L30.785137,0.211121478 C30.5476424,0.06300284 30.2744274,-0.0101229077 29.9994158,0.00112794576 L29.9994341,0.000868753746 Z M39.3565005,6.25555611 L35.7136948,3.70563465 L35.7136948,18.0000744 L37.8422,19.3350093 C38.2904057,19.6143751 38.847528,19.6143751 39.2975303,19.3368841 C39.745736,19.059395 40.0153671,18.5475484 39.9993217,18.0000293 L39.9993217,7.50035265 C39.9975361,6.99785613 39.7564695,6.53102251 39.3565005,6.255367 L39.3565005,6.25555611 Z" id="Shape"></path>
                </g>
            </g>
        </g>
    </g>
</svg>