<?xml version="1.0" encoding="UTF-8"?>
<svg width="10px" height="10px" viewBox="0 0 10 10" version="1.1" xmlns="http://www.w3.org/2000/svg" xmlns:xlink="http://www.w3.org/1999/xlink">
    <title>Reports Icon</title>
    <g id="Symbols" stroke="none" stroke-width="1" fill="none" fill-rule="evenodd">
        <g id="Affiliates-Nav" transform="translate(-31.000000, -186.000000)" fill="#FFFFFF" fill-rule="nonzero">
            <g id="Group" transform="translate(31.000000, 186.000000)">
                <path d="M3.9711,2.5914 C4.09298,2.71367 4.09298,2.91132 3.9711,3.03359 L2.7992,4.20549 C2.740606,4.264084 2.66092,4.296896 2.57811,4.296896 C2.4953,4.296896 2.41561,4.264084 2.35702,4.20549 L1.6539,3.50237 C1.53202,3.3801 1.53202,3.18245 1.6539,3.06018 C1.77617,2.9383 1.97382,2.9383 2.09609,3.06018 L2.57812,3.5426 L3.5289,2.59143 C3.65117,2.46955 3.84882,2.46955 3.97109,2.59143 L3.9711,2.5914 Z" id="Path"></path>
                <path d="M5,3.125 C4.82734,3.125 4.6875,3.26484 4.6875,3.4375 C4.6875,3.61016 4.82734,3.75 5,3.75 L8.125,3.75 C8.29766,3.75 8.4375,3.61016 8.4375,3.4375 C8.4375,3.26484 8.29766,3.125 8.125,3.125 L5,3.125 Z" id="Path"></path>
                <path d="M4.6875,6.5625 C4.6875,6.38984 4.82734,6.25 5,6.25 L8.125,6.25 C8.29766,6.25 8.4375,6.38984 8.4375,6.5625 C8.4375,6.73516 8.29766,6.875 8.125,6.875 L5,6.875 C4.82734,6.875 4.6875,6.73516 4.6875,6.5625 Z" id="Path"></path>
                <path d="M3.9711,6.1586 C4.09298,6.03633 4.09298,5.83868 3.9711,5.71641 C3.84883,5.59453 3.65118,5.59453 3.52891,5.71641 L2.57813,6.66758 L2.0961,6.18516 C1.97383,6.06328 1.77618,6.06328 1.65391,6.18516 C1.53203,6.30743 1.53203,6.50508 1.65391,6.62735 L2.35703,7.33047 C2.415624,7.389064 2.49531,7.421876 2.57812,7.421876 C2.66093,7.421876 2.74062,7.389064 2.79921,7.33047 L3.9711,6.1586 Z" id="Path"></path>
                <path d="M0,9.0625 C0,9.58047 0.41992,10 0.9375,10 L9.0625,10 C9.58047,10 10,9.58047 10,9.0625 L10,0.9375 C10,0.41992 9.58047,0 9.0625,0 L0.9375,0 C0.41992,0 0,0.41992 0,0.9375 L0,9.0625 Z M0.9375,9.375 C0.76484,9.375 0.625,9.23516 0.625,9.0625 L0.625,0.9375 C0.625,0.76484 0.76484,0.625 0.9375,0.625 L9.0625,0.625 C9.23516,0.625 9.375,0.76484 9.375,0.9375 L9.375,9.0625 C9.375,9.23516 9.23516,9.375 9.0625,9.375 L0.9375,9.375 Z" id="Shape"></path>
            </g>
        </g>
    </g>
</svg>