<?xml version="1.0" encoding="UTF-8"?>
<svg width="45px" height="45px" viewBox="0 0 45 45" version="1.1" xmlns="http://www.w3.org/2000/svg" xmlns:xlink="http://www.w3.org/1999/xlink">
    <title>Shape</title>
    <g id="Approved-Screens" stroke="none" stroke-width="1" fill="none" fill-rule="evenodd">
        <g id="Affiliate-Admin-Dashboard-|-EVENTS-|-Congrats-on-publishing-screen" transform="translate(-481.000000, -354.000000)" fill="#26A1FF" fill-rule="nonzero">
            <g id="step-1" transform="translate(440.000000, 354.000000)">
                <path d="M61.8923424,1.60484774 C61.8923424,0.954836108 62.2840907,0.371027462 62.8847605,0.122239824 C63.4854406,-0.126537542 64.1764799,0.0118980898 64.6365041,0.46932015 C65.094533,0.928750385 65.2331728,1.6189101 64.9840449,2.21874305 C64.7349375,2.81862736 64.1503441,3.20983616 63.4994702,3.20983616 C62.6115128,3.20983616 61.8923424,2.49161851 61.8923424,1.60483747 L61.8923424,1.60484774 Z M69.9279917,3.20984644 C70.5788656,3.20984644 71.1634487,2.81862736 71.4125664,2.21875332 C71.6616737,1.61886901 71.5230545,0.928745249 71.0650256,0.469330422 C70.6049859,0.0119083618 69.9139107,-0.126547814 69.313282,0.122250096 C68.7126019,0.371027462 68.3208742,0.95484638 68.3208742,1.60485801 C68.3208742,2.0301801 68.48962,2.43945733 68.7909578,2.74037533 C69.0922955,3.04131387 69.5021054,3.20984644 69.9279814,3.20984644 L69.9279917,3.20984644 Z M57.0709693,3.20984644 C57.7218432,3.20984644 58.3064263,2.81862736 58.5555439,2.21875332 C58.8046513,1.61886901 58.666032,0.928745249 58.2080032,0.469330422 C57.7479635,0.0119083618 57.0568883,-0.126547814 56.4562596,0.122250096 C55.8555795,0.371027462 55.4638518,0.95484638 55.4638518,1.60485801 C55.4638518,2.0301801 55.6325976,2.43945733 55.9339354,2.74037533 C56.2352731,3.04131387 56.645083,3.20984644 57.070959,3.20984644 L57.0709693,3.20984644 Z M85.9992697,12.8398386 L85.9992697,15.0868368 C86.0354298,21.7697946 83.9100036,28.2837781 79.9405265,33.6627065 C75.9708951,39.0416349 70.3682161,42.9978925 63.9659333,44.9398125 C63.660579,45.0200625 63.3391277,45.0200625 63.0337991,44.9398125 C56.6315163,42.9977898 51.0284259,39.0416349 47.0592059,33.6627065 C43.0895745,28.2837781 40.9639487,21.7697946 41.0004627,15.0868368 L41.0004627,12.8398386 C41.0004627,11.9530576 41.7196331,11.2348399 42.6075905,11.2348399 C45.2694055,11.2348399 47.4289739,9.07813255 47.4289739,6.41984383 C47.4289739,5.53306279 48.1481443,4.81484513 49.0361017,4.81484513 L77.9644021,4.81484513 C78.3902884,4.81484513 78.8001086,4.98336743 79.1014258,5.28430597 C79.4027635,5.58524451 79.5715094,5.99451147 79.5715094,6.41982329 C79.5715094,9.07811201 81.7310777,11.2348194 84.3928928,11.2348194 C84.8187791,11.2348194 85.2285992,11.4033417 85.5299164,11.7042802 C85.8312542,12.0052188 86,12.4144857 86,12.8397975 L85.9992697,12.8398386 Z M55.4638415,37.5085402 L55.4638415,33.704719 L51.3013548,33.704719 C52.5549144,35.1111087 53.9490785,36.3870955 55.4638415,37.5085402 Z M58.6780971,33.704719 L58.6780971,39.5469142 C59.7166874,40.1167016 60.7894773,40.6202346 61.8923527,41.055613 L61.8923527,33.7049758 L58.6780971,33.704719 Z M65.1066083,33.704719 L65.1066083,41.0553562 C66.2094837,40.6199984 67.2822736,40.1164448 68.3208639,39.5466574 L68.3208639,33.7044622 L65.1066083,33.704719 Z M75.6977091,33.704719 L71.5352224,33.704719 L71.5352224,37.5085402 C73.0499339,36.3870441 74.444098,35.1110573 75.6977091,33.704719 Z M82.7850309,14.2844915 C81.2401657,13.9695112 79.8238876,13.2091167 78.7089266,12.0956842 C77.5939656,10.9822516 76.8326242,9.56779839 76.5172157,8.02499661 L50.4817453,8.02499661 C50.1663471,9.56779839 49.4049439,10.9822003 48.2900344,12.0956842 C47.1751248,13.2091681 45.7587952,13.9695009 44.21393,14.2844915 L44.21393,15.0869909 C44.20792,20.5660712 45.8170633,25.9249693 48.8424749,30.4949784 L78.156486,30.4949784 C81.1818977,25.9247638 82.7910312,20.5660712 82.7850309,15.0869909 L82.7850309,14.2844915 Z M60.7511634,22.0044069 C61.0525011,22.3073484 61.4643167,22.4798871 61.8922498,22.4798871 C62.320183,22.4798871 62.7319677,22.3073484 63.0333363,22.0044069 L66.2475919,18.7944095 C66.8784088,18.1644282 66.8784088,17.1452926 66.2475919,16.5153113 C65.6167749,15.8853301 64.5962874,15.8853301 63.9654704,16.5153113 L60.7512148,19.7253087 C60.4478714,20.0262472 60.2751038,20.4375172 60.2751038,20.8648835 C60.2751038,21.2922497 60.4478714,21.7034889 60.7512148,22.0044582 L60.7511634,22.0044069 Z M71.5351195,12.8397359 C71.5351195,23.3685273 67.6137277,27.2847242 57.0709693,27.2847242 C56.1830119,27.2847242 55.4638415,26.5665065 55.4638415,25.6797255 C55.4638415,15.150934 59.3852333,11.2347372 69.9279917,11.2347372 C70.353878,11.2347372 70.7636982,11.4032595 71.0650153,11.704198 C71.3663531,12.0051366 71.5351195,12.4144035 71.5351195,12.8397154 L71.5351195,12.8397359 Z M68.3208639,14.4447346 C61.4423569,14.7496843 59.047865,17.1411324 58.6780971,24.0747268 C65.5890038,23.737677 67.9834956,21.346229 68.3208639,14.4447346 Z" id="Shape"></path>
            </g>
        </g>
    </g>
</svg>