<?xml version="1.0" encoding="UTF-8"?>
<svg width="10px" height="9px" viewBox="0 0 10 9" version="1.1" xmlns="http://www.w3.org/2000/svg" xmlns:xlink="http://www.w3.org/1999/xlink">
    <title>Transactions Icon</title>
    <g id="Symbols" stroke="none" stroke-width="1" fill="none" fill-rule="evenodd">
        <g id="Affiliates-Nav" transform="translate(-32.000000, -385.000000)" fill="#FFFFFF" fill-rule="nonzero">
            <g id="Path" transform="translate(32.000000, 385.000000)">
                <path d="M4.50634841,3.27253982 C4.73200752,3.27253982 4.91638294,3.45664412 4.91638294,3.68198778 L5.73546873,3.68198778 C5.73546873,3.14980362 5.39170835,2.69626882 4.91638294,2.52846389 L4.91638294,2.04517783 L4.09729716,2.04517783 L4.09729716,2.527482 C3.62197175,2.69528448 3.27821138,3.14980362 3.27821138,3.68100589 C3.27821138,4.35605499 3.83131553,4.90836788 4.5073317,4.90836788 C4.73299082,4.90836788 4.91736624,5.09247218 4.91736624,5.31781584 C4.91736624,5.5431595 4.73299819,5.7272638 4.5073317,5.7272638 C4.28167259,5.7272638 4.09729716,5.5431595 4.09729716,5.31781584 L3.27821138,5.31781584 C3.27821138,5.85 3.62197175,6.3035348 4.09729716,6.47133973 L4.09633698,6.95462579 L4.91542276,6.95462579 L4.91542276,6.47232162 C5.39074817,6.30451915 5.73450854,5.85 5.73450854,5.31879773 C5.73450854,4.64374864 5.18140439,4.09143574 4.50538822,4.09143574 C4.2797291,4.09143574 4.09535368,3.90733144 4.09535368,3.68198778 C4.09631411,3.45665148 4.2806829,3.27253982 4.50634693,3.27253982 L4.50634841,3.27253982 Z"></path>
                <path d="M7.20672575,4.90934977 L7.78480561,5.48660266 L8.14105385,5.13086406 C7.83760862,6.8606835 6.32522524,8.18208597 4.50654507,8.18208597 C2.47466168,8.18208597 0.81918411,6.52897665 0.81918411,4.5 C0.81918411,2.47102335 2.47466168,0.81791403 4.50654507,0.81791403 C5.57627306,0.81791403 6.59221475,1.28008946 7.29222336,2.08651538 L7.55820499,2.39718525 L8.17660001,1.86117172 L7.91061837,1.55050185 C7.05502772,0.563825551 5.81344412,0 4.50644674,0 C2.01944468,0 0,2.01650666 0,4.5 C0,6.98349334 2.01939552,9 4.50644674,9 C6.80912991,9 8.71421723,7.26922322 8.98019887,5.04372136 L9.42287885,5.48576806 L10,4.90947251 L8.60283435,3.51430559 L7.20672575,4.90934977 Z"></path>
            </g>
        </g>
    </g>
</svg>