<?xml version="1.0" encoding="UTF-8"?>
<svg width="10px" height="7px" viewBox="0 0 10 7" version="1.1" xmlns="http://www.w3.org/2000/svg" xmlns:xlink="http://www.w3.org/1999/xlink">
    <title>Path</title>
    <g id="APPROVED-SCREENS" stroke="none" stroke-width="1" fill="none" fill-rule="evenodd">
        <g id="Affiliate-Admin-Dashboard-|-EVENTS-|-Create-New-1" transform="translate(-765.000000, -1172.000000)" fill="#FFFFFF" fill-rule="nonzero" stroke="#FFFFFF" stroke-width="0.6">
            <g id="POOLS" transform="translate(431.000000, 817.013598)">
                <g id="Pool-1-expanded" transform="translate(321.600000, 240.213031)">
                    <g id="Open-event-generation-1" transform="translate(0.000000, 98.492918)">
                        <path d="M21.3660024,16.9188931 L16.2282987,22.1202273 L13.7782971,19.6398824 C13.7153041,19.5744088 13.6292149,19.5365697 13.5389189,19.5357196 C13.4490486,19.5348694 13.3621218,19.5710076 13.2982835,19.6352055 C13.2344506,19.699829 13.199174,19.7878313 13.1999721,19.8792456 C13.2008546,19.9706534 13.2378102,20.0578078 13.3029031,20.1211633 L15.9906052,22.8421526 C16.121636,22.9748062 16.334545,22.9748062 16.4655759,22.8421526 L21.8409799,17.4001741 C21.9405087,17.3023883 21.9703228,17.1527382 21.9161517,17.0234912 C21.8623976,16.8942442 21.7355704,16.8117656 21.5969817,16.8160212 C21.5096224,16.818557 21.426895,16.8555452 21.3660024,16.9188931 Z" id="Path"></path>
                    </g>
                </g>
            </g>
        </g>
    </g>
</svg>