<?xml version="1.0" encoding="UTF-8"?> <svg width="12px" height="12px" viewBox="0 0 12 12" version="1.1" xmlns="http://www.w3.org/2000/svg" xmlns:xlink="http://www.w3.org/1999/xlink"> <title>Tailwind - check</title> <g id="Affiliate-Onboarding" stroke="none" stroke-width="1" fill="none" fill-rule="evenodd" opacity="0.75208939"> <g id="Affiliate-Step-1-|-Name-Affiliate-League-Open" transform="translate(-848.000000, -216.000000)" fill="#FC6767"> <g id="Group-3" transform="translate(597.000000, 210.000000)"> <g id="Tailwind---check" transform="translate(251.000000, 6.000000)"> <path d="M6,12 C9.31372505,12 12,9.31372505 12,6 C12,2.68629001 9.31372505,0 6,0 C2.68629001,0 0,2.68629001 0,6 C0,9.31372505 2.68629001,12 6,12 Z M2.25,5.25 L9.75,5.25 C10.1642136,5.25 10.5,5.58578644 10.5,6 C10.5,6.41421356 10.1642136,6.75 9.75,6.75 L2.25,6.75 C1.83578644,6.75 1.5,6.41421356 1.5,6 C1.5,5.58578644 1.83578644,5.25 2.25,5.25 Z" id="Shape"></path> </g> </g> </g> </g> </svg>