<?xml version="1.0" encoding="UTF-8"?>
<svg width="20px" height="20px" viewBox="0 0 20 20" version="1.1" xmlns="http://www.w3.org/2000/svg" xmlns:xlink="http://www.w3.org/1999/xlink">
    <title>np_contact_327546_000000</title>
    <g id="APPROVED-SCREENS" stroke="none" stroke-width="1" fill="none" fill-rule="evenodd" fill-opacity="0.503796984">
        <g id="Affiliate-Admin-Dashboard-|-EVENTS-|-Create-New-1" transform="translate(-335.000000, -1359.000000)" fill="#022F59" fill-rule="nonzero">
            <g id="Accordion" transform="translate(191.000000, 105.000000)">
                <g id="np_contact_327546_000000" transform="translate(144.000000, 1254.000000)">
                    <path d="M10,1.25 C14.825,1.25 18.75,5.175 18.75,10 C18.75,14.825 14.825,18.75 10,18.75 C5.175,18.75 1.25,14.825 1.25,10 C1.25,5.175 5.175,1.25 10,1.25 M10,0 C4.475,0 0,4.475 0,10 C0,15.525 4.475,20 10,20 C15.525,20 20,15.525 20,10 C20,4.475 15.525,0 10,0 Z" id="Shape"></path>
                    <path d="M14.6737513,13.1934398 L16,13.1934398 C15.5855575,14.0373289 14.9479379,14.7022112 14.0871413,15.1753005 C13.1052072,15.725107 11.9063804,16 10.4909671,16 C9.12007481,16 7.94048884,15.7698484 6.94580234,15.3031625 C5.95111583,14.8364765 5.21147715,14.1524047 4.72688629,13.2510289 C4.24229543,12.3432088 4,11.3586716 4,10.2973149 C4,9.12736758 4.27418661,8.04060214 4.82890542,7.03039023 C5.38362423,6.02017832 6.1360153,5.26589495 7.09250584,4.76078899 C8.04899639,4.25568304 9.14553879,4 10.3762976,4 C11.4219936,4 12.3529182,4.20457916 13.162644,4.61373749 C13.9723698,5.02289582 14.5972778,5.59827472 15.0244931,6.35266038 C15.4517084,7.10064272 15.6684786,7.9253627 15.6684786,8.8139523 C15.6684786,9.87520671 15.3432825,10.8341715 14.6929309,11.6907445 C13.8767779,12.771168 12.8310818,13.3145916 11.5495175,13.3145916 C11.205203,13.3145916 10.9437688,13.2570537 10.7716217,13.1355848 C10.5994746,13.014116 10.4783167,12.8415023 10.4209207,12.6049474 C9.92996387,13.0780367 9.36885866,13.3145916 8.73123911,13.3145916 C8.04260999,13.3145916 7.46875239,13.0780572 7.01605271,12.5985645 C6.56335303,12.1190719 6.33378959,11.4861653 6.33378959,10.6998244 C6.33378959,9.72169051 6.6079762,8.83303953 7.15630861,8.02106483 C7.81943294,7.03652761 8.66745675,6.5506521 9.70678682,6.5506521 C10.4464255,6.5506521 10.9883919,6.83194845 11.3454589,7.40092402 L11.4984876,6.71046934 L13.143546,6.71046934 L12.2062351,11.1856385 C12.1488493,11.4669349 12.1169683,11.6523245 12.1169683,11.735445 C12.1169683,11.8377346 12.1424731,11.9144518 12.1871065,11.9719795 C12.238116,12.0231243 12.2891256,12.0486967 12.3592638,12.0486967 C12.5569258,12.0486967 12.8183498,11.9272278 13.1307732,11.6843003 C13.5516021,11.3710486 13.8959167,10.9427008 14.1573305,10.4120634 C14.4187443,9.88142592 14.5462682,9.33163987 14.5462682,8.75624052 C14.5462682,7.7333447 14.1764489,6.87666945 13.4368102,6.18631706 C12.6971715,5.49596468 11.6642278,5.15703838 10.3444064,5.15703838 C9.22219596,5.15703838 8.26566461,5.38718993 7.48787078,5.84749305 C6.70358852,6.30779617 6.11697853,6.95348893 5.72167481,7.79099511 C5.32635069,8.62209796 5.12869883,9.4915594 5.12869883,10.3930375 C5.12869883,11.2688818 5.35187588,12.0680294 5.79182317,12.7905007 C6.23177046,13.5065278 6.85665802,14.0371652 7.65367226,14.363203 C8.4506865,14.6956442 9.36885866,14.8618647 10.3955384,14.8618647 C11.3838589,14.8618647 12.2382487,14.7212166 12.9523418,14.4463235 C13.6664349,14.1714305 14.2403333,13.7430827 14.6739146,13.1932762 L14.6737513,13.1934398 Z M7.94681403,10.6298583 C7.94681403,11.1604958 8.05520935,11.5504646 8.2656238,11.7998056 C8.47603826,12.0491467 8.74384867,12.1706054 9.05627205,12.1706054 C9.29218108,12.1706054 9.51535813,12.1130675 9.71939639,11.9979917 C9.87880128,11.9148814 10.0318198,11.7806264 10.1848485,11.6016196 C10.4016391,11.3458956 10.592925,10.9750959 10.7523197,10.4892204 C10.9117143,10.0033449 10.9946151,9.54942462 10.9946151,9.12750055 C10.9946151,8.65441124 10.8862198,8.2963977 10.6694189,8.04707708 C10.4526181,7.79775645 10.1784621,7.66987401 9.84689989,7.66987401 C9.48983294,7.66987401 9.15827078,7.81052219 8.85857938,8.08541521 C8.55888799,8.36030823 8.32934495,8.75668036 8.17631626,9.26812827 C8.02328757,9.77957618 7.94677322,10.2334964 7.94677322,10.6298481 L7.94681403,10.6298583 Z" id="Shape"></path>
                </g>
            </g>
        </g>
    </g>
</svg>