<?xml version="1.0" encoding="UTF-8"?>
<svg width="20px" height="18px" viewBox="0 0 20 18" version="1.1" xmlns="http://www.w3.org/2000/svg" xmlns:xlink="http://www.w3.org/1999/xlink">
    <title>np_description_3547669_000000</title>
    <g id="Approved-Screens" stroke="none" stroke-width="1" fill="none" fill-rule="evenodd" fill-opacity="0.5">
        <g id="Affiliate-Admin-Dashboard-|-EVENTS-|-Create-New-3" transform="translate(-334.000000, -459.000000)" fill="#022F59" fill-rule="nonzero">
            <g id="Accordion" transform="translate(313.000000, 104.000000)">
                <g id="np_description_3547669_000000" transform="translate(21.000000, 355.000000)">
                    <path d="M3.87096774,18 C6.00932258,18 7.74193548,16.273575 7.74193548,14.1428571 L7.74193548,3.85714286 C7.74193548,1.726425 6.00932258,0 3.87096774,0 C1.7326129,0 0,1.726425 0,3.85714286 L0,14.1428571 C0,16.273575 1.7326129,18 3.87096774,18 Z M1.93548387,3.85714286 C1.93548387,2.79241071 2.80241935,1.92857143 3.87096774,1.92857143 C4.93951613,1.92857143 5.80645161,2.79241071 5.80645161,3.85714286 L5.80645161,14.1428571 C5.80645161,15.2075893 4.93951613,16.0714286 3.87096774,16.0714286 C2.80241935,16.0714286 1.93548387,15.2075893 1.93548387,14.1428571 L1.93548387,3.85714286 Z" id="Shape"></path>
                    <polygon id="Path" points="10.3225806 2.89285714 20 2.89285714 20 4.82142857 10.3225806 4.82142857"></polygon>
                    <polygon id="Path" points="10.3225806 8.03571429 20 8.03571429 20 9.96428571 10.3225806 9.96428571"></polygon>
                    <polygon id="Path" points="10.3225806 13.1785714 17.4193548 13.1785714 17.4193548 15.1071429 10.3225806 15.1071429"></polygon>
                </g>
            </g>
        </g>
    </g>
</svg>