<?xml version="1.0" encoding="UTF-8"?>
<svg width="19px" height="19px" viewBox="0 0 19 19" version="1.1" xmlns="http://www.w3.org/2000/svg" xmlns:xlink="http://www.w3.org/1999/xlink">
    <title>Event Icon</title>
    <g id="APPROVED-SCREENS" stroke="none" stroke-width="1" fill="none" fill-rule="evenodd">
        <g id="Affiliate-Admin-Dashboard-|-EVENTS-|-Create-New-1" transform="translate(-334.000000, -366.000000)" fill="#022F59" fill-rule="nonzero">
            <g id="Accordion" transform="translate(191.000000, 105.000000)">
                <g id="Event-Icon" transform="translate(143.000000, 261.000000)">
                    <g id="reg-dates-icon" opacity="0.502975109">
                        <g id="np_date_4462848_000000">
                            <path d="M13.9333333,1.26666667 L5.06666667,1.26666667 L5.06666667,0.633333333 C5.06666667,0.283409067 4.7832576,0 4.43333333,0 C4.08340907,0 3.8,0.283409067 3.8,0.633333333 L3.8,1.26666667 L1.9,1.26666667 C0.850247467,1.26666667 0,2.11691413 0,3.16666667 L0,17.1 C0,18.1497525 0.850247467,19 1.9,19 L17.1,19 C18.1497525,19 19,18.1497525 19,17.1 L19,3.16666667 C19,2.11691413 18.1497525,1.26666667 17.1,1.26666667 L15.2,1.26666667 L15.2,0.633333333 C15.2,0.283409067 14.9165909,0 14.5666667,0 C14.2167424,0 13.9333333,0.283409067 13.9333333,0.633333333 L13.9333333,1.26666667 Z M17.7333333,6.33333333 L17.7333333,17.1 C17.7333333,17.4499243 17.4499243,17.7333333 17.1,17.7333333 L1.9,17.7333333 C1.55007573,17.7333333 1.26666667,17.4499243 1.26666667,17.1 L1.26666667,6.33333333 L17.7333333,6.33333333 Z M17.7333333,5.06666667 L1.26666667,5.06666667 L1.26666667,3.16666667 C1.26666667,2.8167424 1.55007573,2.53333333 1.9,2.53333333 L17.1,2.53333333 C17.4499243,2.53333333 17.7333333,2.8167424 17.7333333,3.16666667 L17.7333333,5.06666667 Z" id="Shape"></path>
                        </g>
                    </g>
                    <g id="np_rugby_732207_000000" transform="translate(4.000000, 9.000000)" fill-opacity="0.497869318">
                        <path d="M10.9129962,2.76314255 C10.3482178,2.14006823 9.76053602,1.51360483 9.09952394,1.01617192 C8.06799137,0.239127923 6.71302714,0.0180029686 5.49579218,0.000738325874 C4.25998699,-0.0170088918 2.96029132,0.284217373 1.90112447,1.00945516 C1.2284065,1.46992749 0.642438085,2.14480802 0.0876521918,2.76354777 C0.0254750519,2.83309874 0.000862852896,2.91032179 0.000431758059,2.98610939 C0,2.99138567 0.000431758059,2.99666182 0,3.00193859 C0,3.00529623 0,3.0091335 0.000431758059,3.01297077 C0.000431758059,3.08875715 0.0250439571,3.16694044 0.0876521918,3.23649018 C0.648539735,3.86100118 1.23314855,4.48750142 1.89161828,4.9838292 C2.92271975,5.76087319 4.27855722,5.98199814 5.49568165,5.99926278 C6.73237114,6.01701 8.03328271,5.71530485 9.09244956,4.98861811 C9.76604077,4.5267091 10.3541205,3.85374413 10.9128857,3.23636739 C11.0290381,3.10781579 11.0290381,2.89149203 10.9128857,2.76294043 L10.9129962,2.76314255 Z M0.725893624,3.00057437 C1.16027141,2.52427406 1.6123462,2.05756386 2.10506549,1.66139803 C2.20998955,1.5769781 2.31966229,1.5007116 2.4319238,1.4292463 L2.4319238,4.55947582 C2.31706467,4.48848695 2.20480315,4.41365958 2.09642148,4.33163411 C1.60072875,3.95797616 1.15383815,3.47591688 0.725982054,3.00056209 L0.725893624,3.00057437 Z M3.2406135,4.95518733 L3.2406135,1.0344189 C3.96730675,0.769162276 4.760057,0.679474545 5.49623433,0.66891438 C6.37794486,0.656443561 7.3084907,0.812336162 8.13276614,1.20708988 L8.13276614,4.80638723 C7.30935289,5.19635204 6.36417194,5.31866577 5.49623433,5.33065033 C4.74752208,5.34072313 3.96430014,5.22944219 3.2406135,4.95507681 L3.2406135,4.95518733 Z M8.94101369,4.29326142 L8.94101369,1.70405618 C9.42029166,2.07339183 9.85553164,2.53866536 10.2730967,2.99914997 C9.85210499,3.45722785 9.41427844,3.90618223 8.94101369,4.29326142 L8.94101369,4.29326142 Z" id="Shape"></path>
                        <path d="M7.40255781,2.83276597 L7.09425867,2.83276597 L7.09425867,2.3689414 C7.09425867,2.15357542 6.79329921,2.15357542 6.79329921,2.3689414 L6.79329921,2.83276597 L6.37230747,2.83276597 L6.37230747,2.3646191 C6.37230747,2.14925312 6.071348,2.14925312 6.071348,2.3646191 L6.071348,2.83276597 L5.65035626,2.83276597 L5.65035626,2.3646191 C5.65035626,2.14925312 5.3493968,2.14925312 5.3493968,2.3646191 L5.3493968,2.83276597 L4.92840506,2.83276597 L4.92840506,2.3689414 C4.92840506,2.15357542 4.62787669,2.15357542 4.62744559,2.3689414 L4.62744559,2.83276597 L4.20645385,2.83276597 L4.20645385,2.3646191 C4.20645385,2.14925312 3.90549439,2.14925312 3.90549439,2.3646191 L3.90549439,2.83276597 L3.59719525,2.83276597 C3.40332417,2.83276597 3.40332417,3.16709344 3.59719525,3.16709344 L3.90549439,3.16709344 L3.90549439,3.63476142 C3.90549439,3.85060629 4.20645385,3.85060629 4.20645385,3.63476142 L4.20645385,3.16709344 L4.62744559,3.16709344 L4.62744559,3.63859255 C4.62744559,3.85443742 4.92797396,3.85443742 4.92840506,3.63859255 L4.92840506,3.16709344 L5.3493968,3.16709344 L5.3493968,3.63476142 C5.3493968,3.85060629 5.65035626,3.85060629 5.65035626,3.63476142 L5.65035626,3.16709344 L6.071348,3.16709344 L6.071348,3.63476142 C6.071348,3.8501274 6.37230747,3.8501274 6.37230747,3.63476142 L6.37230747,3.16709344 L6.79329921,3.16709344 L6.79329921,3.63908372 C6.79329921,3.8544497 7.09425867,3.8544497 7.09425867,3.63908372 L7.09425867,3.16709344 L7.40255781,3.16709344 C7.59642889,3.16661381 7.59642889,2.83276597 7.40255781,2.83276597 Z" id="Path"></path>
                    </g>
                </g>
            </g>
        </g>
    </g>
</svg>