<?xml version="1.0" encoding="UTF-8"?>
<svg width="20px" height="19px" viewBox="0 0 20 19" version="1.1" xmlns="http://www.w3.org/2000/svg" xmlns:xlink="http://www.w3.org/1999/xlink">
    <title>np_image_1709578_000000</title>
    <g id="Approved-Screens" stroke="none" stroke-width="1" fill="none" fill-rule="evenodd" fill-opacity="0.5">
        <g id="Affiliate-Admin-Dashboard-|-EVENTS-|-Create-New-3" transform="translate(-333.000000, -166.000000)" fill="#022F59" fill-rule="nonzero">
            <g id="Accordion" transform="translate(316.000000, 104.000000)">
                <g id="np_image_1709578_000000" transform="translate(17.000000, 62.000000)">
                    <path d="M0,0 L0,19 L20,19 L20,0 L0,0 Z M1.02564103,1 L18.974359,1 L18.974359,12.789 L15.7451282,9.6405 C15.5498154,9.4520225 15.1942564,9.459835 15.0079487,9.656125 L11.7787179,13.023375 L6.77076923,8.140625 C6.66259487,8.03711 6.50533333,7.9833975 6.35410256,8 C6.24793333,8.01074225 6.14576923,8.055665 6.06564103,8.125 L1.02564103,12.6095 L1.02564103,1 Z M11.5384615,3 C10.1282051,3 8.97435897,4.125 8.97435897,5.5 C8.97435897,6.875 10.1282051,8 11.5384615,8 C12.9487179,8 14.1025641,6.875 14.1025641,5.5 C14.1025641,4.125 12.9487179,3 11.5384615,3 Z M11.5384615,4 C12.3938205,4 13.0769231,4.666025 13.0769231,5.5 C13.0769231,6.333975 12.3938205,7 11.5384615,7 C10.6831026,7 10,6.333975 10,5.5 C10,4.666025 10.6831026,4 11.5384615,4 Z M6.39435897,9.1875 L11.434359,14.1015 C11.6296718,14.2899775 11.9852308,14.282165 12.1715385,14.085875 L15.4007692,10.718625 L18.9746154,14.203125 L18.9746154,18.000125 L1.02589744,18.000125 L1.02589744,13.968875 L6.39435897,9.1875 Z" id="Shape"></path>
                </g>
            </g>
        </g>
    </g>
</svg>