<?xml version="1.0" encoding="UTF-8"?>
<svg width="16px" height="20px" viewBox="0 0 16 20" version="1.1" xmlns="http://www.w3.org/2000/svg" xmlns:xlink="http://www.w3.org/1999/xlink">
    <title>np_location_4604187_000000</title>
    <g id="APPROVED-SCREENS" stroke="none" stroke-width="1" fill="none" fill-rule="evenodd" opacity="0.496616097">
        <g id="Affiliate-Admin-Dashboard-|-EVENTS-|-Create-New-1" transform="translate(-336.000000, -1098.000000)" fill="#022F59" fill-rule="nonzero">
            <g id="Accordion" transform="translate(191.000000, 105.000000)">
                <g id="np_location_4604187_000000" transform="translate(145.000000, 993.000000)">
                    <path d="M8.00001245,0 C5.87868573,0.00195298779 3.84475683,0.848619696 2.34505018,2.35448528 C0.845243931,3.86032587 0.00194217365,5.90221311 0,8.0321998 C0,11.847676 4.12313505,16.4343973 7.58468609,19.6093774 L8.00001245,20 L8.4163099,19.5976525 C12.2583278,15.8974256 16,11.9552003 16,8.0322248 C15.9980548,5.90236311 15.154781,3.86025087 13.6549498,2.35451028 C12.1551436,0.848669696 10.1214388,0.00197498766 7.99998755,0 L8.00001245,0 Z M8.00001245,18.3026356 C3.62788077,14.2129112 1.22954532,10.5771839 1.22954532,8.0321998 C1.27525861,5.63573978 2.57567085,3.4394785 4.65125689,2.25498591 C6.72686782,1.06944332 9.2713892,1.06944332 11.346029,2.25498591 C13.42164,3.4395535 14.7221742,5.63571478 14.7677426,8.0321998 C14.7706584,11.3379291 11.4859651,14.9071568 8.00001245,18.3026356 Z" id="Shape"></path>
                    <path d="M8,5 C6.78637015,5 5.69220896,5.73095261 5.22855336,6.851567 C4.76395113,7.97312795 5.02090837,9.2634412 5.87898677,10.1215223 C6.73707246,10.9795307 8.02750206,11.2354866 9.14826605,10.7718971 C10.2689815,10.3073368 11,9.21327422 11,7.99972834 C10.9990519,6.3434655 9.6564619,5.00184455 8.00014682,5.00014562 L8,5 Z M8.00000118,9.79828872 C7.27276919,9.79828872 6.61665599,9.36025596 6.33788494,8.68808634 C6.0600848,8.01591672 6.21367708,7.24229669 6.7285285,6.7284431 C7.24242842,6.21364296 8.0161182,6.06005967 8.68834843,6.33878131 C9.36057866,6.61655641 9.79862664,7.27263473 9.79862664,7.99980115 C9.79767855,8.99241329 8.99270282,9.7973179 7.99997691,9.79828872 L8.00000118,9.79828872 Z" id="Shape"></path>
                </g>
            </g>
        </g>
    </g>
</svg>