<?xml version="1.0" encoding="UTF-8"?>
<svg width="19px" height="19px" viewBox="0 0 19 19" version="1.1" xmlns="http://www.w3.org/2000/svg" xmlns:xlink="http://www.w3.org/1999/xlink">
    <title>reg dates icon</title>
    <g id="APPROVED-SCREENS" stroke="none" stroke-width="1" fill="none" fill-rule="evenodd" fill-opacity="0.498989292">
        <g id="Affiliate-Admin-Dashboard-|-EVENTS-|-Create-New-1" transform="translate(-334.000000, -563.000000)" fill="#022F59" fill-rule="nonzero">
            <g id="Accordion" transform="translate(191.000000, 105.000000)">
                <g id="reg-dates-icon" transform="translate(143.000000, 458.000000)">
                    <g id="np_date_4462848_000000">
                        <path d="M13.9333333,1.26666667 L5.06666667,1.26666667 L5.06666667,0.633333333 C5.06666667,0.283409067 4.7832576,0 4.43333333,0 C4.08340907,0 3.8,0.283409067 3.8,0.633333333 L3.8,1.26666667 L1.9,1.26666667 C0.850247467,1.26666667 0,2.11691413 0,3.16666667 L0,17.1 C0,18.1497525 0.850247467,19 1.9,19 L17.1,19 C18.1497525,19 19,18.1497525 19,17.1 L19,3.16666667 C19,2.11691413 18.1497525,1.26666667 17.1,1.26666667 L15.2,1.26666667 L15.2,0.633333333 C15.2,0.283409067 14.9165909,0 14.5666667,0 C14.2167424,0 13.9333333,0.283409067 13.9333333,0.633333333 L13.9333333,1.26666667 Z M17.7333333,6.33333333 L17.7333333,17.1 C17.7333333,17.4499243 17.4499243,17.7333333 17.1,17.7333333 L1.9,17.7333333 C1.55007573,17.7333333 1.26666667,17.4499243 1.26666667,17.1 L1.26666667,6.33333333 L17.7333333,6.33333333 Z M17.7333333,5.06666667 L1.26666667,5.06666667 L1.26666667,3.16666667 C1.26666667,2.8167424 1.55007573,2.53333333 1.9,2.53333333 L17.1,2.53333333 C17.4499243,2.53333333 17.7333333,2.8167424 17.7333333,3.16666667 L17.7333333,5.06666667 Z" id="Shape"></path>
                    </g>
                    <g id="np_sign-up_736554_000000" transform="translate(4.000018, 7.000000)">
                        <path d="M3.8252427,6.68297422 C3.82040892,6.68180639 3.81557514,6.68239038 3.81020486,6.68239038 C3.80537094,6.68239038 3.80053716,6.68180639 3.79516564,6.68180639 C2.12913733,6.693484 0.71005025,7.56930712 0.206268149,7.95116701 C0.137520591,8.00371591 0.0881075968,8.04692271 0.0381528716,8.16603514 C-0.00212907222,8.26354267 1.99764265e-05,8.46206737 1.99764265e-05,8.46206737 L1.99764265e-05,8.89999998 C1.99764265e-05,9.50751321 0.492506762,10 1.10002,10 L6.52034928,10 C7.12786252,10 7.62034931,9.50751321 7.62034931,8.89999998 L7.62034931,8.46206737 L7.62034931,8.46206737 C7.62034931,8.46206737 7.6224226,8.26355164 7.58160374,8.16603514 C7.53219074,8.04692271 7.48277912,8.00313894 7.41402469,7.95116701 C6.90980811,7.56930712 5.4914085,6.69348221 3.8252427,6.68297422 Z M3.85000681,5.55555556 C4.76127826,5.55555556 5.50000973,4.80936347 5.50000973,3.88888889 C5.50000973,2.96841431 4.76127826,2.22222222 3.85000681,2.22222222 C2.93873536,2.22222222 2.20000389,2.96841431 2.20000389,3.88888889 C2.20000389,4.80936347 2.93873536,5.55555556 3.85000681,5.55555556 Z M9.22687578,1.92790894 L9.22687578,0.335144343 C9.22687578,0.150049233 9.07682655,-3.400142e-17 8.89173144,0 C8.70663633,3.400142e-17 8.5565871,0.150049233 8.5565871,0.335144343 L8.5565871,1.92746052 L8.5565871,1.92746052 L7.14751669,1.92792442 C6.94627699,1.92799067 6.78317511,2.09114626 6.78317511,2.29238597 C6.78317511,2.49360628 6.9462964,2.65672758 7.14751671,2.65672758 L8.55617461,2.65672758 L8.55617461,2.65672758 L8.55617461,4.24904375 C8.55617461,4.43413886 8.70622385,4.5841881 8.89131896,4.5841881 C9.07642917,4.5841881 9.22650511,4.43415398 9.22655671,4.24904377 L9.22700049,2.65672758 L9.22700049,2.65672758 L10.6356584,2.65672758 C10.8368787,2.65672758 11,2.49360628 11,2.29238597 C11,2.09116116 10.8368832,1.92803191 10.6356584,1.92801654 L9.22687578,1.92790894 L9.22687578,1.92790894 Z" id="Shape"></path>
                    </g>
                </g>
            </g>
        </g>
    </g>
</svg>