<?xml version="1.0" encoding="UTF-8"?>
<svg width="13px" height="14px" viewBox="0 0 13 14" version="1.1" xmlns="http://www.w3.org/2000/svg" xmlns:xlink="http://www.w3.org/1999/xlink">
    <title>np_trash_1610935_5E656F</title>
    <g id="Approved-Screens" stroke="none" stroke-width="1" fill="none" fill-rule="evenodd" opacity="0.497728924">
        <g id="Affiliate-Admin-Dashboard-|-EVENTS-|-Create-New-3-2" transform="translate(-891.000000, -771.000000)" fill="#5E656F" fill-rule="nonzero">
            <g id="Accordion" transform="translate(-1.000000, 104.000000)">
                <g id="DESCRIPTION" transform="translate(0.000000, 355.000000)">
                    <g id="drag-and-drop-rectangle" transform="translate(362.000000, 233.000000)">
                        <g id="move-or-trash-sidebar" transform="translate(530.000000, 53.000000)">
                            <g id="np_trash_1610935_5E656F" transform="translate(0.000000, 26.000000)">
                                <path d="M12.4424557,2.17547725 L9.47155545,2.17547725 L9.47155545,0.94580164 C9.47155545,0.41641153 9.06277457,0 8.54308542,0 L4.45746057,0 C3.93777142,0 3.52899054,0.41641153 3.52899054,0.94580164 L3.52899054,2.17547725 L0.557362292,2.17547725 C0.241708689,2.17547725 0,2.42169788 0,2.74324374 C0,3.06478961 0.241708689,3.31101023 0.557362292,3.31101023 L1.35572349,3.31101023 L2.21024861,13.148341 C2.26570092,13.6212418 2.65599284,14 3.13871864,14 L9.8989545,14 C10.3631895,14 10.7719704,13.6219648 10.8274245,13.148341 L11.6819497,3.31101023 L12.4426377,3.3102859 C12.7582913,3.3102859 13,3.06406527 13,2.74251941 C13,2.42097355 12.7582913,2.17547596 12.4426377,2.17547596 L12.4424557,2.17547725 Z M4.64302354,1.13480995 L8.35683086,1.13480995 L8.35683086,2.17547725 L4.64302354,2.17547725 L4.64302354,1.13480995 Z M9.71251795,12.8638923 L3.28715445,12.8638923 L2.47030248,3.31039844 L10.5485523,3.31039844 L9.71251795,12.8638923 Z" id="Shape"></path>
                            </g>
                        </g>
                    </g>
                </g>
            </g>
        </g>
    </g>
</svg>