<?xml version="1.0" encoding="UTF-8"?>
<svg width="20px" height="20px" viewBox="0 0 20 20" version="1.1" xmlns="http://www.w3.org/2000/svg" xmlns:xlink="http://www.w3.org/1999/xlink">
    <title>np_info_1845673_000000</title>
    <g id="APPROVED-SCREENS" stroke="none" stroke-width="1" fill="none" fill-rule="evenodd" fill-opacity="0.498579545">
        <g id="Affiliate-Admin-Dashboard-|-EVENTS-|-Create-New-1" transform="translate(-333.000000, -168.000000)" fill="#022F59" fill-rule="nonzero">
            <g id="Accordion" transform="translate(191.000000, 105.000000)">
                <g id="np_info_1845673_000000" transform="translate(142.000000, 63.000000)">
                    <path d="M11.1634784,6.59714626 C11.1634784,7.23764453 10.6440371,7.75630597 10.0035389,7.75630597 C9.3630406,7.75630597 8.84359931,7.23764453 8.84359931,6.59714626 C8.84359931,5.95586813 9.3630406,5.43720669 10.0035389,5.43720669 C10.6440371,5.43720669 11.1634784,5.95586813 11.1634784,6.59714626" id="Path"></path>
                    <polygon id="Path" points="9.10127034 8.64815647 10.8993686 8.64815647 10.8993686 14.5666317 9.10127034 14.5666317"></polygon>
                    <path d="M10.0034989,20 C7.35080301,20.0007802 4.80688647,18.9478591 2.93064304,17.0723555 C1.05443961,15.1977118 0.000799847992,12.6535953 0,10.0010994 C0,7.34840348 1.05369975,4.80448694 2.92904335,2.92904335 C4.80438695,1.05359977 7.34860343,0 10.0010993,0 C12.6537952,0.000781091559 15.1977117,1.0544796 17.0723555,2.93064305 C18.9477791,4.80684649 20.0007989,7.35080303 20,10.0034989 C19.9960936,12.6537952 18.9416002,15.1939125 17.0677563,17.0677564 C15.1938925,18.9416203 12.6537952,19.9961999 10.0034989,20 L10.0034989,20 Z M10.0034989,1.45352326 C7.73592982,1.45274272 5.56054324,2.35257291 3.95624813,3.95544829 C2.35265289,5.55904354 1.45052433,7.73373026 1.44972449,10.0010994 C1.44972449,12.2694683 2.34955348,14.444055 3.9532487,16.0483501 C5.55606409,17.6519454 7.73153066,18.5532741 9.99889975,18.5540739 C12.2672687,18.5540739 14.4418554,17.6534651 16.0453507,16.0499498 C17.6489459,14.4463546 18.5502746,12.2716679 18.5502746,10.0034989 C18.5479312,7.73752953 17.6473262,5.5645425 16.0453507,3.96164712 C14.4425353,2.35805187 12.2702681,1.45672316 10.0034989,1.45352326 Z" id="Shape"></path>
                </g>
            </g>
        </g>
    </g>
</svg>