<?xml version="1.0" encoding="UTF-8"?>
<svg width="8px" height="8px" viewBox="0 0 8 8" version="1.1" xmlns="http://www.w3.org/2000/svg" xmlns:xlink="http://www.w3.org/1999/xlink">
    <title>np_calendar_857968_022F59</title>
    <g id="Symbols" stroke="none" stroke-width="1" fill="none" fill-rule="evenodd" opacity="0.49938681">
        <g id="Affiliate-Event-Title-Style-1-EVENT-LIVE" transform="translate(-21.000000, -143.000000)" fill="#022F59" fill-rule="nonzero">
            <g id="np_calendar_857968_022F59" transform="translate(21.000000, 143.000000)">
                <path d="M6.88890031,0.648252523 L6.2222928,0.648252523 L6.2222928,0 L5.77776125,0 L5.77776125,0.648631675 L2.22226813,0.64825194 L2.22226813,0 L1.77773657,0 L1.77773657,0.648631092 L1.11112907,0.648251357 C0.498384499,0.648251357 0,1.13320564 0,1.7294166 L0,6.91883476 C0,7.51505544 0.49839449,8 1.11112907,8 L6.88848067,8 C7.50122524,8 7.99960974,7.51504572 7.99960974,6.91883476 L8,2.81058184 L8,1.7294166 C8,1.13357507 7.50160551,0.648251357 6.88887093,0.648251357 L6.88890031,0.648252523 Z M7.55550781,6.91883593 C7.55550781,7.27657028 7.25654905,7.56746702 6.88890031,7.56746702 L1.11114905,7.56746702 C0.743500311,7.56746702 0.444541548,7.27657028 0.444541548,6.91883593 L0.444931907,2.810583 L7.55591815,2.810583 L7.55550781,6.91883593 Z M7.55550781,2.37844745 L0.444521566,2.37844745 L0.444521566,1.72943721 C0.444521566,1.37170285 0.743480328,1.08080612 1.11112907,1.08080612 L1.77773657,1.08080612 L1.77773657,1.51334999 L2.22226813,1.51372972 L2.22226813,1.08118585 L5.77776125,1.08118585 L5.77776125,1.51372972 L6.2222928,1.51372972 L6.22268306,1.08118585 L6.88929057,1.08118585 C7.25693931,1.08118585 7.55589807,1.37208259 7.55589807,1.72981694 L7.55550781,2.37844745 Z" id="Shape"></path>
                <path d="M3.5555131,4.9730107 L4.44418656,4.9730107 C4.68928239,4.9730107 4.88871812,4.77895316 4.88871812,4.54046683 L4.88871812,3.67575824 C4.88871812,3.43727192 4.68928239,3.24321437 4.44418656,3.24321437 L3.5555131,3.24321437 C3.31041727,3.24321437 3.11098155,3.43727192 3.11098155,3.67575824 L3.11098155,4.54046683 C3.11137191,4.77895316 3.31080693,4.9730107 3.5555131,4.9730107 Z M3.5555131,3.67572908 L4.44418656,3.67572908 L4.44457692,4.54043767 L3.5555131,4.54043767 L3.5555131,3.67572908 Z" id="Shape"></path>
                <path d="M5.77777124,4.9730107 L6.66644469,4.9730107 C6.91154052,4.9730107 7.11097625,4.77895316 7.11097625,4.54046683 L7.11097625,3.67575824 C7.11097625,3.43727192 6.91154052,3.24321437 6.66644469,3.24321437 L5.77777124,3.24283464 C5.53267541,3.24283464 5.33323968,3.43689218 5.33323968,3.67537851 L5.33323968,4.5400871 C5.33362994,4.77895258 5.53267541,4.9730107 5.77777124,4.9730107 L5.77777124,4.9730107 Z M5.77777124,3.67572908 L6.66644469,3.67572908 L6.66683495,4.54043767 L5.77777124,4.54043767 L5.77777124,3.67572908 Z" id="Shape"></path>
                <path d="M1.33355471,7.13534119 L2.22222816,7.13534119 C2.46732399,7.13534119 2.66675972,6.94128364 2.66675972,6.70279731 L2.66675972,5.83808872 C2.66675972,5.5996024 2.46732399,5.40554485 2.22222816,5.40554485 L1.33355471,5.40516512 C1.08845888,5.40516512 0.889023149,5.59922266 0.889023149,5.83770899 L0.889023149,6.70241758 C0.889023149,6.94128306 1.08845888,7.13534119 1.33355471,7.13534119 L1.33355471,7.13534119 Z M1.33355471,5.83767069 L2.22222816,5.83767069 L2.22261852,6.70237928 L1.33355471,6.70275901 L1.33355471,5.83767069 Z" id="Shape"></path>
                <path d="M3.5555131,7.13534119 L4.44418656,7.13534119 C4.68928239,7.13534119 4.88871812,6.94128364 4.88871812,6.70279731 L4.88871812,5.83808872 C4.88871812,5.5996024 4.68928239,5.40554485 4.44418656,5.40554485 L3.5555131,5.40554485 C3.31041727,5.40554485 3.11098155,5.5996024 3.11098155,5.83808872 L3.11098155,6.70279731 C3.11137191,6.94128364 3.31080693,7.13534119 3.5555131,7.13534119 L3.5555131,7.13534119 Z M3.5555131,5.83767069 L4.44418656,5.83767069 L4.44457692,6.70237928 L3.5555131,6.70237928 L3.5555131,5.83767069 Z" id="Shape"></path>
                <path d="M5.77777124,7.13534119 L6.66644469,7.13534119 C6.91154052,7.13534119 7.11097625,6.94128364 7.11097625,6.70279731 L7.11097625,5.83808872 C7.11097625,5.5996024 6.91154052,5.40554485 6.66644469,5.40554485 L5.77777124,5.40516512 C5.53267541,5.40516512 5.33323968,5.59922266 5.33323968,5.83770899 L5.33323968,6.70241758 C5.33362994,6.94128306 5.53267541,7.13534119 5.77777124,7.13534119 L5.77777124,7.13534119 Z M5.77777124,5.83767069 L6.66644469,5.83767069 L6.66683495,6.70237928 L5.77777124,6.70275901 L5.77777124,5.83767069 Z" id="Shape"></path>
            </g>
        </g>
    </g>
</svg>