<?xml version="1.0" encoding="UTF-8"?>
<svg width="12px" height="12px" viewBox="0 0 12 12" version="1.1" xmlns="http://www.w3.org/2000/svg" xmlns:xlink="http://www.w3.org/1999/xlink">
    <title>np_menu_1422001_FFFFFF</title>
    <g id="Symbols" stroke="none" stroke-width="1" fill="none" fill-rule="evenodd">
        <g id="Affiliate-Event-Title-Style-1-EVENT-LIVE" transform="translate(-179.000000, -6.000000)" fill="#FFFFFF" fill-rule="nonzero">
            <g id="np_menu_1422001_FFFFFF" transform="translate(179.000000, 6.000000)">
                <path d="M0.360349106,5.36939305 L5.00903275,5.36939305 C5.10475048,5.36939305 5.19625213,5.33138705 5.26381759,5.26382163 C5.33138304,5.19625622 5.36938906,5.10476183 5.36938906,5.00903695 L5.36938906,0.360356097 C5.36938906,0.264638423 5.33138304,0.173136831 5.26381759,0.105571414 C5.19625213,0.0380059974 5.10475769,0 5.00903275,0 L0.360349106,0 C0.161166138,0 0,0.161171446 0,0.36034889 L0,5.00902974 C0,5.10474742 0.0380060202,5.19624901 0.105571478,5.26381443 C0.173136935,5.33137984 0.264631375,5.36939305 0.360356313,5.36939305 L0.360349106,5.36939305 Z M0.720698212,0.720712194 L4.64868364,0.720712194 L4.64868364,4.64869527 L0.720698212,4.64869527 L0.720698212,0.720712194 Z" id="Shape"></path>
                <path d="M6.99095284,5.36939305 L11.6396365,5.36939305 C11.7353542,5.36939305 11.8268559,5.33138705 11.8944213,5.26382163 C11.9619868,5.19625622 11.9999928,5.10476183 11.9999928,5.00903695 L11.9999928,0.360356097 C11.9999928,0.264638423 11.9619868,0.173136831 11.8944213,0.105571414 C11.8268559,0.0380059974 11.7353614,0 11.6396365,0 L6.99095284,0 C6.79176987,0 6.63060373,0.161171446 6.63060373,0.36034889 L6.63060373,5.00902974 C6.63060373,5.10474742 6.66860975,5.19624901 6.73617521,5.26381443 C6.80374066,5.33137984 6.8952351,5.36939305 6.99096004,5.36939305 L6.99095284,5.36939305 Z M7.35130194,0.720712194 L11.2792874,0.720712194 L11.2792874,4.64869527 L7.35130194,4.64869527 L7.35130194,0.720712194 Z" id="Shape"></path>
                <path d="M0,11.6396439 C0,11.7353616 0.0380060202,11.8268632 0.105571478,11.8944286 C0.173136935,11.961994 0.264631375,12 0.360356313,12 L5.00903996,12 C5.10475769,12 5.19625934,11.961994 5.26382479,11.8944286 C5.33139025,11.8268632 5.36939627,11.7353688 5.36939627,11.6396439 L5.36939627,6.99096305 C5.36939627,6.89524538 5.33139025,6.80374378 5.26382479,6.73617837 C5.19625934,6.66861295 5.1047649,6.63060695 5.00903996,6.63060695 L0.360356313,6.63060695 C0.161173345,6.63060695 0,6.7917784 0,6.99095584 L0,11.6396439 Z M0.720698212,7.35131194 L4.64868364,7.35131194 L4.64868364,11.279295 L0.720698212,11.279295 L0.720698212,7.35131194 Z" id="Shape"></path>
                <path d="M6.63060373,11.6396439 C6.63060373,11.7353616 6.66860975,11.8268632 6.73617521,11.8944286 C6.80374066,11.961994 6.8952351,12 6.99096004,12 L11.6396437,12 C11.7353614,12 11.8268631,11.961994 11.8944285,11.8944286 C11.961994,11.8268632 12,11.7353688 12,11.6396439 L12,6.99096305 C12,6.89524538 11.961994,6.80374378 11.8944285,6.73617837 C11.8268631,6.66861295 11.7353686,6.63060695 11.6396437,6.63060695 L6.99096004,6.63060695 C6.79177707,6.63060695 6.63060373,6.7917784 6.63060373,6.99095584 L6.63060373,11.6396439 Z M7.35130194,7.35131194 L11.2792874,7.35131194 L11.2792874,11.279295 L7.35130194,11.279295 L7.35130194,7.35131194 Z" id="Shape"></path>
            </g>
        </g>
    </g>
</svg>