<?xml version="1.0" encoding="UTF-8"?>
<svg width="8px" height="8px" viewBox="0 0 8 8" version="1.1" xmlns="http://www.w3.org/2000/svg" xmlns:xlink="http://www.w3.org/1999/xlink">
    <title>Affiliate Fee Icon</title>
    <g id="Symbols" stroke="none" stroke-width="1" fill="none" fill-rule="evenodd" opacity="0.503565589">
        <g id="Affiliate-Event-Title-Style-1-EVENT-LIVE" transform="translate(-21.000000, -177.000000)" fill="#022F59" fill-rule="nonzero">
            <g id="Affiliate-Fee-Icon" transform="translate(21.000000, 177.000000)">
                <path d="M7.60976077,0.390233627 C7.36051167,0.139571569 7.02090471,-0.00105009834 6.66757308,5.90487728e-06 L1.33240944,5.90487728e-06 C0.979095811,5.90487728e-06 0.640199837,0.140633543 0.390221758,0.390233627 C0.140621669,0.640184703 0,0.97908967 0,1.3324213 L0,6.66758484 C0,7.02089846 0.140621669,7.35979443 0.390221758,7.60977251 C0.640172838,7.85937259 0.979077811,7.99999426 1.33240944,7.99999426 L6.66757308,7.99999426 C7.02088671,7.99999426 7.35978269,7.85937259 7.60976077,7.60977251 C7.85936086,7.35982143 7.99998841,7.02091646 7.99998841,6.66758484 L7.99998841,1.3324213 C8.00103721,0.979107669 7.86041383,0.639509719 7.60976077,0.390233627 Z M0.767492822,0.767450686 C0.916907284,0.616632261 1.12045546,0.532259261 1.33243644,0.532609162 L6.66760008,0.532609162 C6.87959006,0.532609162 7.08313824,0.616983253 7.23325468,0.766748703 C7.38302014,0.916865145 7.46739314,1.12041332 7.46739314,1.3324033 L7.46739314,2.13253833 L0.532606291,2.13253833 L0.532606291,1.3324033 C0.532255854,1.12041332 0.616628495,0.916865145 0.767447823,0.767459686 L0.767492822,0.767450686 Z M7.2325797,7.23253745 C7.08316524,7.38335587 6.87961706,7.46772887 6.66763608,7.46737897 L1.33247244,7.46737897 C0.890924899,7.46737897 0.532688384,7.10914137 0.532688384,6.66759384 L0.532688384,2.66763865 L7.46747523,2.66763865 L7.46747523,6.66759384 C7.46782567,6.87958381 7.38345303,7.08313199 7.2326337,7.23253745 L7.2325797,7.23253745 Z" id="Shape"></path>
                <polygon id="Path" points="1.33240944 1.06768357 1.86501683 1.06768357 1.86501683 1.60029095 1.33240944 1.60029095"></polygon>
                <polygon id="Path" points="2.40014415 1.06768357 2.93275154 1.06768357 2.93275154 1.60029095 2.40014415 1.60029095"></polygon>
                <path d="M4.20010152,4.8001651 L3.800034,4.8001651 C3.61581736,4.8001651 3.4664119,4.65075064 3.4664119,4.46619202 C3.4664119,4.28197538 3.61582636,4.13256992 3.800034,4.13256992 L4.79982032,4.13256992 L4.80017185,3.59996255 L4.26756446,3.59996255 L4.26756446,3.19989503 L3.73250014,3.19989503 L3.73250014,3.60769337 C3.52578403,3.62210742 3.33137964,3.71104692 3.1851331,3.85764444 C3.0248289,4.02111657 2.93518202,4.24083736 2.93518202,4.47005293 C2.93518202,4.9478156 3.32224485,5.33487843 3.80000754,5.33487843 L4.20007506,5.33487843 C4.3842917,5.33487843 4.53369716,5.48429289 4.53369716,5.66885151 C4.53369716,5.85306814 4.3842827,6.0024736 4.20007506,6.0024736 L3.20028874,6.0024736 L3.20028874,6.53508098 L3.73289613,6.53508098 L3.73289613,6.9351485 L4.26550351,6.9351485 L4.26515189,6.52735016 C4.72884791,6.4921952 5.08181055,6.09599039 5.06353198,5.6312414 C5.04560261,5.16613243 4.66276247,4.79911213 4.19765349,4.8001651 L4.20010152,4.8001651 Z" id="Path"></path>
            </g>
        </g>
    </g>
</svg>