<?xml version="1.0" encoding="UTF-8"?>
<svg width="70px" height="71px" viewBox="0 0 70 71" version="1.1" xmlns="http://www.w3.org/2000/svg" xmlns:xlink="http://www.w3.org/1999/xlink">
    <title>np_high-five_1154833_5E656F1x</title>
    <g id="Event-Creation" stroke="none" stroke-width="1" fill="none" fill-rule="evenodd">
        <g id="Affiliate-Admin-Dashboard-|-EVENTS-|-Congrats-on-publishing-screen" transform="translate(-621.000000, -136.000000)" fill-rule="nonzero">
            <g id="np_high-five_1154833_5E656F" transform="translate(621.000000, 136.000000)">
                <path d="M69.1012884,37.5933527 C67.7432911,35.8458622 65.3456971,35.4485608 62.7889028,36.4821801 C62.148921,36.7211808 61.1905067,37.1184821 60.0729082,37.5933527 L64.7088961,24.9607577 C65.1084951,23.8495852 65.0273286,22.657681 64.5496799,21.6240617 C64.0689143,20.5904424 63.1916826,19.7958396 62.0708873,19.3985383 C61.2716892,19.0819367 60.3912927,19.0819367 59.5920947,19.3178384 L60.1509099,17.7286328 C60.5505089,16.6174603 60.4693424,15.4255562 59.9916937,14.3919369 C59.5109281,13.3583176 58.6336964,12.5637148 57.5129011,12.1664134 C55.2745073,11.3718106 52.7989115,12.5637148 51.9997135,14.7085066 C51.5189479,14.0722046 50.8009164,13.5166024 50.0017184,13.2000327 C47.7633246,12.4054299 45.2877288,13.5973341 44.4073322,15.8228575 L43.6081342,18.048381 C43.1273686,17.412079 42.4093372,16.8564768 41.6101391,16.6174603 C39.3717453,15.8228575 36.8961495,17.0147617 36.015753,19.3178384 L33.4589587,26.4692634 L32.2601616,23.4491372 C31.8605626,22.3379646 30.9801661,21.4626302 29.9437661,20.9845972 C28.9041693,20.5065959 27.7865708,20.5065959 26.746974,20.9038973 C25.9477759,21.2204989 25.3077782,21.7792317 24.8301774,22.4123712 L23.9497809,20.2675794 C23.5501819,19.1564069 22.6697853,18.2810725 21.6333853,17.8030395 C20.5937885,17.3250382 19.47619,17.3250382 18.4365932,17.7223396 C17.6373952,18.0389411 16.9973974,18.597674 16.5197967,19.2308135 C16.0390311,18.1971942 15.2398011,17.4025914 14.2034011,16.9277368 C13.1638044,16.4497356 12.0462058,16.4497356 11.006609,16.847037 C8.84941374,17.7223714 7.72861843,20.2644646 8.60901498,22.489988 L9.24899677,24.0791936 C8.44979875,23.9208928 7.65060072,23.9208928 6.8514027,24.2374944 C4.69420739,25.1128288 3.57341208,27.654922 4.45380863,29.8804454 L10.1293933,44.1832954 L6.69220245,42.1160568 C5.73380418,41.4797548 4.61300887,41.1631692 3.57660888,41.3214541 C2.45901036,41.4797548 1.41941357,42.1160568 0.779415792,43.0689445 C-0.57858149,44.9747198 -0.100980751,47.6782763 1.73781406,49.109197 C2.44647893,49.8324126 11.718199,57.1418364 15.0748307,59.5256448 C17.5536233,61.2731352 20.5880183,62.2260228 23.6254503,62.2260228 C25.6234454,62.2260228 27.702639,61.8287215 29.700634,61.0341187 C32.8162276,59.7614829 35.4542205,57.6166911 37.2118168,54.7580281 C38.170215,55.3943301 39.2098118,55.8692006 40.3274103,56.266502 C42.1662051,56.902804 44.0830017,57.2193897 46.002995,57.2193897 C49.3589874,57.2193897 52.5557795,56.1857704 55.2752905,54.1992634 C58.6312828,51.7347235 67.8219003,44.1086028 68.3805397,43.6302519 C70.2193345,42.2024302 70.537735,39.4213204 69.101688,37.5930984 L69.1012884,37.5933527 Z M28.9008286,59.208932 C24.5052395,60.9564224 19.7915696,60.4815678 16.1136602,57.9362962 C12.8356696,55.5524879 3.24497366,47.922712 3.16745146,47.8456355 C2.12785467,47.0510327 1.8874559,45.5425588 2.60863621,44.4282079 C2.92706867,43.9502067 3.48903276,43.5528735 4.12583374,43.4753202 C4.76581554,43.3946204 5.32463078,43.5560201 5.80542831,43.8726216 C5.80542831,43.8726216 5.88659486,43.8726216 5.88659486,43.9533215 L11.88058,47.529034 C12.1990125,47.7680346 12.6797781,47.6873348 12.9981786,47.4483341 C13.316611,47.2093335 13.3977776,46.7344312 13.2385613,46.3371616 L6.44537813,29.3342514 C5.96461257,28.0616156 6.52654469,26.7114265 7.72537369,26.2365719 C8.20613925,26.0782712 8.76497048,26.0782712 9.32376974,26.3172718 C9.88258498,26.5562724 10.3633665,27.0311747 10.681767,27.5899076 L14.2781581,36.808889 C14.4373744,37.2061904 14.8369734,37.445191 15.1585547,37.445191 C15.2397212,37.445191 15.3989375,37.445191 15.4769871,37.3644912 C15.9577527,37.2061904 16.1950186,36.5698884 16.0358024,36.0918554 L12.5206098,27.1930989 L12.5206098,27.112399 C12.5206098,27.0316991 12.4394432,26.9540982 12.4394432,26.8733984 L10.5226467,21.9474968 C10.0418811,20.674861 10.6038132,19.324672 11.8026422,18.8498174 C12.3614575,18.6108167 13.0014393,18.6108167 13.5602385,18.8498174 C14.1190538,19.088818 14.5998353,19.5637203 14.8402341,20.2000064 L16.1202297,23.5367024 L20.27542,34.2638399 C20.4346362,34.6611413 20.8342353,34.9001419 21.1558166,34.9001419 C21.2369831,34.9001419 21.3961993,34.9001419 21.474249,34.819442 C21.9550146,34.6611413 22.1922805,34.0248393 22.0330643,33.5468062 L18.0370741,23.1359206 L17.9559076,22.89692 C17.475142,21.6242842 18.0370741,20.2740952 19.2359031,19.7992405 C19.7947184,19.5602399 20.4347002,19.5602399 20.9934994,19.7992405 C21.5523147,20.0382412 22.0330962,20.5131435 22.273495,21.1494296 L24.4306903,26.5533642 C24.4306903,26.634064 24.4306903,26.634064 24.5118569,26.7116649 L27.3902485,34.2603913 C27.5494647,34.7383925 28.1894465,34.9742942 28.670244,34.8159935 C29.1510096,34.6576927 29.3882755,34.0213907 29.2290593,33.5433576 L26.2726659,25.9946313 C25.7919004,24.7219955 26.3538325,23.3718064 27.5526615,22.8969518 C28.1114767,22.6579512 28.7514585,22.6579512 29.3102578,22.8969518 C29.869073,23.1359524 30.3498546,23.6108547 30.5902533,24.2471408 L36.9838375,40.7756732 C39.6093629,48.2436679 36.0940904,56.3482984 28.9015479,59.209663 L28.9008286,59.208932 Z M67.1032934,42.1249723 C67.0221268,42.2056721 57.3538767,50.1520495 54.0755664,52.6129343 C50.4791753,55.3133124 45.5249467,55.9496303 41.0478394,54.3604248 C40.0894411,54.0438232 39.1310429,53.565822 38.2506463,53.0102357 C38.3318129,52.851935 38.4098625,52.6936342 38.4910291,52.4546336 C40.1706237,48.5623513 40.3298239,44.1923539 38.8906281,40.1382905 L34.6542392,29.3301036 L37.9322298,20.0340457 C38.4129954,18.7614099 39.7710246,18.1282704 40.9698217,18.5255718 C41.5286369,18.7645724 42.0094185,19.1618738 42.327819,19.7174759 C42.5682017,20.2730781 42.6462514,20.9901117 42.4089855,21.545698 L39.5305939,29.6498517 C39.3713777,30.127853 39.6117605,30.683471 40.0894092,30.9224875 C40.1705757,30.9224875 40.3297919,31.0031874 40.4078416,31.0031874 C40.8074406,31.0031874 41.2070396,30.7641868 41.3662399,30.3668854 L44.2446315,22.2627316 C44.2446315,22.1820318 44.2446315,22.1820318 44.325798,22.1044309 L46.3237931,16.6229431 C46.8045587,15.3503073 48.1625879,14.7171678 49.361385,15.1144692 C49.9202002,15.3534698 50.4009817,15.7507712 50.7193822,16.3063733 C50.959765,16.8619755 51.0378147,17.5790091 50.8005488,18.2121486 L50.7193822,18.4511493 L46.7233921,29.9728895 C46.5641759,30.4508908 46.8045587,31.0065088 47.3633739,31.2455253 C47.4445405,31.2455253 47.6037567,31.3262252 47.6818064,31.3262252 C48.0814054,31.3262252 48.4810044,31.0872246 48.6402046,30.6899232 L52.795395,18.9290075 L53.994192,15.5923115 C54.4749576,14.3196757 55.8329869,13.6865362 57.0317839,14.0838376 C57.5905991,14.3228382 58.0713807,14.7201396 58.3897812,15.2757418 C58.630164,15.8313439 58.7082136,16.5483776 58.4709477,17.1039638 L56.7133514,21.8715805 C56.6321849,22.0298812 56.6321849,22.1105811 56.5541352,22.2688819 C56.5541352,22.3495817 56.5541352,22.4271826 56.4729686,22.4271826 L52.8765775,32.2786679 C52.7173613,32.7566691 52.9577441,33.3122872 53.4353928,33.5513037 C53.5165593,33.5513037 53.6757756,33.6320035 53.7538252,33.6320035 C54.1534243,33.6320035 54.5530233,33.3930029 54.7122235,32.9957015 L58.4678149,22.6658654 C59.0266301,21.5546929 60.3846114,20.918375 61.4242082,21.3156764 C61.9830234,21.554677 62.463805,21.9519784 62.7822055,22.5075805 C63.0225883,23.0631827 63.1006379,23.7802164 62.863372,24.3358026 L57.5873864,38.5576031 C56.7069898,38.8742047 55.9077918,39.1939051 55.5081928,39.3522059 C50.4726059,37.4464306 47.7566113,39.6688074 45.5182175,41.4194445 C45.1186185,41.736046 45.0374519,42.3723321 45.3590012,42.7696335 C45.6774337,43.1669349 46.3173995,43.2476348 46.7169985,42.9279343 C48.8741938,41.1804439 50.8721889,39.5105067 55.1085778,41.2579971 C55.3489606,41.3386969 55.5893433,41.3386969 55.8266093,41.2579971 C56.066992,41.1772972 61.5801957,39.0324736 63.500189,38.2378709 C64.5397858,37.8405695 66.4565823,37.2849832 67.4961791,38.7158721 C68.3796925,39.8177478 68.1392858,41.3294001 67.1028218,42.1240029 L67.1032934,42.1249723 Z" id="Shape" fill="#5E656F"></path>
                <path d="M12.5947913,10.0512971 L17.5491797,13.2297082 C17.708396,13.3104081 17.8676122,13.388009 18.107995,13.388009 C18.4264274,13.388009 18.7479768,13.2297082 18.907193,12.9100078 C19.2256255,12.4320065 19.0664092,11.8763885 18.5887605,11.5598187 L13.6343722,8.38140761 C13.1536066,8.06480608 12.5947754,8.22310684 12.2763749,8.69800914 C11.9579424,9.17911728 12.1171586,9.73472738 12.5948073,10.0512971 L12.5947913,10.0512971 Z" id="Path" fill="#26A1FF"></path>
                <path d="M24.2646809,9.25669435 C24.4238971,9.65399574 24.7454465,9.89299637 25.2230792,9.89299637 C25.3042457,9.89299637 25.4634619,9.89299637 25.5415116,9.81229651 C26.0222772,9.65399574 26.3407096,9.09839359 26.1814934,8.5396607 L23.4654989,0.677463521 C23.3062826,0.199462274 22.7474674,-0.117139256 22.1855033,0.0411615092 C21.7047377,0.199462274 21.3863053,0.755064428 21.5455215,1.31379732 L24.2646809,9.25669435 Z" id="Path" fill="#26A1FF"></path>
                <path d="M32.8968187,8.54314106 C32.9779853,8.62384092 33.1372015,8.62384092 33.2152512,8.62384092 C33.6148502,8.62384092 34.0144492,8.38484029 34.0956478,7.98753891 L36.0936428,2.50605111 C36.252859,2.02804986 36.0124763,1.47243182 35.5348276,1.2334153 C35.054062,1.07511453 34.4952308,1.31411516 34.254832,1.78901745 L32.256837,7.27050525 C32.0976207,7.82920636 32.4160532,8.38477673 32.8968187,8.54314106 L32.8968187,8.54314106 Z" id="Path" fill="#26A1FF"></path>
                <path d="M39.9305606,63.3707327 C39.449795,63.2124319 38.8909638,63.5290334 38.7317635,64.0070347 L37.052169,69.5692541 C36.8929527,70.0472554 37.2113852,70.6028734 37.6921507,70.7611583 C37.7733173,70.7611583 37.851367,70.8418582 38.0105832,70.8418582 C38.4101822,70.8418582 38.8097812,70.6028575 38.9689815,70.1279552 L40.648576,64.5657358 C40.7297426,64.0846277 40.4893598,63.5290176 39.9305446,63.3707327 L39.9305606,63.3707327 Z" id="Path" fill="#26A1FF"></path>
                <path d="M48.2406216,61.9396531 C48.0002388,61.4616518 47.4414236,61.2257502 46.9606261,61.3840509 C46.4798605,61.6230515 46.2425946,62.1786537 46.4018108,62.6566867 L49.5986029,70.363698 C49.7578191,70.7609994 50.1574182,71 50.4789995,71 C50.6382157,71 50.7193822,71 50.8785985,70.9193001 C51.359364,70.6802995 51.5966299,70.1246974 51.4374137,69.6466643 L48.2406216,61.9396531 Z" id="Path" fill="#26A1FF"></path>
                <path d="M59.9105112,60.0341956 L54.7969225,57.1723543 C54.316157,56.9333536 53.7573257,57.0916544 53.4389252,57.5696556 C53.1985425,58.0476569 53.3577587,58.6032749 53.8385242,58.9198447 L58.9521129,61.781686 C59.1113291,61.8623859 59.2705453,61.9399868 59.4328784,61.9399868 C59.7513109,61.9399868 60.0728602,61.781686 60.313275,61.4619856 C60.547416,60.9063834 60.3881998,60.350813 59.9105511,60.0341638 L59.9105112,60.0341956 Z" id="Path" fill="#26A1FF"></path>
            </g>
        </g>
    </g>
</svg>