<?xml version="1.0" encoding="UTF-8"?>
<svg width="45px" height="29px" viewBox="0 0 45 29" version="1.1" xmlns="http://www.w3.org/2000/svg" xmlns:xlink="http://www.w3.org/1999/xlink">
    <title>Shape</title>
    <g id="Approved-Screens" stroke="none" stroke-width="1" fill="none" fill-rule="evenodd">
        <g id="Affiliate-Admin-Dashboard-|-EVENTS-|-Create-New-3" transform="translate(-600.000000, -283.000000)" fill="#000000" fill-rule="nonzero">
            <g id="Accordion" transform="translate(313.000000, 104.000000)">
                <g id="drag-and-drop-rectangle" transform="translate(187.000000, 179.000000)">
                    <path d="M145,0.980322254 C145,0.438246662 144.554661,0 144.003874,0 L100.996095,0 C100.445298,0 100,0.438256503 100,0.980322254 L100,28.0216077 C100,28.0542853 100.005859,28.0850417 100.009765,28.1177159 C100.011719,28.1388601 100.013672,28.1600038 100.015625,28.1811499 C100.029297,28.2657287 100.052734,28.3445353 100.085935,28.4195038 C100.087888,28.4233484 100.087888,28.4252705 100.089841,28.4291151 C100.093747,28.4368033 100.101559,28.4444926 100.105466,28.4521808 C100.138669,28.517534 100.179686,28.5790441 100.224605,28.6347869 C100.238277,28.6501644 100.249996,28.6655419 100.263668,28.6809194 C100.320307,28.7405054 100.380857,28.7943292 100.449212,28.8385376 C100.458977,28.8443043 100.470696,28.8481485 100.480462,28.8539152 C100.542961,28.8904369 100.609366,28.9211924 100.679681,28.9442562 C100.699212,28.9519454 100.720696,28.9577116 100.740225,28.9634783 C100.822255,28.9846225 100.906239,29 100.994129,29 L144.003908,29 C144.095702,29 144.181642,28.9846225 144.265626,28.9615562 C144.285157,28.9557895 144.304689,28.9500229 144.326171,28.9442562 C144.406251,28.9173458 144.48242,28.8846702 144.55078,28.8385376 C144.552733,28.8366151 144.556639,28.8366151 144.558593,28.834693 C144.630857,28.7866384 144.691402,28.7289745 144.748047,28.6655404 C144.761719,28.6501629 144.77539,28.6347854 144.787109,28.6194079 C144.841799,28.5521307 144.888669,28.4790863 144.923828,28.3983556 L144.923828,28.3964331 C144.957031,28.3195455 144.974608,28.2368908 144.986328,28.150393 C144.990235,28.1273267 144.992188,28.106183 144.994141,28.0850398 C144.994141,28.0638956 145,28.0427514 145,28.0216057 L145,0.980322254 Z M143.009729,1.96064451 L143.009729,25.6459427 L135.222769,17.9261879 C134.836051,17.5436742 134.207174,17.5398262 133.816526,17.9204212 L128.486553,23.1064549 L116.264116,10.7793528 C116.068807,10.5832883 115.801229,10.4756458 115.52192,10.4852561 C115.242627,10.4929448 114.980923,10.6159624 114.799274,10.8235613 L101.99084,25.3915968 L101.99084,1.96021197 L143.009729,1.96064451 Z M103.173934,27.0414823 L115.59587,12.9113982 L127.761807,25.1789586 C127.947351,25.3654127 128.20126,25.4730552 128.464904,25.4749743 C128.748107,25.4653635 128.984451,25.375023 129.1739,25.192412 L134.509872,20.0004734 L141.613336,27.0416496 L103.173934,27.0414823 Z" id="Shape"></path>
                </g>
            </g>
        </g>
    </g>
</svg>