<?xml version="1.0" encoding="UTF-8"?>
<svg width="9px" height="8px" viewBox="0 0 9 8" version="1.1" xmlns="http://www.w3.org/2000/svg" xmlns:xlink="http://www.w3.org/1999/xlink">
    <title>search icon</title>
    <g id="Approved-Screens" stroke="none" stroke-width="1" fill="none" fill-rule="evenodd">
        <g id="Affiliate-Admin-Dashboard-|-EVENTS-|-Grid-2" transform="translate(-981.000000, -243.000000)" fill="#FFFFFF" fill-rule="nonzero">
            <g id="search-and-filter" transform="translate(787.244525, 236.000000)">
                <g id="button" transform="translate(181.000000, 1.000000)">
                    <g id="np_search_1157129_FFFFFF" transform="translate(13.000000, 6.000000)">
                        <path d="M7.85188427,7.17978805 L6.32137216,5.72715673 C6.89224219,5.12007615 7.24656279,4.31588146 7.24656279,3.43796797 C7.24656279,1.54231815 5.62075579,0 3.62345435,0 C1.62572053,0 0,1.54240021 0,3.43796797 C0,5.33353574 1.62580701,6.87593595 3.62310845,6.87593595 C4.33213014,6.87593595 4.98949196,6.67913366 5.54275579,6.35091102 L7.13371357,7.86057103 C7.22897388,7.95096354 7.35868562,8 7.48839737,8 C7.61810911,8 7.74782086,7.9506386 7.84308116,7.86057103 C8.05081885,7.67209738 8.05081885,7.36823708 7.85186351,7.17976343 L7.85188427,7.17978805 Z M1.01157866,3.43788592 C1.01157866,2.07559788 2.17898436,0.959887091 3.62302197,0.959887091 C5.06740549,0.959887091 6.22607726,2.07567993 6.22607726,3.43788592 C6.22607726,4.8000919 5.05867156,5.91588474 3.62336787,5.91588474 C2.18771828,5.91588474 1.01157866,4.80813336 1.01157866,3.43788592 Z" id="Shape"></path>
                    </g>
                </g>
            </g>
        </g>
    </g>
</svg>