<?xml version="1.0" encoding="UTF-8"?>
<svg width="24px" height="76px" viewBox="0 0 24 76" version="1.1" xmlns="http://www.w3.org/2000/svg" xmlns:xlink="http://www.w3.org/1999/xlink">
    <title>TagX_logo_white</title>
    <g id="Symbols" stroke="none" stroke-width="1" fill="none" fill-rule="evenodd">
        <g id="Player-Navigation" transform="translate(-26.000000, -608.000000)" fill="#9CA5B4" fill-rule="nonzero">
            <g id="TagX_logo_white" transform="translate(38.000000, 646.000000) rotate(-270.000000) translate(-38.000000, -646.000000) translate(0.500000, 634.500000)">
                <polygon id="Fill-1" points="0 6 0 8.94525989 7.01522369 8.94525989 7.01522369 19 10.431615 19 10.431615 8.94525989 15.7877196 8.94525989 18 6"></polygon>
                <polygon id="Fill-2" points="47.0990063 16.0910216 50.3290394 16.0872783 51.2366581 14.8893976 51.2366581 13.7761173 45.4755244 13.7761173 47.5403018 11.253081 54.666912 11.253081 54.666912 16.0535879 52.4291498 19 41.6805301 18.9932619 39 15.4445404 39 13.3355218 39 11.2822794 39 10.5440855 39 9.54909582 41.687155 6 41.76371 6 42.979021 6 55 6 52.7684946 8.94678645 43.1214575 8.94603778 42.3680531 9.94140174 42.36106 15.0522345 43.0824439 16.0535879"></polygon>
                <path d="M22.9339302,11.7576373 L22.9339302,9.44143561 L23.7029894,8.44578331 L25.7853421,8.44615761 L25.7857174,8.44653191 L26.5209966,8.44653191 L26.987912,8.44653191 L26.9886627,8.44653191 L32.2962599,8.44578331 L33.0656945,9.44143561 L33.0656945,11.7576373 L22.9339302,11.7576373 Z M33.7593116,5.5003743 C33.7326629,5.5003743 33.7086415,5.5 33.6816175,5.5 L32.4418895,5.5 L30.6035038,5.5 L25.3964961,5.5 L23.5577352,5.5 L22.3180072,5.5 C22.2909832,5.5 22.2669618,5.5003743 22.2399377,5.5003743 L19.5,9.04916357 L19.5,18.5 L22.9339302,18.5 L22.9339302,14.7034206 L33.0656945,14.7034206 L33.0656945,18.4925139 L36.5,18.4925139 L36.5,9.04916357 L33.7593116,5.5003743 Z" id="Fill-3"></path>
                <g id="Group-11" transform="translate(57.000000, 0.000000)">
                    <polygon id="Fill-5" points="18 5.08998851 10.8099978 5.08998851 8.77998746 7.39026894 6.24311676 2.46536632 8.68749737 8.89906693 11.2063838 6.04862319 15.7262857 6.04862319 10.3835157 11.7934205 15.1805208 23 11.6394722 11.9292086"></polygon>
                    <polygon id="Fill-7" points="5.73695384 11.6146819 1.13190243 0 4.4802633 11.6146819 0 17.784186"></polygon>
                    <polygon id="Fill-9" points="7.47099598 14.4648305 4.51902104 17.7842599 7.17774372 15.8629316 10.0251167 21.2431672"></polygon>
                </g>
            </g>
        </g>
    </g>
</svg>