<?xml version="1.0" standalone="no"?>
<!DOCTYPE svg PUBLIC "-//W3C//DTD SVG 20010904//EN"
 "http://www.w3.org/TR/2001/REC-SVG-20010904/DTD/svg10.dtd">
<svg version="1.0" xmlns="http://www.w3.org/2000/svg"
 width="167.000000pt" height="204.000000pt" viewBox="0 0 167.000000 204.000000"
 preserveAspectRatio="xMidYMid meet">
<metadata>
Created by potrace 1.10, written by Peter Selinger 2001-2011
</metadata>
<g transform="translate(0.000000,204.000000) scale(0.100000,-0.100000)"
fill="#000000" stroke="none">
<path d="M145 1990 c3 -5 11 -10 16 -10 6 0 7 5 4 10 -3 6 -11 10 -16 10 -6 0
-7 -4 -4 -10z"/>
<path d="M182 1883 c24 -74 141 -465 153 -513 2 -8 4 -15 5 -15 1 0 3 -7 5
-15 2 -8 24 -84 49 -169 25 -85 42 -160 38 -166 -7 -13 -173 -235 -299 -402
-79 -103 -94 -132 -36 -68 19 22 128 138 242 259 113 120 205 224 203 230 -4
16 -221 562 -244 616 -29 66 -35 80 -57 135 -30 77 -52 139 -52 150 -1 16 -19
45 -28 45 -5 0 4 -39 21 -87z m142 -357 c20 -50 36 -96 36 -103 0 -8 6 -24 14
-36 7 -12 30 -65 51 -117 21 -52 43 -108 50 -125 34 -80 45 -108 45 -119 0 -7
-16 -30 -36 -52 -75 -81 -204 -214 -204 -209 0 2 40 59 89 125 l89 121 -13 47
c-19 71 -153 525 -161 548 -4 10 -5 17 -2 14 4 -3 22 -45 42 -94z"/>
<path d="M593 1788 c3 -7 26 -65 52 -128 25 -63 52 -128 59 -145 7 -16 23 -57
36 -90 12 -33 26 -69 30 -80 5 -11 14 -37 20 -57 10 -33 30 -53 30 -30 0 4 46
58 103 120 l102 113 198 2 c108 1 197 1 197 -1 0 -2 -11 -13 -24 -25 -13 -12
-99 -103 -192 -202 -92 -99 -186 -199 -208 -222 l-39 -42 35 -83 c20 -46 101
-234 180 -418 79 -184 152 -356 162 -383 10 -26 22 -47 28 -47 6 0 7 7 3 18
-5 9 -43 120 -85 245 -81 237 -80 236 -86 252 -2 6 -31 94 -64 198 -32 103
-61 191 -64 196 -3 4 21 35 52 68 31 33 135 143 231 244 96 101 196 207 223
234 l47 50 -316 -2 -316 -3 -56 -62 c-31 -35 -69 -78 -86 -96 l-30 -32 -68
127 c-38 71 -68 132 -67 137 1 5 -2 12 -7 15 -5 3 -23 36 -41 74 -17 37 -34
67 -38 67 -3 0 -4 -6 -1 -12z m950 -263 c-26 -31 -262 -281 -410 -435 -46 -47
-83 -92 -83 -100 0 -8 11 -51 25 -94 14 -43 25 -87 25 -97 0 -9 3 -19 8 -21 4
-1 33 -81 64 -177 62 -189 63 -211 3 -61 -21 52 -51 124 -67 160 -59 128 -67
146 -97 219 l-31 73 26 32 c15 17 102 110 194 206 215 226 233 247 226 265 -6
17 -12 17 -246 16 l-165 -1 -35 -39 c-19 -21 -64 -71 -99 -111 -63 -71 -65
-72 -75 -49 -13 32 -48 112 -53 122 -2 4 -2 7 0 7 3 0 14 -16 26 -35 26 -45
49 -44 88 3 56 66 128 139 143 145 8 3 137 5 287 4 l271 -1 -25 -31z"/>
<path d="M610 669 c-52 -57 -113 -121 -135 -143 -60 -57 -23 -38 92 48 56 42
104 76 107 76 3 0 20 -30 39 -67 19 -38 68 -131 109 -208 40 -77 79 -151 85
-165 7 -14 12 -18 12 -10 0 8 -8 34 -19 57 -10 23 -35 84 -55 135 -20 51 -40
101 -45 110 -6 10 -10 23 -10 30 0 7 -6 24 -13 38 -8 14 -16 34 -20 45 -3 11
-17 51 -29 89 l-24 68 -94 -103z m137 -77 c14 -35 23 -65 21 -67 -2 -2 -19 26
-38 63 -20 37 -43 68 -52 70 -10 2 -31 -6 -48 -18 -16 -12 -30 -19 -30 -16 0
7 45 59 75 88 19 18 19 18 33 -19 8 -21 26 -66 39 -101z"/>
</g>
</svg>
