<?xml version="1.0" encoding="UTF-8"?>
<svg width="32px" height="23px" viewBox="0 0 32 23" version="1.1" xmlns="http://www.w3.org/2000/svg" xmlns:xlink="http://www.w3.org/1999/xlink">
    <title>np_profit_2104843_FFFFFF</title>
    <g id="Approved-Screens" stroke="none" stroke-width="1" fill="none" fill-rule="evenodd">
        <g id="Affiliate-Admin-Dashboard-|-Budget-Calculator-1" transform="translate(-208.000000, -120.000000)" fill="#FFFFFF" fill-rule="nonzero">
            <g id="Total-Income" transform="translate(176.000000, 106.000000)">
                <g id="np_profit_2104843_FFFFFF" transform="translate(32.000000, 14.000000)">
                    <path d="M31.9201523,0.750373905 C31.9058661,0.712999706 31.888722,0.678499595 31.8701494,0.641125396 C31.8258629,0.55199919 31.7715737,0.472937817 31.7058553,0.399624623 C31.6815685,0.372311943 31.6615688,0.342124439 31.6344242,0.316250276 C31.5415611,0.228562955 31.4372726,0.150936787 31.317265,0.0991884614 C31.3144079,0.0977510488 31.3115508,0.0977510488 31.3086933,0.0963136362 C31.2944068,0.0891262052 31.2772634,0.0891262052 31.2629768,0.0833758188 C31.1443992,0.035936787 31.0243952,0.014375598 30.9015312,0.0100626242 C30.8858161,0.0086252116 30.8729584,0 30.8572447,0 L26.2855945,0 C25.6541216,0 25.1426819,0.514612847 25.1426819,1.15000368 C25.1426819,1.78539451 25.6541216,2.30000736 26.2855945,2.30000736 L27.9170885,2.30000736 L25.2440994,4.76388564 C23.1639986,1.88313563 19.7994469,0 15.9994912,0 C9.6979286,0 4.57036572,5.15948691 4.57036572,11.5001472 C4.57036572,13.1848934 4.9403768,14.7805465 5.59042889,16.2223383 L0.372895938,20.9989936 C-0.092827212,21.4259486 -0.127132875,22.1533029 0.297178439,22.6233876 C0.52147457,22.8735143 0.831476342,23 1.14150737,23 C1.41580639,23 1.69153175,22.9008126 1.91012978,22.6995602 L6.76887962,18.2518979 C8.84755411,21.1226015 12.2076804,23 15.9992243,23 C22.3007869,23 27.4283498,17.8404726 27.4283498,11.4998123 C27.4283498,9.82367736 27.0626178,8.23667228 26.419734,6.79933328 L29.7141749,3.76188836 L29.7141749,5.7140242 C29.7141749,6.34941504 30.2256145,6.86402788 30.8570874,6.86402788 C31.4885603,6.86402788 32,6.34941504 32,5.7140242 L32,1.1500736 C32,1.00919907 31.9671412,0.876946806 31.9199961,0.750461121 L31.9201523,0.750373905 Z M6.85617144,11.5000563 C6.85617144,6.42716007 10.957856,2.30002686 15.9994719,2.30002686 C19.133905,2.30002686 21.9042153,3.89707837 23.5511065,6.32227974 L16.0064208,13.27419 L13.2248459,10.6607928 C12.7891128,10.2510971 12.1147761,10.2496619 11.6761903,10.6507302 L7.39163969,14.5736227 C7.05162229,13.6104901 6.85591543,12.5783572 6.85591543,11.5002241 L6.85617144,11.5000563 Z M25.1427723,11.5000563 C25.1427723,16.5729525 21.0410877,20.7000857 15.9994719,20.7000857 C12.8764496,20.7000857 10.1148437,19.1130807 8.46466085,16.6995449 L12.4361448,13.0640981 L15.2205724,15.6803657 C15.6577319,16.0914966 16.3320686,16.0914966 16.7720807,15.6889905 L24.6181297,8.45850339 C24.9510044,9.41302484 25.1424431,10.4336393 25.1424431,11.5002539 L25.1427723,11.5000563 Z" id="Shape"></path>
                </g>
            </g>
        </g>
    </g>
</svg>