<?xml version="1.0" standalone="no"?>
<!DOCTYPE svg PUBLIC "-//W3C//DTD SVG 20010904//EN"
 "http://www.w3.org/TR/2001/REC-SVG-20010904/DTD/svg10.dtd">
<svg version="1.0" xmlns="http://www.w3.org/2000/svg"
 width="192.000000pt" height="192.000000pt" viewBox="0 0 192.000000 192.000000"
 preserveAspectRatio="xMidYMid meet">
<metadata>
Created by potrace 1.14, written by Peter Selinger 2001-2017
</metadata>
<g transform="translate(0.000000,192.000000) scale(0.100000,-0.100000)"
fill="#000000" stroke="none">
<path d="M820 1743 c-56 -9 -139 -37 -195 -65 -56 -28 -68 -30 -165 -29 -86 1
-111 -3 -140 -19 l-35 -19 135 -1 135 0 79 40 c112 56 201 74 339 67 129 -5
206 -27 309 -88 92 -54 169 -128 229 -218 l50 -76 -73 -68 c-40 -37 -89 -81
-109 -97 l-37 -30 -28 80 -29 80 -218 0 c-204 0 -219 -1 -214 -17 2 -10 43
-116 91 -236 l85 -217 -116 -163 c-64 -89 -127 -178 -141 -197 -26 -35 -26
-35 15 5 22 22 106 111 187 197 l147 157 -81 200 c-44 111 -80 203 -80 206 0
3 65 5 144 5 105 0 147 -3 153 -12 4 -7 24 -55 44 -106 l36 -93 109 122 c60
67 112 127 117 133 11 16 24 -10 39 -73 8 -39 14 -49 19 -35 6 20 11 -2 24
-111 l6 -50 -91 -97 c-49 -53 -90 -101 -90 -106 0 -6 14 -41 31 -78 16 -38 28
-77 25 -89 -3 -11 -29 -47 -58 -80 -29 -33 -42 -52 -30 -41 15 13 37 18 78 18
71 1 86 -17 53 -63 -23 -33 -129 -123 -177 -152 -30 -17 -31 -17 -37 5 -4 13
-30 81 -58 152 l-51 129 -78 -84 c-107 -115 -113 -130 -23 -63 42 31 80 52 85
48 12 -13 110 -204 110 -214 0 -12 -139 -68 -217 -86 -101 -24 -286 -21 -388
5 -160 42 -305 129 -414 247 -33 37 -61 70 -61 73 0 8 146 5 159 -4 22 -13 10
8 -28 51 -49 56 -103 159 -132 254 -20 62 -23 95 -22 190 0 63 6 129 12 145 9
27 10 25 6 -20 -4 -44 -3 -40 15 28 11 43 25 87 31 98 9 19 9 19 -10 10 -11
-6 -53 -11 -94 -11 l-75 0 -17 -96 c-17 -92 -17 -251 0 -324 5 -21 4 -22 -4
-5 -18 38 -12 -9 10 -81 96 -311 365 -542 693 -595 93 -14 267 -7 350 16 33 8
87 27 120 41 91 38 93 38 101 14 4 -12 9 -19 12 -17 2 3 0 14 -6 26 -10 18 -5
24 48 60 33 23 87 66 119 96 33 30 61 55 64 55 2 0 37 -79 78 -175 41 -96 75
-173 76 -172 2 1 -26 92 -61 200 l-64 198 39 60 c46 72 97 199 105 260 4 36 3
39 -5 19 -8 -20 -8 -17 -3 15 4 22 7 90 8 150 1 69 7 120 15 135 12 23 12 24
-3 12 -14 -12 -17 -10 -22 15 -16 68 -38 139 -60 188 l-23 53 46 53 c37 44 39
48 11 23 -68 -60 -64 -60 -100 -7 -65 98 -67 99 -161 93 -81 -5 -84 -4 -129
28 -71 49 -185 98 -271 116 -71 15 -207 19 -268 9z m809 -865 c-13 -60 -42
-138 -50 -138 -4 0 -13 16 -19 35 -11 32 -9 37 31 90 23 30 43 55 44 55 2 0
-1 -19 -6 -42z"/>
<path d="M138 1369 c-42 -24 -11 -29 183 -29 189 0 239 6 239 30 0 12 -401 12
-422 -1z"/>
<path d="M762 1363 c-2 -8 -31 -13 -94 -15 l-93 -3 -3 -77 c-3 -71 -13 -97
-25 -65 -3 6 -5 -49 -5 -123 0 -74 2 -129 5 -122 13 32 23 -7 23 -89 l0 -89
99 0 99 0 7 38 c8 35 8 36 15 12 5 -14 8 58 7 160 0 102 -3 169 -6 150 -3 -22
-9 14 -16 100 -7 74 -13 130 -13 123z"/>
<path d="M800 1355 c10 -12 41 -15 161 -15 126 0 149 2 149 15 0 13 -25 15
-161 15 -142 0 -160 -2 -149 -15z"/>
<path d="M1621 1124 c0 -11 3 -14 6 -6 3 7 2 16 -1 19 -3 4 -6 -2 -5 -13z"/>
<path d="M82 900 c0 -14 2 -19 5 -12 2 6 2 18 0 25 -3 6 -5 1 -5 -13z"/>
<path d="M1791 904 c0 -11 3 -14 6 -6 3 7 2 16 -1 19 -3 4 -6 -2 -5 -13z"/>
<path d="M547 763 c-3 -5 53 -50 124 -100 103 -74 126 -87 116 -66 -12 27
-201 173 -223 173 -7 0 -15 -3 -17 -7z"/>
</g>
</svg>
