<?xml version="1.0" encoding="UTF-8"?>
<svg width="12px" height="16px" viewBox="0 0 12 16" version="1.1" xmlns="http://www.w3.org/2000/svg" xmlns:xlink="http://www.w3.org/1999/xlink">
    <title>accounts icon - dark</title>
    <g id="Symbols" stroke="none" stroke-width="1" fill="none" fill-rule="evenodd">
        <g id="Admin-Navigation" transform="translate(-33.000000, -168.000000)" fill="#26A1FF" fill-rule="nonzero">
            <g id="accounts-icon---dark" transform="translate(33.000000, 168.000000)">
                <path d="M8.15401789,7.51855947 L2.93567711,7.51855947 C2.5759091,7.51855947 2.28305377,7.8114148 2.28305377,8.17118281 L2.28305377,15.3473767 C2.28305377,15.7071447 2.5759091,16 2.93567711,16 L8.15469634,16 C8.51446435,16 8.80731969,15.7071447 8.80731969,15.3473767 L8.80731969,8.17118281 C8.80665718,7.81075331 8.51380286,7.51855947 8.15403485,7.51855947 L8.15401789,7.51855947 Z M4.14553295,14.5999392 C4.08325243,14.6615565 3.99844549,14.6973348 3.91363685,14.6973348 C3.82882821,14.6973348 3.74402297,14.6615565 3.68174075,14.5992777 C3.62343597,14.5409729 3.58765762,14.4561659 3.58765762,14.368043 C3.58765762,14.2832361 3.62343597,14.1984292 3.68240224,14.1394544 C3.8063001,14.0155566 4.02493748,14.0188691 4.14553295,14.1394544 C4.20383773,14.1984224 4.24027757,14.2832293 4.24027757,14.368043 C4.24027757,14.4561625 4.20383773,14.5409644 4.14553295,14.5999392 L4.14553295,14.5999392 Z M4.14553295,13.2947094 C4.08325243,13.3569899 3.99844549,13.3927666 3.91363685,13.3927666 C3.82882821,13.3927666 3.74402297,13.3569883 3.68174075,13.2947094 C3.62343597,13.2364047 3.58765762,13.1509345 3.58765762,13.0634748 C3.58765762,12.9786679 3.62343597,12.8938609 3.68240224,12.8348862 C3.8063001,12.7143009 4.02163001,12.7143009 4.14553295,12.8348862 C4.20383773,12.8938541 4.24027757,12.9786611 4.24027757,13.0634748 C4.24027757,13.1509311 4.20383773,13.2330887 4.14553295,13.2947094 L4.14553295,13.2947094 Z M4.14553295,11.9901412 C4.08325243,12.0524217 3.99844549,12.0881984 3.91363685,12.0881984 C3.82882821,12.0881984 3.74402297,12.05242 3.68174075,11.9901412 C3.62343597,11.9318364 3.58765762,11.8463663 3.58765762,11.7589066 C3.58765762,11.6740996 3.62343597,11.5892927 3.68240224,11.530318 C3.80298754,11.4097327 4.02493748,11.4097327 4.14553295,11.530318 C4.20383773,11.5892859 4.24027757,11.6740929 4.24027757,11.7589066 C4.24027757,11.8463646 4.20383773,11.9278573 4.14553295,11.9901412 L4.14553295,11.9901412 Z M5.7767436,14.59999 C5.71446308,14.6616074 5.62965614,14.6973857 5.5448475,14.6973857 C5.46003886,14.6973857 5.37523362,14.6616074 5.3129514,14.5993285 C5.25464663,14.5377112 5.21886827,14.4562168 5.21886827,14.3680939 C5.21886827,14.283287 5.25464663,14.19848 5.31361289,14.1395053 C5.43751075,14.01892 5.65284066,14.01892 5.7767436,14.1395053 C5.83504838,14.1984733 5.87082673,14.2832802 5.87082673,14.3680939 C5.87082673,14.4562134 5.83504838,14.5377078 5.7767436,14.59999 L5.7767436,14.59999 Z M5.7767436,13.2947603 C5.71446308,13.3570408 5.62965614,13.3928175 5.5448475,13.3928175 C5.46003886,13.3928175 5.37523362,13.3570391 5.3129514,13.2947603 C5.25464663,13.233143 5.21886827,13.1509854 5.21886827,13.0635257 C5.21886827,12.9787188 5.25464663,12.8939118 5.31361289,12.8349371 C5.43419819,12.7143518 5.65614813,12.7143518 5.7767436,12.8349371 C5.83504838,12.893905 5.87082673,12.978712 5.87082673,13.0635257 C5.87082673,13.150982 5.83504838,13.2364471 5.7767436,13.2947603 L5.7767436,13.2947603 Z M5.7767436,11.9901921 C5.71446308,12.0524726 5.62965614,12.0882493 5.5448475,12.0882493 C5.46003886,12.0882493 5.37523362,12.0524709 5.3129514,11.9901921 C5.25464663,11.9318873 5.21886827,11.8464172 5.21886827,11.7589575 C5.21886827,11.6741505 5.25464663,11.5893436 5.31361289,11.5303688 C5.43419819,11.4097835 5.65614813,11.4097835 5.7767436,11.5303688 C5.83504838,11.5893368 5.87082673,11.6741437 5.87082673,11.7589575 C5.87082673,11.8464155 5.83504838,11.9318788 5.7767436,11.9901921 L5.7767436,11.9901921 Z M7.40729276,14.6000409 C7.34567543,14.6616583 7.2602053,14.6974366 7.17605815,14.6974366 C7.09125121,14.6974366 7.00644427,14.6616583 6.94416205,14.5993794 C6.88519409,14.5377621 6.84941743,14.4562677 6.84941743,14.3681448 C6.84941743,14.2833379 6.88519578,14.1985309 6.94416205,14.1395562 C7.0680599,14.0189709 7.28338982,14.0189709 7.40729276,14.1395562 C7.46626072,14.1985241 7.50203738,14.2833311 7.50203738,14.3681448 C7.50203738,14.4562643 7.46625903,14.5377587 7.40729276,14.6000409 Z M7.40729276,13.2948112 C7.34567543,13.3570917 7.2602053,13.3928684 7.17605815,13.3928684 C7.09125121,13.3928684 7.00644427,13.35709 6.94416205,13.2948112 C6.88519409,13.2331939 6.84941743,13.1510363 6.84941743,13.0635766 C6.84941743,12.9787696 6.88519578,12.8939627 6.94416205,12.834988 C7.06474734,12.7144027 7.28669729,12.7144027 7.40729276,12.834988 C7.46626072,12.8939559 7.50203738,12.9787629 7.50203738,13.0635766 C7.50203738,13.1510329 7.46625903,13.2331905 7.40729276,13.2948112 Z M7.40729276,11.990243 C7.34567543,12.0525235 7.2602053,12.0883001 7.17605815,12.0883001 C7.09125121,12.0883001 7.00644427,12.0525218 6.94416205,11.990243 C6.88519409,11.9319382 6.84941743,11.8464681 6.84941743,11.7590084 C6.84941743,11.6742014 6.88519578,11.5893945 6.94416205,11.5304197 C7.0680599,11.4098344 7.28669729,11.4098344 7.40729276,11.5304197 C7.46626072,11.5893877 7.50203738,11.6741946 7.50203738,11.7590084 C7.50203738,11.8464664 7.46625903,11.9319297 7.40729276,11.990243 Z M7.50203738,10.781744 L3.58768815,10.781744 L3.58768815,8.82456942 L7.50203738,8.82456942 L7.50203738,10.781744 Z" id="Shape"></path>
                <path d="M8.48069423,3.60556715 C7.94137296,3.60556715 7.50210692,3.16696261 7.50210692,2.62697984 L7.50210692,0 L0.978587307,0 C0.439266038,0 0,0.438604544 0,0.978587307 L0,12.7209565 C0,13.2602778 0.438604544,13.6995438 0.978587307,13.6995438 L1.63121065,13.6995438 L1.63054814,8.17047043 C1.63054814,7.45093441 2.21558035,6.8659022 2.93511637,6.8659022 L8.1541356,6.8659022 C8.87367162,6.8659022 9.45870383,7.45093441 9.45870383,8.17047043 L9.45870383,13.6995438 L10.1113272,13.6995438 C10.6506484,13.6995438 11.0899145,13.2609393 11.0899145,12.7209565 L11.0899145,3.60556715 L8.48069423,3.60556715 Z M8.1553748,6.19947229 L2.93635557,6.21537359 L2.93569306,6.21537359 C2.7561398,6.21537359 2.60970988,6.070274 2.60970988,5.89005416 C2.60904962,5.70983941 2.75481172,5.56341174 2.93503156,5.56275025 L8.15405079,5.54684895 L8.15471347,5.54684895 C8.33426673,5.54684895 8.4806944,5.69194853 8.4806944,5.87216838 C8.4806944,6.05238822 8.33559481,6.19881079 8.15537497,6.19947229 L8.1553748,6.19947229 Z M8.1553748,4.56826164 L2.93635557,4.58416294 L2.93569306,4.58416294 C2.7561398,4.58416294 2.60970988,4.43906335 2.60970988,4.25884351 C2.60904962,4.07862876 2.75481172,3.93220109 2.93503156,3.9315396 L8.15405079,3.91563829 L8.15471347,3.91563829 C8.33426673,3.91563829 8.4806944,4.06073788 8.4806944,4.24095772 C8.4806944,4.42117757 8.33559481,4.56760014 8.15537497,4.56826164 L8.1553748,4.56826164 Z" id="Shape"></path>
                <path d="M8.48069423,2.95357138 L10.7857469,2.95357138 L8.15401789,0.00856550117 L8.15401789,2.62757349 C8.15401789,2.80712675 8.30044216,2.95357138 8.48066031,2.95357138 L8.48069423,2.95357138 Z" id="Path"></path>
            </g>
        </g>
    </g>
</svg>