<?xml version="1.0" encoding="UTF-8"?>
<svg width="16px" height="17px" viewBox="0 0 16 17" version="1.1" xmlns="http://www.w3.org/2000/svg" xmlns:xlink="http://www.w3.org/1999/xlink">
    <title>calculator</title>
    <g id="Approved-Screens" stroke="none" stroke-width="1" fill="none" fill-rule="evenodd">
        <g id="Affiliate-Admin-Dashboard-|-Budget-Calculator-1" transform="translate(-183.000000, -70.000000)" fill="#26A1FF" fill-rule="nonzero">
            <g id="HUD-Upper-window" transform="translate(183.111111, 66.000000)">
                <g id="calculator" transform="translate(0.000000, 4.000000)">
                    <path d="M12.9545455,0 L2.04545455,0 C0.916189091,0 0,0.878601846 0,1.96153846 L0,15.0384615 C0,16.1213982 0.916189091,17 2.04545455,17 L12.9545455,17 C14.0838109,17 15,16.1213982 15,15.0384615 L15,1.96153846 C15,0.878601846 14.0838109,0 12.9545455,0 Z M13.6363636,15.0384615 C13.6363636,15.2117297 13.5647738,15.3784615 13.4369324,15.5010498 C13.3090909,15.6236465 13.1352305,15.6922993 12.9545542,15.6922993 L2.04546327,15.6922993 C1.66875055,15.6922993 1.36364509,15.399711 1.36364509,15.0384532 L1.36364509,1.96153009 C1.36364509,1.60027225 1.66875055,1.30768394 2.04546327,1.30768394 L12.9545542,1.30768394 C13.1352349,1.30768394 13.3090996,1.37633674 13.4369324,1.49893342 C13.5647738,1.62153009 13.6363636,1.78825772 13.6363636,1.96152172 L13.6363636,15.0384615 Z M11.5909091,2.61538462 L3.40909091,2.61538462 C3.03237818,2.61538462 2.72727273,2.90797292 2.72727273,3.26923077 L2.72727273,5.88461538 C2.72727273,6.05788357 2.79886255,6.22461538 2.926704,6.34720369 C3.05454545,6.46980037 3.22840582,6.53845317 3.40908218,6.53845317 L11.5909004,6.53845317 C11.7715811,6.53845317 11.9454458,6.46980037 12.0732785,6.34720369 C12.20112,6.22460702 12.2727098,6.05787938 12.2727098,5.88461538 L12.2727098,3.26923077 C12.2727098,3.09596258 12.20112,2.92923077 12.0732785,2.80664246 C11.9454371,2.68404578 11.7715767,2.61538462 11.5909004,2.61538462 L11.5909091,2.61538462 Z M10.9090909,5.23076923 L4.09090909,5.23076923 L4.09090909,3.92307692 L10.9090909,3.92307692 L10.9090909,5.23076923 Z M5.45454545,8.5 C5.45454545,8.67326818 5.38295564,8.84 5.25511418,8.96258831 C5.12727273,9.08518498 4.95341236,9.15383778 4.772736,9.15383778 L3.40909964,9.15383778 C3.03238691,9.15383778 2.72728145,8.86124948 2.72728145,8.49999163 C2.72728145,8.13873378 3.03238691,7.84614548 3.40909964,7.84614548 L4.772736,7.84614548 C4.95341673,7.84614548 5.12728145,7.91479828 5.25511418,8.03739495 C5.38295564,8.15999163 5.45454545,8.32671926 5.45454545,8.49998326 L5.45454545,8.5 Z M8.86363636,8.5 C8.86363636,8.67326818 8.79204655,8.84 8.66420509,8.96258831 C8.53636364,9.08518498 8.36250327,9.15383778 8.18182691,9.15383778 L6.81819055,9.15383778 C6.44147782,9.15383778 6.13637236,8.86124948 6.13637236,8.49999163 C6.13637236,8.13873378 6.44147782,7.84614548 6.81819055,7.84614548 L8.18182691,7.84614548 C8.36250764,7.84614548 8.53637236,7.91479828 8.66420509,8.03739495 C8.79204655,8.15999163 8.86363636,8.32671926 8.86363636,8.49998326 L8.86363636,8.5 Z M12.2727273,8.5 C12.2727273,8.67326818 12.2011375,8.84 12.073296,8.96258831 C11.9454545,9.08518498 11.7715942,9.15383778 11.5909178,9.15383778 L10.2272815,9.15383778 C9.85056873,9.15383778 9.54546327,8.86124948 9.54546327,8.49999163 C9.54546327,8.13873378 9.85056873,7.84614548 10.2272815,7.84614548 L11.5909178,7.84614548 C11.7715985,7.84614548 11.9454633,7.91479828 12.073296,8.03739495 C12.2011375,8.15999163 12.2727273,8.32671926 12.2727273,8.49998326 L12.2727273,8.5 Z M5.45454545,11.1153846 C5.45454545,11.2886528 5.38295564,11.4553846 5.25511418,11.5779729 C5.12727273,11.7005696 4.95341236,11.7692224 4.772736,11.7692224 L3.40909964,11.7692224 C3.03238691,11.7692224 2.72728145,11.4766341 2.72728145,11.1153762 C2.72728145,10.7541184 3.03238691,10.4615301 3.40909964,10.4615301 L4.772736,10.4615301 C4.95341673,10.4615301 5.12728145,10.5301829 5.25511418,10.6527796 C5.38295564,10.7753762 5.45454545,10.9421039 5.45454545,11.1153679 L5.45454545,11.1153846 Z M8.86363636,11.1153846 C8.86363636,11.2886528 8.79204655,11.4553846 8.66420509,11.5779729 C8.53636364,11.7005696 8.36250327,11.7692224 8.18182691,11.7692224 L6.81819055,11.7692224 C6.44147782,11.7692224 6.13637236,11.4766341 6.13637236,11.1153762 C6.13637236,10.7541184 6.44147782,10.4615301 6.81819055,10.4615301 L8.18182691,10.4615301 C8.36250764,10.4615301 8.53637236,10.5301829 8.66420509,10.6527796 C8.79204655,10.7753762 8.86363636,10.9421039 8.86363636,11.1153679 L8.86363636,11.1153846 Z M12.2727273,11.1153846 C12.2727273,11.2886528 12.2011375,11.4553846 12.073296,11.5779729 C11.9454545,11.7005696 11.7715942,11.7692224 11.5909178,11.7692224 L10.2272815,11.7692224 C9.85056873,11.7692224 9.54546327,11.4766341 9.54546327,11.1153762 C9.54546327,10.7541184 9.85056873,10.4615301 10.2272815,10.4615301 L11.5909178,10.4615301 C11.7715985,10.4615301 11.9454633,10.5301829 12.073296,10.6527796 C12.2011375,10.7753762 12.2727273,10.9421039 12.2727273,11.1153679 L12.2727273,11.1153846 Z M5.45454545,13.7307692 C5.45454545,13.9040374 5.38295564,14.0707692 5.25511418,14.1933575 C5.12727273,14.3159542 4.95341236,14.384607 4.772736,14.384607 L3.40909964,14.384607 C3.03238691,14.384607 2.72728145,14.0920187 2.72728145,13.7307609 C2.72728145,13.369503 3.03238691,13.0769147 3.40909964,13.0769147 L4.772736,13.0769147 C4.95341673,13.0769147 5.12728145,13.1455675 5.25511418,13.2681642 C5.38295564,13.3907609 5.45454545,13.5574885 5.45454545,13.7307525 L5.45454545,13.7307692 Z M8.86363636,13.7307692 C8.86363636,13.9040374 8.79204655,14.0707692 8.66420509,14.1933575 C8.53636364,14.3159542 8.36250327,14.384607 8.18182691,14.384607 L6.81819055,14.384607 C6.44147782,14.384607 6.13637236,14.0920187 6.13637236,13.7307609 C6.13637236,13.369503 6.44147782,13.0769147 6.81819055,13.0769147 L8.18182691,13.0769147 C8.36250764,13.0769147 8.53637236,13.1455675 8.66420509,13.2681642 C8.79204655,13.3907609 8.86363636,13.5574885 8.86363636,13.7307525 L8.86363636,13.7307692 Z M12.2727273,13.7307692 C12.2727273,13.9040374 12.2011375,14.0707692 12.073296,14.1933575 C11.9454545,14.3159542 11.7715942,14.384607 11.5909178,14.384607 L10.2272815,14.384607 C9.85056873,14.384607 9.54546327,14.0920187 9.54546327,13.7307609 C9.54546327,13.369503 9.85056873,13.0769147 10.2272815,13.0769147 L11.5909178,13.0769147 C11.7715985,13.0769147 11.9454633,13.1455675 12.073296,13.2681642 C12.2011375,13.3907609 12.2727273,13.5574885 12.2727273,13.7307525 L12.2727273,13.7307692 Z" id="Shape"></path>
                </g>
            </g>
        </g>
    </g>
</svg>