<?xml version="1.0" encoding="UTF-8"?>
<svg width="16px" height="16px" viewBox="0 0 16 16" version="1.1" xmlns="http://www.w3.org/2000/svg" xmlns:xlink="http://www.w3.org/1999/xlink">
    <title>np_calendar_857968_022F59</title>
    <g id="APPROVED-SCREENS" stroke="none" stroke-width="1" fill="none" fill-rule="evenodd">
        <g id="Affiliate-Admin-Dashboard-|-EVENTS-|-Create-New-1" transform="translate(-183.000000, -71.000000)" fill="#26A1FF" fill-rule="nonzero">
            <g id="HUD-Upper-window" transform="translate(183.000000, 65.500288)">
                <g id="np_calendar_857968_022F59" transform="translate(0.000000, 5.499712)">
                    <path d="M13.7778006,1.29650505 L12.4445856,1.29650505 L12.4445856,0 L11.5555225,0 L11.5555225,1.29726335 L4.44453625,1.29650388 L4.44453625,0 L3.55547314,0 L3.55547314,1.29726218 L2.22225814,1.29650271 C0.996768998,1.29650271 0,2.26641128 0,3.45883319 L0,13.8376695 C0,15.0301109 0.996788981,16 2.22225814,16 L13.7769613,16 C15.0024505,16 15.9992195,15.0300914 15.9992195,13.8376695 L16,5.62116368 L16,3.45883319 C16,2.26715014 15.003211,1.29650271 13.7777419,1.29650271 L13.7778006,1.29650505 Z M15.1110156,13.8376719 C15.1110156,14.5531406 14.5130981,15.134934 13.7778006,15.134934 L2.2222981,15.134934 C1.48700062,15.134934 0.889083097,14.5531406 0.889083097,13.8376719 L0.889863815,5.62116601 L15.1118363,5.62116601 L15.1110156,13.8376719 Z M15.1110156,4.7568949 L0.889043132,4.7568949 L0.889043132,3.45887442 C0.889043132,2.74340571 1.48696066,2.16161223 2.22225814,2.16161223 L3.55547314,2.16161223 L3.55547314,3.02669997 L4.44453625,3.02745944 L4.44453625,2.1623717 L11.5555225,2.1623717 L11.5555225,3.02745944 L12.4445856,3.02745944 L12.4453661,2.1623717 L13.7785811,2.1623717 C14.5138786,2.1623717 15.1117961,2.74416518 15.1117961,3.45963388 L15.1110156,4.7568949 Z" id="Shape"></path>
                    <path d="M7.11102621,9.94602141 L8.88837312,9.94602141 C9.37856478,9.94602141 9.77743623,9.55790632 9.77743623,9.08093367 L9.77743623,7.35151649 C9.77743623,6.87454383 9.37856478,6.48642874 8.88837312,6.48642874 L7.11102621,6.48642874 C6.62083455,6.48642874 6.22196309,6.87454383 6.22196309,7.35151649 L6.22196309,9.08093367 C6.22274381,9.55790632 6.62161387,9.94602141 7.11102621,9.94602141 Z M7.11102621,7.35145815 L8.88837312,7.35145815 L8.88915384,9.08087534 L7.11102621,9.08087534 L7.11102621,7.35145815 Z" id="Shape"></path>
                    <path d="M11.5555425,9.94602141 L13.3328894,9.94602141 C13.823081,9.94602141 14.2219525,9.55790632 14.2219525,9.08093367 L14.2219525,7.35151649 C14.2219525,6.87454383 13.823081,6.48642874 13.3328894,6.48642874 L11.5555425,6.48566927 C11.0653508,6.48566927 10.6664794,6.87378436 10.6664794,7.35075702 L10.6664794,9.0801742 C10.6672599,9.55790516 11.0653508,9.94602141 11.5555425,9.94602141 L11.5555425,9.94602141 Z M11.5555425,7.35145815 L13.3328894,7.35145815 L13.3336699,9.08087534 L11.5555425,9.08087534 L11.5555425,7.35145815 Z" id="Shape"></path>
                    <path d="M2.66710941,14.2706824 L4.44445632,14.2706824 C4.93464798,14.2706824 5.33351944,13.8825673 5.33351944,13.4055946 L5.33351944,11.6761774 C5.33351944,11.1992048 4.93464798,10.8110897 4.44445632,10.8110897 L2.66710941,10.8103302 C2.17691775,10.8103302 1.7780463,11.1984453 1.7780463,11.675418 L1.7780463,13.4048352 C1.7780463,13.8825661 2.17691775,14.2706824 2.66710941,14.2706824 L2.66710941,14.2706824 Z M2.66710941,11.6753414 L4.44445632,11.6753414 L4.44523704,13.4047586 L2.66710941,13.405518 L2.66710941,11.6753414 Z" id="Shape"></path>
                    <path d="M7.11102621,14.2706824 L8.88837312,14.2706824 C9.37856478,14.2706824 9.77743623,13.8825673 9.77743623,13.4055946 L9.77743623,11.6761774 C9.77743623,11.1992048 9.37856478,10.8110897 8.88837312,10.8110897 L7.11102621,10.8110897 C6.62083455,10.8110897 6.22196309,11.1992048 6.22196309,11.6761774 L6.22196309,13.4055946 C6.22274381,13.8825673 6.62161387,14.2706824 7.11102621,14.2706824 L7.11102621,14.2706824 Z M7.11102621,11.6753414 L8.88837312,11.6753414 L8.88915384,13.4047586 L7.11102621,13.4047586 L7.11102621,11.6753414 Z" id="Shape"></path>
                    <path d="M11.5555425,14.2706824 L13.3328894,14.2706824 C13.823081,14.2706824 14.2219525,13.8825673 14.2219525,13.4055946 L14.2219525,11.6761774 C14.2219525,11.1992048 13.823081,10.8110897 13.3328894,10.8110897 L11.5555425,10.8103302 C11.0653508,10.8103302 10.6664794,11.1984453 10.6664794,11.675418 L10.6664794,13.4048352 C10.6672599,13.8825661 11.0653508,14.2706824 11.5555425,14.2706824 L11.5555425,14.2706824 Z M11.5555425,11.6753414 L13.3328894,11.6753414 L13.3336699,13.4047586 L11.5555425,13.405518 L11.5555425,11.6753414 Z" id="Shape"></path>
                </g>
            </g>
        </g>
    </g>
</svg>