<?xml version="1.0" encoding="UTF-8"?>
<svg width="21px" height="21px" viewBox="0 0 21 21" version="1.1" xmlns="http://www.w3.org/2000/svg" xmlns:xlink="http://www.w3.org/1999/xlink">
    <title>Group 3</title>
    <g id="Approved-Screens" stroke="none" stroke-width="1" fill="none" fill-rule="evenodd">
        <g id="Affiliate-Admin-Dashboard-|-EVENTS-|-Create-New-3-Cropping" transform="translate(-936.000000, -193.000000)" fill-rule="nonzero">
            <g id="Group-3" transform="translate(936.563604, 193.499218)">
                <path d="M10,0 C4.46711111,0 0,4.45884234 0,9.98148967 C0,15.504137 4.46711111,19.9629793 10,19.9629793 C15.5328889,19.9629793 20,15.504137 20,9.98148967 C20,4.45884234 15.5328889,0 10,0 Z" id="Shape" fill="#26A1FF"></path>
                <path d="M14.2801539,5.70926334 C14.0100143,5.43961727 13.5594813,5.43961727 13.2893417,5.70926334 L10,8.99259553 L6.73363551,5.70926334 C6.46349591,5.43961727 6.01296288,5.43961727 5.74282327,5.70926334 C5.47268366,5.97890941 5.47268366,6.42861934 5.74282327,6.69826541 L9.00918775,9.9815976 L5.71984608,13.2419946 C5.44970648,13.5116407 5.44970648,13.9613506 5.71984608,14.2309967 C5.85535741,14.3662604 6.03485878,14.4330153 6.21525221,14.4330153 C6.39564563,14.4330153 6.57603906,14.3653835 6.71065833,14.2309967 L10,10.9705997 L13.2663645,14.2539319 C13.4018758,14.3891956 13.5813772,14.4559506 13.7617706,14.4559506 C13.942164,14.4559506 14.1225575,14.3883187 14.2571767,14.2539319 C14.5273163,13.9842858 14.5273163,13.5345759 14.2571767,13.2649298 L10.9908122,9.9815976 L14.2801539,6.72120062 C14.5502935,6.42870928 14.5502935,6.00184462 14.2801539,5.70935328 L14.2801539,5.70926334 Z" id="Path" fill="#FFFFFF"></path>
            </g>
        </g>
    </g>
</svg>