<?xml version="1.0" encoding="UTF-8"?>
<svg width="16px" height="16px" viewBox="0 0 16 16" version="1.1" xmlns="http://www.w3.org/2000/svg" xmlns:xlink="http://www.w3.org/1999/xlink">
    <title>settings icon - white</title>
    <g id="Symbols" stroke="none" stroke-width="1" fill="none" fill-rule="evenodd">
        <g id="Player-Navigation" transform="translate(-30.000000, -270.000000)" fill="#26A1FF" fill-rule="nonzero">
            <g id="settings-icon---white" transform="translate(30.000000, 270.000000)">
                <path d="M15.9499672,7.11920571 C15.9243298,6.89339402 15.6617061,6.72514814 15.4340971,6.72514814 C14.6968767,6.74141068 14.0271916,6.29605469 13.7570029,5.60925218 C13.4868141,4.92244966 13.6732138,4.13995499 14.2240985,3.6489723 C14.3979227,3.49134767 14.4198208,3.22613983 14.2734957,3.04223349 C13.8995791,2.56936121 13.4737505,2.13964326 13.0041577,1.76121413 C12.8197046,1.61422196 12.5527013,1.63548849 12.3945003,1.81062785 C11.8817676,2.3504334 11.0945241,2.52807876 10.3998194,2.26098622 C9.71074932,1.96574328 9.27930214,1.27082231 9.32119348,0.522162567 C9.33369926,0.286342915 9.16111959,0.0811876648 8.92726763,0.0524127674 C8.32948767,-0.0157662855 7.72608911,-0.0176429788 7.12771687,0.0480342433 C6.89698636,0.0736802509 6.72441069,0.271956427 6.73065357,0.504029097 C6.75754119,1.24649191 6.32046421,1.92703344 5.63451555,2.2109874 C4.94294829,2.46807197 4.16508519,2.2916772 3.65296077,1.76125352 C3.49538883,1.58924465 3.2321425,1.56735523 3.04893793,1.7118398 C2.5705891,2.08777095 2.13664477,2.51747288 1.75584498,2.99285916 C1.60952783,3.17674949 1.62953707,3.44259303 1.80211594,3.60272046 C2.36299887,4.10561663 2.54495487,4.90875172 2.25544522,5.60431321 C1.94405346,6.28110776 1.25748051,6.70456472 0.513360991,6.68017732 C0.278884746,6.66579083 0.0744063493,6.83967864 0.0525242476,7.07423488 C-0.0175080825,7.67845969 -0.0175080825,8.28894548 0.0525242476,8.89312225 C0.0731593737,9.1270524 0.345779627,9.28717982 0.574637278,9.28717982 C1.29621839,9.28155038 1.94839147,9.71689776 2.21971672,10.3855578 C2.49797318,11.0742338 2.31976291,11.862365 1.77325461,12.3645726 C1.60067895,12.5221989 1.57879684,12.7867806 1.72385741,12.9700464 C2.09590116,13.4435432 2.52048117,13.8738856 2.99007395,14.2510658 C3.17327853,14.3993085 3.44090608,14.3786681 3.5997314,14.2047794 C4.11308839,13.6637248 4.9009561,13.4848305 5.59745364,13.7512985 C6.2890209,14.0434029 6.72171665,14.7389644 6.67795244,15.4890013 C6.66544667,15.7248209 6.83740045,15.9299762 7.0718783,15.9581266 C7.37765146,15.9931544 7.68590576,16.010685 7.99355178,16.010685 C8.28743145,16.0112932 8.58070284,15.9950302 8.87270964,15.9612539 C9.10468873,15.9356078 9.27788869,15.7354422 9.26977294,15.501512 C9.24163515,14.7602982 9.67746515,14.0791322 10.3627735,13.7945537 C11.0537165,13.5387181 11.8309553,13.7182434 12.3400063,14.2511731 C12.496954,14.4231819 12.7602003,14.4450714 12.9434049,14.3005868 C13.4211294,13.9240312 13.8550737,13.4943132 14.2364978,13.0195674 C14.384691,12.8363016 14.3646818,12.5692091 14.1902268,12.4097061 C13.6374757,11.9218139 13.4467636,11.1411927 13.7125023,10.4531092 C13.978257,9.76568218 14.6441804,9.31594831 15.3814328,9.32722128 L15.4808531,9.32722128 L15.4802276,9.32722128 C15.7159685,9.33973123 15.9210552,9.16771996 15.9498204,8.93316371 C16.0167265,8.3301879 16.0167265,7.7222001 15.9498204,7.1192403 L15.9499672,7.11920571 Z M8.01126236,10.6914883 C7.30405588,10.6914883 6.62499039,10.4106408 6.12479148,9.90961816 C5.62456055,9.40921997 5.34318265,8.72992743 5.34318265,8.02251651 C5.34318265,7.31444907 5.62456055,6.63515653 6.12479148,6.13477436 C6.62502241,5.63439218 7.3040879,5.35290419 8.01126236,5.35290419 C8.71909313,5.35290419 9.39815861,5.63437617 9.89837353,6.13477436 C10.3985885,6.63517254 10.6799824,7.31446508 10.6799824,8.02251651 C10.6793571,8.72995945 10.3979802,9.40861148 9.89774925,9.90897765 C9.39751832,10.4093438 8.71907712,10.6908478 8.01127837,10.6914883 L8.01126236,10.6914883 Z" id="Shape"></path>
            </g>
        </g>
    </g>
</svg>