<?xml version="1.0" encoding="UTF-8"?>
<svg width="19px" height="19px" viewBox="0 0 19 19" version="1.1" xmlns="http://www.w3.org/2000/svg" xmlns:xlink="http://www.w3.org/1999/xlink">
    <title>np_crop_4195822_022F59</title>
    <g id="Approved-Screens" stroke="none" stroke-width="1" fill="none" fill-rule="evenodd">
        <g id="Affiliate-Admin-Dashboard-|-EVENTS-|-Create-New-3-Cropping" transform="translate(-502.000000, -39.000000)" fill="#26A1FF" fill-rule="nonzero">
            <g id="np_crop_4195822_022F59" transform="translate(502.000000, 39.000000)">
                <path d="M4.28,14.72 L18.36,14.72 C18.7136077,14.72 19,15.0063923 19,15.36 C19,15.7136077 18.7136077,16 18.36,16 L3.64,16 C3.28639232,16 3,15.7136077 3,15.36 L3,0.64 C3,0.28639232 3.28639232,0 3.64,0 C3.99360768,0 4.28,0.28639232 4.28,0.64 L4.28,14.72 Z" id="Path"></path>
                <path d="M15.9997952,18.36 L15.9997952,16.76 C15.9997952,16.4063923 15.7134084,16.12 15.3598075,16.12 C15.0062066,16.12 14.7198198,16.4063923 14.7198198,16.76 L14.7198198,18.36 C14.7198198,18.7136077 15.0062066,19 15.3598075,19 C15.7134084,19 15.9997952,18.7136077 15.9997952,18.36 Z M14.7198198,4.28 L5.44010035,4.28 C5.08649946,4.28 4.80011264,3.99360768 4.80011264,3.64 C4.80011264,3.28639232 5.08649946,3 5.44010035,3 L15.3600123,3 C15.7136132,3 16,3.28639232 16,3.64 L16,13.5601024 C16,13.9137101 15.7136132,14.2001024 15.3600123,14.2001024 C15.0064114,14.2001024 14.7200246,13.9137101 14.7200246,13.5601024 L14.7198198,4.28 Z M2.23995699,3 L0.639987712,3 C0.286386821,3 0,3.28639232 0,3.64 C0,3.99360768 0.286386821,4.28 0.639987712,4.28 L2.23995699,4.28 C2.59355788,4.28 2.87994471,3.99360768 2.87994471,3.64 C2.87994471,3.28639232 2.59355788,3 2.23995699,3 Z" id="Shape"></path>
            </g>
        </g>
    </g>
</svg>