<?xml version="1.0" encoding="UTF-8"?>
<svg width="8px" height="8px" viewBox="0 0 8 8" version="1.1" xmlns="http://www.w3.org/2000/svg" xmlns:xlink="http://www.w3.org/1999/xlink">
    <title>np_division_119645_022F59</title>
    <g id="Approved-Screens" stroke="none" stroke-width="1" fill="none" fill-rule="evenodd">
        <g id="Affiliate-Admin-Dashboard-|-EVENTS-|-Create-New-4" transform="translate(-566.000000, -261.000000)" fill="#022F59" fill-rule="nonzero">
            <g id="preview-Event-bar" transform="translate(363.000000, 146.000000)">
                <g id="np_division_119645_022F59" transform="translate(203.000000, 115.000000)">
                    <path d="M0,1 L0,7 C6.76353751e-17,7.55228475 0.44771525,8 1,8 L7,8 C7.55228475,8.00009344 8,7.55237819 8,7.00009344 C8,7.00006229 8,7.00003114 7.99990656,7 L7.9993459,0.999999996 C7.99920085,0.447751748 7.55150072,9.34471064e-05 6.99925246,0 L1,0 C0.44771525,1.01453063e-16 -6.76353751e-17,0.44771525 0,1 Z M6.57838329,7.57838329 L5.68361522,7.57838329 C5.51454086,7.57838329 5.37747901,7.44132144 5.37747901,7.27224708 L5.37747901,7.08086409 C5.37747901,7.01748763 5.32610223,6.96611086 5.26272577,6.96611086 C5.19934931,6.96611086 5.14797254,7.01748763 5.14797254,7.08086409 L5.14797254,7.27224708 C5.14797254,7.44132144 5.01091068,7.57838329 4.84183632,7.57838329 L3.15751298,7.57838329 C2.98843861,7.57838329 2.85137676,7.44132144 2.85137676,7.27224708 L2.85137676,7.08086409 C2.85137676,7.01748763 2.79999999,6.96611086 2.73662353,6.96611086 C2.67324706,6.96611086 2.62187029,7.01748763 2.62187029,7.08086409 L2.62187029,7.27224708 C2.62187029,7.44132144 2.48480844,7.57838329 2.31573407,7.57838329 L1.42096601,7.57838329 C0.868681256,7.57838329 0.420966006,7.13066804 0.420966006,6.57838329 L0.420966006,1.42104256 C0.420966006,0.868757809 0.868681256,0.421042559 1.42096601,0.421042559 L2.31573407,0.421042559 C2.48480844,0.421042559 2.62187029,0.558104412 2.62187029,0.727178776 L2.62187029,0.918561757 C2.62187029,0.981938219 2.67324706,1.03331499 2.73662353,1.03331499 C2.79999999,1.03331499 2.85137676,0.981938219 2.85137676,0.918561757 L2.85137676,0.727178776 C2.85137676,0.558104412 2.98843861,0.421042559 3.15751298,0.421042559 L4.84183632,0.421042559 C5.01091068,0.421042559 5.14797254,0.558104412 5.14797254,0.727178776 L5.14797254,0.918561757 C5.14797254,0.981938219 5.19934931,1.03331499 5.26272577,1.03331499 C5.32610223,1.03331499 5.37747901,0.981938219 5.37747901,0.918561757 L5.37747901,0.727178776 C5.37747901,0.558104412 5.51454086,0.421042559 5.68361522,0.421042559 L6.57838329,0.421042559 C7.13066804,0.421042559 7.57838329,0.868757809 7.57838329,1.42104256 L7.57838329,6.57838329 C7.57838329,7.13066804 7.13066804,7.57838329 6.57838329,7.57838329 Z" id="Shape"></path>
                    <polygon id="Path" points="5.14781943 5.62627688 5.3773259 5.62627688 5.3773259 6.39180881 5.14781943 6.39180881"></polygon>
                    <polygon id="Path" points="5.14781943 1.60723428 5.3773259 1.60723428 5.3773259 2.3727662 5.14781943 2.3727662"></polygon>
                    <polygon id="Path" points="5.14781943 2.94691515 5.3773259 2.94691515 5.3773259 3.71244707 5.14781943 3.71244707"></polygon>
                    <polygon id="Path" points="5.14781943 4.28659601 5.3773259 4.28659601 5.3773259 5.05212794 5.14781943 5.05212794"></polygon>
                    <polygon id="Path" points="2.62175546 4.28659601 2.85126193 4.28659601 2.85126193 5.05212794 2.62175546 5.05212794"></polygon>
                    <polygon id="Path" points="2.62175546 5.62627688 2.85126193 5.62627688 2.85126193 6.39180881 2.62175546 6.39180881"></polygon>
                    <polygon id="Path" points="2.62175546 1.60723428 2.85126193 1.60723428 2.85126193 2.3727662 2.62175546 2.3727662"></polygon>
                    <polygon id="Path" points="2.62175546 2.94691515 2.85126193 2.94691515 2.85126193 3.71244707 2.62175546 3.71244707"></polygon>
                </g>
            </g>
        </g>
    </g>
</svg>