<?xml version="1.0" encoding="UTF-8"?>
<svg width="13px" height="16px" viewBox="0 0 13 16" version="1.1" xmlns="http://www.w3.org/2000/svg" xmlns:xlink="http://www.w3.org/1999/xlink">
    <title>reports icon - white</title>
    <g id="Symbols" stroke="none" stroke-width="1" fill="none" fill-rule="evenodd">
        <g id="Admin-Navigation" transform="translate(-32.000000, -214.000000)" fill="#26A1FF" fill-rule="nonzero">
            <g id="reports-icon---white" transform="translate(32.000000, 214.000000)">
                <path d="M6.67651461,2.77299763 L6.67651461,4.73414882 L8.6376658,4.73414882 C8.49031541,3.72184927 7.68873871,2.92026314 6.67651461,2.77299763 L6.67651461,2.77299763 Z" id="Path"></path>
                <path d="M6.01034938,4.92879279 L6.01034938,2.77224319 C4.88827969,2.9358026 4.02335882,3.90095191 4.02335882,5.06723143 C4.02335882,5.58590481 4.19649577,6.06700738 4.48529876,6.45380569 L6.01034938,4.92879279 Z" id="Path"></path>
                <path d="M6.34343199,7.38732346 C7.50971152,7.38732346 8.47489666,6.52310045 8.63842023,5.40031405 L6.48187063,5.40031405 L4.95753673,6.92464795 C5.34359947,7.21419972 5.82470203,7.38732346 6.34337541,7.38732346 L6.34343199,7.38732346 Z" id="Path"></path>
                <path d="M12.6869017,14.66797 L12.6869017,1.33278311 C12.6869017,0.600454024 12.0864477,0 11.3541186,0 L1.33278311,0 C0.597511731,0 0,0.600454024 0,1.33278311 L0,14.6672155 C0,15.4024869 0.597511731,16 1.33278311,16 L11.3541186,16 C12.0864477,16.0007355 12.6869017,15.4032225 12.6869017,14.6679511 L12.6869017,14.66797 Z M6.34343199,2.07835252 C7.99081409,2.07835252 9.32948178,3.41777465 9.32948178,5.06440231 C9.32948178,6.7117844 7.99005965,8.05045209 6.34343199,8.05045209 C4.6960499,8.05045209 3.35738221,6.71102996 3.35738221,5.06440231 C3.35738221,3.41996251 4.69606876,2.07835252 6.34343199,2.07835252 Z M5.22430459,13.9259841 L2.19694954,13.9259841 C2.01128711,13.9259841 1.86394237,13.7749502 1.86394237,13.5929769 C1.86394237,13.4073145 2.01203022,13.2599698 2.19694954,13.2599698 L5.22430459,13.2599698 C5.40996703,13.2599698 5.55731176,13.4080576 5.55731176,13.5929769 C5.55731176,13.774954 5.40996137,13.9259841 5.22430459,13.9259841 Z M10.4861046,11.8350703 L2.19694954,11.8350703 C2.01128711,11.8350703 1.86394237,11.6869824 1.86394237,11.5020631 C1.86394237,11.3164007 2.01203022,11.1690559 2.19694954,11.1690559 L10.4832754,11.1690559 C10.6689379,11.1690559 10.8163486,11.3171438 10.8163486,11.5020631 C10.8199663,11.6847776 10.6689322,11.8350703 10.4862177,11.8350703 L10.4861046,11.8350703 Z M10.4861046,9.74491087 L2.19694954,9.74491087 C2.01128711,9.74491087 1.86394237,9.59387695 1.86394237,9.4119037 C1.86394237,9.22624126 2.01203022,9.07889653 2.19694954,9.07889653 L10.4832754,9.07889653 C10.6689379,9.07889653 10.8163486,9.22993044 10.8163486,9.4119037 C10.8199663,9.59682867 10.6689322,9.74491087 10.4862177,9.74491087 L10.4861046,9.74491087 Z" id="Shape"></path>
            </g>
        </g>
    </g>
</svg>