<?xml version="1.0" encoding="UTF-8"?>
<svg width="21px" height="18px" viewBox="0 0 21 18" version="1.1" xmlns="http://www.w3.org/2000/svg" xmlns:xlink="http://www.w3.org/1999/xlink">
    <title>Tailwind - Group</title>
    <g id="Symbols" stroke="none" stroke-width="1" fill="none" fill-rule="evenodd">
        <g id="Team-Manager-Navigation" transform="translate(-28.000000, -308.000000)" fill="#26A1FF" fill-rule="nonzero">
            <g id="Tailwind---Group" transform="translate(28.000000, 308.000000)">
                <path d="M10.5,9.6 C13.0772833,9.6 15.1666667,11.74908 15.1666667,14.4 L15.1666667,14.4 L15.1666667,18 L14.0047209,17.9994068 C13.9977544,17.9911574 13.9901802,17.9832657 13.9820026,17.975794 C13.6710801,17.7015381 13.5638045,17.2627322 13.7132825,16.8759439 C13.8627696,16.4895246 14.2373515,16.2367184 14.6520559,16.2430552 L14.7076281,16.2430552 C14.8402323,16.2500874 14.9555935,16.1533957 14.971774,16.021546 C15.0094087,15.6825988 15.0094087,15.3408342 14.971774,15.001896 C14.9574355,14.8749424 14.8097097,14.7803674 14.6816796,14.7803674 C14.2669932,14.7895089 13.8902953,14.5391636 13.7383141,14.1530954 C13.5863329,13.7670272 13.6911827,13.3271682 14.0010554,13.051175 C14.0988315,12.9625704 14.1111492,12.8134907 14.0288413,12.7101126 C13.8185132,12.4442997 13.5789847,12.2027449 13.3148387,11.9900208 C13.2110838,11.907393 13.0608945,11.9193474 12.9719064,12.0177974 C12.6834943,12.3212351 12.2406698,12.4210938 11.8498984,12.2709547 C11.4622965,12.1049915 11.2196075,11.7143598 11.2431713,11.2935201 C11.2502058,11.1609602 11.1531298,11.0456375 11.021588,11.0294625 C10.6853368,10.9911374 10.3459251,10.9900825 10.0093407,11.0270012 C9.87955483,11.0414174 9.78248101,11.1528732 9.78599263,11.2833269 C9.80111692,11.7006831 9.55526112,12.0832318 9.16941499,12.2428491 C8.78040841,12.3873626 8.34286042,12.2882068 8.05479043,11.9900429 C7.96615622,11.8933526 7.81808016,11.881048 7.71502758,11.9622663 C7.44595637,12.1735862 7.20186268,12.415132 6.9876628,12.6823581 C6.9053594,12.7857272 6.9166146,12.9351643 7.01369022,13.0251757 C7.32918686,13.3078658 7.43153711,13.7593273 7.26868793,14.1503191 C7.09353007,14.5307616 6.70733279,14.7687969 6.28876556,14.7550882 C6.15687267,14.7470012 6.04185357,14.8447477 6.02954489,14.9765974 C5.9901517,15.3162467 5.9901517,15.6594154 6.02954489,15.9990377 C6.04115215,16.1305355 6.19450104,16.220547 6.32323347,16.220547 C6.72912285,16.2173825 7.0959702,16.4621017 7.24859066,16.8379716 C7.40510991,17.225093 7.30486664,17.6681204 6.99745572,17.9504234 C6.98098784,17.9654547 6.96695939,17.9822162 6.955415,18.0001913 L5.83333333,18 L5.83333333,14.4 C5.83333333,11.74908 7.92267,9.6 10.5,9.6 Z M17.5,10.8 C19.43305,10.8 21,12.41172 21,14.4 L21,18 L17.5,18 L17.5,14.4 C17.5,13.13508 17.1829,11.94624 16.6258167,10.91316 C16.9052333,10.83924 17.1981833,10.8 17.5,10.8 Z M3.5,10.8 C3.80182833,10.8 4.09473167,10.83924 4.37413667,10.91316 C3.81715833,11.94624 3.5,13.13508 3.5,14.4 L3.5,18 L0,18 L0,14.4 C0,12.41172 1.56700833,10.8 3.5,10.8 Z M10.5063351,14.0089961 C10.9044899,14.0089961 11.2864642,14.1672182 11.5678351,14.4485041 C11.849206,14.7297899 12.0074901,15.1116366 12.0074901,15.5096493 C12.0071384,15.90732 11.8488638,16.2888066 11.567484,16.5700745 C11.2861041,16.8513423 10.9044809,17.0095825 10.5063441,17.0099425 C10.1085314,17.0099425 9.7265571,16.8520714 9.44519521,16.5704345 C9.16381531,16.2891487 9.00554024,15.907302 9.00554024,15.5096493 C9.00554024,15.1116276 9.16381531,14.7297809 9.44519521,14.4485041 C9.7265751,14.1672272 10.1085494,14.0089961 10.5063351,14.0089961 Z M17.5,3.6 C18.7887,3.6 19.8333333,4.674516 19.8333333,6 C19.8333333,7.325484 18.7887,8.4 17.5,8.4 C16.2113,8.4 15.1666667,7.325484 15.1666667,6 C15.1666667,4.674516 16.2113,3.6 17.5,3.6 Z M3.5,3.6 C4.788665,3.6 5.83333333,4.674516 5.83333333,6 C5.83333333,7.325484 4.788665,8.4 3.5,8.4 C2.211335,8.4 1.16666667,7.325484 1.16666667,6 C1.16666667,4.674516 2.211335,3.6 3.5,3.6 Z M10.5,0 C12.43305,0 14,1.61178 14,3.6 C14,5.58822 12.43305,7.2 10.5,7.2 C8.56700833,7.2 7,5.58822 7,3.6 C7,1.61178 8.56700833,0 10.5,0 Z" id="Combined-Shape"></path>
            </g>
        </g>
    </g>
</svg>