<?xml version="1.0" encoding="UTF-8"?>
<svg width="16px" height="16px" viewBox="0 0 16 16" version="1.1" xmlns="http://www.w3.org/2000/svg" xmlns:xlink="http://www.w3.org/1999/xlink">
    <title>help icon - white</title>
    <g id="Symbols" stroke="none" stroke-width="1" fill="none" fill-rule="evenodd">
        <g id="Player-Navigation" transform="translate(-31.000000, -528.000000)" fill="#26A1FF" fill-rule="nonzero">
            <g id="help-icon---white" transform="translate(31.000000, 528.000000)">
                <path d="M13.4364641,0 L2.56353591,0 C1.14986077,0 0,1.14986077 0,2.56353591 L0,13.4364641 C0,14.8501392 1.14986077,16 2.56353591,16 L13.4364641,16 C14.8501392,16 16,14.8501392 16,13.4364641 L16,2.56353591 C16,1.14986077 14.8501392,0 13.4364641,0 Z M7.99239779,12.6553812 C7.47581878,12.6553812 7.05661878,12.2368707 7.05661878,11.7196022 C7.05661878,11.2030232 7.47512928,10.7838232 7.99239779,10.7838232 C8.5089768,10.7838232 8.9281768,11.2023337 8.9281768,11.7196022 C8.9281768,12.2368707 8.5096663,12.6553812 7.99239779,12.6553812 Z M10.0020331,7.95650829 C9.4702674,8.35222983 8.90188729,8.67405083 8.79070055,9.40264309 L8.79070055,9.8729547 L7.12219227,9.8729547 L7.12219227,9.31702099 C7.19608751,8.24106077 7.7030011,7.75900994 8.19746298,7.37580552 C8.67951381,6.99320221 9.10009282,6.70868508 9.10009282,6.04085746 C9.10009282,5.28671823 8.70506077,4.92828287 8.04967956,4.92828287 C7.16018564,4.92828287 6.78863204,5.65756464 6.77620331,6.53531934 L4.95927514,6.53531934 C4.9965684,4.76805304 6.15816133,3.48205967 7.96267845,3.48205967 C10.299032,3.48205967 11.0406895,4.91576575 11.0406895,5.86738564 C11.0406895,7.06697901 10.5344707,7.54901215 10.0020155,7.95640221 L10.0020331,7.95650829 Z" id="Shape"></path>
            </g>
        </g>
    </g>
</svg>