<?xml version="1.0" encoding="UTF-8"?>
<svg width="15px" height="16px" viewBox="0 0 15 16" version="1.1" xmlns="http://www.w3.org/2000/svg" xmlns:xlink="http://www.w3.org/1999/xlink">
    <title>home icon - white</title>
    <g id="home-icon---white" stroke="none" stroke-width="1" fill="none" fill-rule="evenodd">
        <path d="M14.8202747,7.16605096 L7.98096817,0.199207145 C7.7150997,-0.0664023818 7.28933372,-0.0664023818 7.02346525,0.199207145 L0.184158692,7.16605096 C0.00462744222,7.36199428 -0.0492312762,7.64675204 0.0473725611,7.89668895 C0.143976398,8.14662587 0.372245094,8.31730797 0.635552925,8.33648072 L1.46994833,8.33648072 L1.46994833,15.3033245 C1.46994833,15.4879448 1.54175995,15.6656004 1.66999749,15.7962204 C1.79823504,15.9268493 1.97263407,16 2.15387023,16 L5.9838819,16 L5.9838819,11.3251921 C5.9838819,10.9402656 6.28993266,10.6285077 6.66781255,10.6285077 L8.32292474,10.6285077 C8.50416527,10.6285077 8.67856868,10.7016584 8.80679747,10.8322873 C8.93503502,10.9629162 9.00684664,11.1405674 9.00684664,11.3251831 L9.00684664,15.99308 L12.8368583,15.99308 C13.0180988,15.99308 13.1925023,15.9199292 13.320731,15.7893003 C13.4489686,15.6586715 13.5207802,15.4810203 13.5207802,15.2964045 L13.5207802,8.32956069 L14.3893831,8.32956069 C14.6458626,8.30169332 14.8647204,8.12839392 14.956181,7.88281323 C15.0468013,7.63722362 14.9946519,7.35941933 14.8202507,7.16610892 L14.8202747,7.16605096 Z" id="Path" fill="#26A1FF" fill-rule="nonzero"></path>
    </g>
</svg>