<?xml version="1.0" encoding="UTF-8"?>
<svg width="15px" height="9px" viewBox="0 0 15 9" version="1.1" xmlns="http://www.w3.org/2000/svg" xmlns:xlink="http://www.w3.org/1999/xlink">
    <title>Group</title>
    <g id="Approved-Screens" stroke="none" stroke-width="1" fill="none" fill-rule="evenodd">
        <g id="Affiliate-Admin-Dashboard-|-EVENTS-|-Create-New-3-2" transform="translate(-580.000000, -976.000000)" fill="#26A1FF" fill-rule="nonzero">
            <g id="Accordion" transform="translate(-1.000000, 104.000000)">
                <g id="DESCRIPTION" transform="translate(0.000000, 355.000000)">
                    <g id="buttons" transform="translate(425.946154, 509.500000)">
                        <g id="Add-Image-Button" transform="translate(141.000000, 0.000000)">
                            <g id="Group" transform="translate(15.000000, 7.500000)">
                                <path d="M14,0.304237941 C14,0.136007585 13.86145,0 13.690094,0 L0.309896184,0 C0.138537065,0 0,0.136010639 0,0.304237941 L0,8.69636101 C0,8.70650232 0.00182294618,8.71604744 0.00303813993,8.72618769 C0.00364589236,8.73274968 0.00425348923,8.73931152 0.0048610861,8.74587412 C0.00911457533,8.7721227 0.0164062045,8.79657993 0.0267351958,8.819846 C0.0273427927,8.82103916 0.0273427927,8.82163566 0.0279505451,8.82282882 C0.0291657388,8.82521483 0.0315962819,8.82760115 0.0328116312,8.82998716 C0.0431414003,8.85026918 0.0559021791,8.8693585 0.0698772183,8.886658 C0.074130552,8.89143033 0.0777764443,8.89620266 0.0820299336,8.90097499 C0.0996511762,8.9194672 0.118488857,8.93617112 0.139754748,8.94989099 C0.142792888,8.95168066 0.146438624,8.95287366 0.14947692,8.95466332 C0.168921264,8.96599765 0.189580491,8.97554246 0.211456157,8.98270019 C0.217532592,8.98508651 0.224216469,8.98687602 0.230292282,8.98866568 C0.255812595,8.99522767 0.281941127,9 0.309284542,9 L13.6901046,9 C13.7186629,9 13.7453996,8.99522767 13.7715282,8.98806918 C13.7776045,8.98627951 13.7836809,8.98448985 13.7903643,8.98270019 C13.815278,8.97434869 13.8389752,8.96420798 13.8602426,8.94989099 C13.8608504,8.94929434 13.8620656,8.94929434 13.8626733,8.94869784 C13.8851556,8.93378434 13.9039918,8.91588864 13.9216146,8.89620221 C13.925868,8.89142988 13.9301214,8.88665755 13.9337673,8.88188522 C13.9507819,8.86100608 13.9653636,8.83833713 13.9763022,8.81328278 L13.9763022,8.81268613 C13.9866319,8.78882448 13.9921003,8.76317301 13.9957465,8.73632885 C13.9969619,8.72917035 13.9975695,8.72260851 13.9981771,8.71604683 C13.9981771,8.70948484 14,8.70292284 14,8.69636039 L14,0.304237941 Z M13.3808045,0.608475882 L13.3808045,7.95908567 L10.9581947,5.56329969 C10.8378825,5.44458856 10.6422319,5.44339433 10.520697,5.56151003 L8.8624833,7.17096875 L5.0599473,3.34531638 C4.9991845,3.28446879 4.91593782,3.25106248 4.82904182,3.25404499 C4.74215049,3.25643116 4.66073158,3.29460903 4.60421854,3.35903625 L0.619372369,7.88015072 L0.619372369,0.608341646 L13.3808045,0.608475882 Z M0.987446031,8.39218415 L4.85204837,4.00698564 L8.63700668,7.81415955 C8.69473149,7.87202462 8.77372531,7.90543093 8.85574778,7.90602652 C8.94385554,7.90304385 9.01738472,7.87500714 9.07632442,7.81833477 L10.7364048,6.20704347 L12.9463712,8.39223607 L0.987446031,8.39218415 Z" id="Shape"></path>
                                <path d="M10.5,3.7482736 C11.3272139,3.7482736 12,3.07550235 12,2.2482736 C12,1.42105966 11.3272287,0.748273604 10.5,0.748273604 C9.67277125,0.748273604 9,1.42104486 9,2.2482736 C9,3.07548754 9.67277125,3.7482736 10.5,3.7482736 Z M10.5,1.33781848 C11.0021127,1.33781848 11.4105144,1.74622009 11.4105144,2.24833284 C11.4105144,2.75044559 11.0021127,3.1588472 10.5,3.1588472 C9.99788725,3.1588472 9.58948564,2.75044559 9.58948564,2.24833284 C9.59006422,1.74622009 9.9984648,1.33781848 10.5,1.33781848 Z" id="Shape"></path>
                            </g>
                        </g>
                    </g>
                </g>
            </g>
        </g>
    </g>
</svg>