<?xml version="1.0" encoding="UTF-8"?>
<svg width="16px" height="16px" viewBox="0 0 16 16" version="1.1" xmlns="http://www.w3.org/2000/svg" xmlns:xlink="http://www.w3.org/1999/xlink">
    <title>Shape</title>
    <g id="Symbols" stroke="none" stroke-width="1" fill="none" fill-rule="evenodd">
        <g id="log-out-icon---white" fill="#26A1FF" fill-rule="nonzero">
            <path d="M0.44625538,0.00111253192 C0.192513223,0.0286115322 1.30795706e-06,0.242982775 1.30795706e-06,0.498612918 L1.30795706e-06,15.498504 C-0.000622366038,15.774758 0.22187301,15.9997483 0.498127003,16.0009963 L9.24990343,16.0009963 C9.52615742,15.9997464 9.7492758,15.774742 9.74803302,15.498504 L9.74803302,11.7484512 C9.74803302,11.615953 9.69552899,11.4884531 9.60177928,11.3947098 C9.50802956,11.3009601 9.38053288,11.2478356 9.24741385,11.2478356 C9.11491561,11.2478356 8.98741574,11.3009601 8.89367242,11.3947098 C8.7999227,11.4884595 8.74742388,11.6159562 8.74742388,11.7484512 L8.74742388,15.0002676 L0.996280185,15.0008925 L0.996280185,1.00099423 L8.74742388,1.00099423 L8.74742388,4.24849064 C8.74742388,4.38161447 8.7999227,4.50911275 8.89367242,4.60285607 C8.98742214,4.69660578 9.11491881,4.7497302 9.24741385,4.7497302 C9.38053768,4.7497302 9.50803596,4.69660578 9.60177928,4.60285607 C9.69552899,4.50910635 9.74803302,4.38160967 9.74803302,4.24849064 L9.74803302,0.498437879 C9.7467779,0.224071872 9.52490943,0.00156148866 9.24990343,0.00093749319 L0.498127003,0.00093749319 C0.481251926,-0.00031249773 0.463752853,-0.00031249773 0.44625218,0.00093749319 L0.44625538,0.00111253192 Z M11.7412133,4.55163948 C11.4724633,4.56038949 11.2587208,4.78038982 11.2580968,5.04976386 L11.2580968,6.50100132 L3.89751031,6.50100132 C3.76438648,6.50037636 3.63626421,6.55287614 3.54250489,6.64724986 C3.44813117,6.74162357 3.39500516,6.86912024 3.39562529,7.00287927 L3.39562529,8.99918477 L3.39562529,8.99855966 C3.39625571,9.13168349 3.44938077,9.25855777 3.54313048,9.35230109 C3.6375042,9.44605081 3.76500087,9.49854962 3.89749591,9.49792563 L11.2580824,9.49792563 L11.2580824,10.9479151 C11.2593325,11.1385377 11.3680816,11.3122804 11.5399524,11.3954158 C11.7111992,11.47854 11.9155817,11.456665 12.0655806,11.3397906 L15.8087534,8.39357205 C15.9293781,8.29857274 16,8.15357379 16,8.00045491 C16,7.84670562 15.9293749,7.70232907 15.8087534,7.60733776 L12.0655806,4.65919918 C11.973706,4.58607491 11.8587021,4.54795038 11.7412149,4.55169916 L11.7412133,4.55163948 Z" id="Shape"></path>
        </g>
    </g>
</svg>