<?xml version="1.0" encoding="UTF-8"?>
<svg width="8px" height="10px" viewBox="0 0 8 10" version="1.1" xmlns="http://www.w3.org/2000/svg" xmlns:xlink="http://www.w3.org/1999/xlink">
    <title>map pin</title>
    <g id="APPROVED-SCREENS" stroke="none" stroke-width="1" fill="none" fill-rule="evenodd">
        <g id="Affiliate-Admin-Dashboard-|-EVENTS-|-Create-New-1" transform="translate(-872.000000, -1185.000000)" fill="#022F59" fill-rule="nonzero">
            <g id="Accordion" transform="translate(312.000000, 105.000000)">
                <g id="Group" transform="translate(560.000000, 1080.000000)">
                    <g id="Shape" transform="translate(0.000000, -0.000000)">
                        <path d="M3.75,0 C5.79525,0 7.5,1.8184 7.5,4 C7.5,6 4.94315625,8.4547 3.75,10 C2.55684375,8.4547 0,6 0,4 C0,1.8184 1.70475,0 3.75,0 Z M3.75,2.091 C2.81248125,2.091 1.9603125,2.909 1.9603125,4 C1.9603125,5.00002 2.7271875,5.909 3.75,5.909 C4.68751875,5.909 5.5396875,5.091 5.5396875,4 C5.5396875,2.99998 4.7728125,2.091 3.75,2.091 Z"></path>
                    </g>
                </g>
            </g>
        </g>
    </g>
</svg>