<?xml version="1.0" encoding="UTF-8"?>
<svg width="20px" height="16px" viewBox="0 0 20 16" version="1.1" xmlns="http://www.w3.org/2000/svg" xmlns:xlink="http://www.w3.org/1999/xlink">
    <title>rank icon - white</title>
    <g id="rank-icon---white" stroke="none" stroke-width="1" fill="none" fill-rule="evenodd">
        <path d="M0,8.443648 L0,15.555008 C0,15.8037568 0.146276955,16 0.333772005,16 L6,16 L6,8 L0.332811994,8 C0.146248155,8 0,8.1950016 0,8.443744 L0,8.443648 Z" id="Path" fill="#26A1FF" fill-rule="nonzero"></path>
        <path d="M12.6663081,0 C12.8537716,0 13,0.185901147 13,0.42154084 L13,0.42154084 L13,4.6324022 L12.9990627,16 L7,16 L7,0.42154084 C7,0.18472498 7.14715941,0 7.33369186,0 L7.33369186,0 Z M9.74034667,1.26222586 L9.36787893,2.45897169 C9.32557542,2.59564568 9.20358411,2.68833482 9.06584987,2.68833482 L7.86107828,2.68833482 C7.55314575,2.68833482 7.42545044,3.09978789 7.67435329,3.28886489 L8.64905068,4.02855757 C8.76041574,4.11302849 8.80704914,4.26285058 8.76455119,4.39952458 L8.39208345,5.59669132 C8.29704864,5.90250707 8.63213109,6.15676164 8.88123039,5.96786352 L9.85600837,5.22817084 C9.96737343,5.14349473 10.1180933,5.14349473 10.2294634,5.22817084 L11.2042414,5.96786352 C11.4533407,6.15673533 11.7884433,5.90250707 11.6933883,5.59669132 L11.321117,4.39952458 C11.2784196,4.26285058 11.3250522,4.11302849 11.4366175,4.02855757 L12.411194,3.28886489 C12.6600969,3.09978263 12.5323965,2.68833482 12.224469,2.68833482 L11.019496,2.68833482 C10.8819582,2.68833482 10.759572,2.59564568 10.7172705,2.45897169 L10.3449992,1.26222586 C10.2497679,0.956204909 9.83579956,0.956204909 9.74034667,1.26222586 Z" id="Path-2" fill="#26A1FF" fill-rule="nonzero"></path>
        <path d="M19.6662507,5 L14,5 L14,15.9988102 L19.6662507,16 C19.8528152,16 20,15.8143842 20,15.5764263 L19.9990625,5.42357365 C19.9990625,5.18679763 19.852809,5 19.6662492,5 L19.6662507,5 Z" id="Path" fill="#26A1FF" fill-rule="nonzero"></path>
    </g>
</svg>