<?xml version="1.0" encoding="UTF-8"?>
<svg width="18px" height="18px" viewBox="0 0 18 18" version="1.1" xmlns="http://www.w3.org/2000/svg" xmlns:xlink="http://www.w3.org/1999/xlink">
    <title>Competitions icon</title>
    <g id="Approved-Screens" stroke="none" stroke-width="1" fill="none" fill-rule="evenodd">
        <g id="Player-Navigation-updated-" transform="translate(-29.000000, -304.000000)" fill="#26A1FF" fill-rule="nonzero">
            <g id="Competitions-icon" transform="translate(30.000000, 305.000003)">
                <path d="M15.930222,5.94457158 C16.1664682,3.09764244 15.7286193,0.72622271 15.709717,0.62544503 C15.6750671,0.445931765 15.5333065,0.307358425 15.3569122,0.269578888 C13.5739374,-0.0988965573 10.5940872,0.00188112226 10.0428247,0.0491256984 C6.9274975,0.310518813 4.52713438,1.2647625 2.90479663,2.88670267 C1.28245889,4.50865895 0.327990771,6.91458496 0.0697779541,10.0324045 C-0.166468226,12.8793336 0.271380716,15.2507534 0.290282991,15.3515311 C0.324932861,15.5310443 0.46353234,15.6759062 0.643087824,15.7073972 C3.21989368,16.1451432 5.40591275,15.975095 5.95717534,15.9278504 C9.0725025,15.6664573 11.4728656,14.7122136 13.0952034,13.0902734 C14.7175411,11.4683171 15.6687836,9.06239112 15.930222,5.94457158 Z M14.8844037,1.09466591 C14.9757555,1.70247625 15.1553094,3.15746407 15.0986026,4.88955021 L11.0917074,0.880533493 C11.3122124,0.874234807 13.797539,0.867936283 14.8844198,1.09468203 L14.8844037,1.09466591 Z M1.11235454,14.8823424 C1.02100268,14.2745321 0.841448813,12.8164806 0.898155638,11.0874581 L4.90505085,15.0964748 C4.41364009,15.2161487 1.75504802,15.0712804 1.11233841,14.8823263 L1.11235454,14.8823424 Z M6.08629788,15.0240616 L0.970587478,9.90326556 C1.23518707,7.10035612 2.09515994,4.95258221 3.53158768,3.51654059 C4.96485429,2.08046672 7.11011735,1.22074443 9.91046035,0.956142551 L15.0261707,6.07693863 C14.7615712,8.87984807 13.9015983,11.027622 12.4683962,12.4636636 C11.0319846,13.8965932 8.88680216,14.7594598 6.08645916,15.0240616 L6.08629788,15.0240616 Z" id="Shape" stroke="#26A1FF"></path>
                <path d="M10.1719633,7.56023591 C10.3546638,7.74289344 10.6381657,7.72084973 10.8019639,7.56023591 C10.9752132,7.3870273 10.9752132,7.10359209 10.8019639,6.93038348 L10.2444113,6.37296198 L11.1264314,5.48800495 C11.2996808,5.31479634 11.2996808,5.03136113 11.1264314,4.85815252 C10.9531821,4.68494391 10.6728252,4.68494391 10.4964309,4.85815252 L9.61441072,5.74310954 L9.05685813,5.18568804 C8.88360878,5.01247943 8.60325191,5.01247943 8.42685756,5.18568804 C8.25360821,5.35889665 8.25360821,5.64233186 8.42685756,5.81554048 L8.98441016,6.37296198 L7.99844363,7.36184094 L7.44089103,6.80441944 C7.26764168,6.63121083 6.98728481,6.63121083 6.81089046,6.80441944 C6.63764111,6.97762805 6.63764111,7.26106326 6.81089046,7.43427188 L7.36844306,7.99169338 L6.38247653,8.97742808 L5.82492393,8.42000658 C5.65167458,8.24679796 5.37131772,8.24679796 5.19492336,8.42000658 C5.02167402,8.59321519 5.02167402,8.8766504 5.19492336,9.04985901 L5.75247596,9.60728051 L4.87045582,10.4922375 C4.69720647,10.6654461 4.69720647,10.9488814 4.87045582,11.12209 C5.04370517,11.2952986 5.3429643,11.2795547 5.50045638,11.12209 L6.38247653,10.2402772 L6.94002913,10.7976987 C7.12272961,10.9803562 7.40623148,10.9583125 7.57002969,10.7976987 C7.74327904,10.6244901 7.74327904,10.3410549 7.57002969,10.1678463 L7.00931596,9.60726439 L7.9984275,8.61838542 L8.5559801,9.17580692 C8.73868058,9.35846445 9.02218245,9.33642075 9.18598066,9.17580692 C9.35923001,9.00259831 9.35923001,8.7191631 9.18598066,8.54595449 L8.62842806,7.98853299 L9.6175396,6.99965402 L10.1719633,7.56023591 Z" id="Path"></path>
            </g>
        </g>
    </g>
</svg>