<?xml version="1.0" encoding="UTF-8"?>
<svg width="75px" height="75px" viewBox="0 0 75 75" version="1.1" xmlns="http://www.w3.org/2000/svg" xmlns:xlink="http://www.w3.org/1999/xlink">
    <title>Shape</title>
    <g id="Symbols" stroke="none" stroke-width="1" fill="none" fill-rule="evenodd">
        <g id="Player-Navigation" transform="translate(0.000000, -254.000000)" fill="#2395FF" fill-rule="nonzero">
            <g id="np_analysis_4301976_2395FF" transform="translate(0.000000, 254.000000)">
                <path d="M57.0460387,51.0748644 C63.6315215,42.4512356 65.362735,31.0616491 61.6362308,20.8668065 C57.909818,10.6765327 49.2401355,3.09139435 38.6423238,0.749422349 C28.0445122,-1.59254965 16.9834232,1.63462929 9.30873615,9.30881374 C1.63459738,16.9829525 -1.5924445,28.0445898 0.749344754,38.6424014 C3.091134,49.2402131 10.6755413,57.9099869 20.8667289,61.6363084 C31.0606578,65.3627212 42.4507011,63.6315991 51.0747868,57.0461163 L69.0283826,74.9997121 L75,69.0280947 L57.0460387,51.0748644 Z M8.68061615,31.9041377 C8.66276947,24.2049618 12.4677028,16.9951969 18.8315982,12.6612238 C25.1957678,8.32441794 33.2946231,7.4284743 40.4548621,10.2661622 C47.6150098,13.1002864 52.9012143,19.3002529 54.5715713,26.8171333 C56.2420196,34.3342877 54.0754259,42.1902651 48.7891939,47.7907124 L48.7891939,23.4581442 L40.3475865,23.4581442 L40.3475865,53.5126901 C38.9805071,54.0480998 37.5670087,54.4549614 36.1250009,54.7226937 L36.1250009,36.1258095 L27.6798298,36.1258095 L27.6798298,54.7226937 C26.2378219,54.4549889 24.8243235,54.0480815 23.4572442,53.5126901 L23.4572442,27.6806384 L15.012073,27.6806384 L15.012073,47.7907124 C10.9465632,43.5003257 8.68354019,37.8142589 8.67997652,31.9031326 L8.68061615,31.9041377 Z" id="Shape"></path>
            </g>
        </g>
    </g>
</svg>