<?xml version="1.0" encoding="UTF-8"?>
<svg width="18px" height="16px" viewBox="0 0 18 16" version="1.1" xmlns="http://www.w3.org/2000/svg" xmlns:xlink="http://www.w3.org/1999/xlink">
    <title>Group 14</title>
    <g id="Approved-Screens" stroke="none" stroke-width="1" fill="none" fill-rule="evenodd">
        <g id="Player-Navigation-updated-" transform="translate(-29.000000, -269.000000)">
            <g id="Group-14" transform="translate(29.000000, 269.000000)">
                <path d="M17.7774893,3.19520719 L17.7774893,4.0898652 C17.7917748,6.7507315 16.9521002,9.34431952 15.3839117,11.4859774 C13.8156623,13.6276353 11.6022582,15.2028469 9.07296129,15.9760359 C8.9523275,16.007988 8.8253344,16.007988 8.70471077,15.9760359 C6.17541383,15.202806 3.96184726,13.6276353 2.39376036,11.4859774 C0.825510927,9.34431952 -0.014242477,6.7507315 0.00018278474,4.0898652 L0.00018278474,3.19520719 C0.00018278474,2.84212913 0.284299488,2.55616575 0.635097472,2.55616575 C1.68667873,2.55616575 2.53984153,1.69745765 2.53984153,0.639041438 C2.53984153,0.285963375 2.82395824,0 3.17475622,0 L14.6032206,0 C14.771472,0 14.9333762,0.0670983285 15.0524151,0.186919109 C15.1714621,0.30673989 15.2381272,0.469692389 15.2381272,0.639033258 C15.2381272,1.69744947 16.09129,2.55615757 17.1428712,2.55615757 C17.3111226,2.55615757 17.4730269,2.6232559 17.5920657,2.74307668 C17.7111128,2.86289746 17.7777778,3.02584996 17.7777778,3.19519083 L17.7774893,3.19520719 Z" id="Shape" fill="#26A1FF" fill-rule="nonzero"></path>
                <polygon id="Path" fill="#FFFFFF" points="9.08641975 2.4626626 6.32098765 8.98419938 9.08641975 8.98419938 9.08641975 12.4165872 11.8518519 5.89505038 9.08641975 5.89505038"></polygon>
            </g>
        </g>
    </g>
</svg>