<?xml version="1.0" encoding="UTF-8"?>
<svg width="9px" height="9px" viewBox="0 0 9 9" version="1.1" xmlns="http://www.w3.org/2000/svg" xmlns:xlink="http://www.w3.org/1999/xlink">
    <title>np_text_4229138_000000</title>
    <g id="Approved-Screens" stroke="none" stroke-width="1" fill="none" fill-rule="evenodd">
        <g id="Affiliate-Admin-Dashboard-|-EVENTS-|-Create-New-3-2" transform="translate(-442.000000, -976.000000)" fill="#26A1FF" fill-rule="nonzero">
            <g id="Accordion" transform="translate(-1.000000, 104.000000)">
                <g id="DESCRIPTION" transform="translate(0.000000, 355.000000)">
                    <g id="buttons" transform="translate(425.946154, 509.500000)">
                        <g id="np_text_4229138_000000" transform="translate(17.053846, 7.500000)">
                            <path d="M8.625,0 L0.375,0 C0.167808,0 0,0.167808 0,0.375 L0,2.25 C0,2.457192 0.167808,2.625 0.375,2.625 C0.582192,2.625 0.75,2.457192 0.75,2.25 L0.75,0.75 L4.125,0.75 L4.125,8.625 C4.125,8.832192 4.292808,9 4.5,9 C4.707192,9 4.875,8.832192 4.875,8.625 L4.875,0.75 L8.25,0.75 L8.25,2.25 C8.25,2.457192 8.417808,2.625 8.625,2.625 C8.832192,2.625 9,2.457192 9,2.25 L9,0.375 C9,0.2756256 8.9606256,0.18 8.8903128,0.109692 C8.82,0.0393792 8.7243768,0 8.6250048,0 L8.625,0 Z" id="Path"></path>
                            <path d="M5.625,9 L3.375,9 C3.167808,9 3,8.832192 3,8.625 C3,8.417808 3.167808,8.25 3.375,8.25 L5.625,8.25 C5.832192,8.25 6,8.417808 6,8.625 C6,8.832192 5.832192,9 5.625,9 Z" id="Path"></path>
                        </g>
                    </g>
                </g>
            </g>
        </g>
    </g>
</svg>